<svg width="24" height="24" viewBox="0 0 24 24" fill="none" xmlns="http://www.w3.org/2000/svg">
<g clip-path="url(#clip0_2334_5508)">
<path d="M23.5861 19.8628H0.413812C0.185297 19.8628 0 19.6775 0 19.449V4.55248C0 4.32397 0.185297 4.13867 0.413812 4.13867H23.5862C23.8147 4.13867 24 4.32397 24 4.55248V19.449C24 19.6775 23.8147 19.8628 23.5861 19.8628Z" fill="#1B9D81"/>
<path d="M10.3442 17.3798C13.3152 17.3798 15.7236 14.9714 15.7236 12.0005C15.7236 9.02952 13.3152 6.62109 10.3442 6.62109C7.37327 6.62109 4.96484 9.02952 4.96484 12.0005C4.96484 14.9714 7.37327 17.3798 10.3442 17.3798Z" fill="#FF0000"/>
</g>
<defs>
<clipPath id="clip0_2334_5508">
<rect width="24" height="24" fill="white"/>
</clipPath>
</defs>
</svg>
