<svg width="337" height="337" viewBox="0 0 337 337" fill="none" xmlns="http://www.w3.org/2000/svg">
<path d="M318.035 145.949L317.584 145.657C316.856 145.187 316.265 144.533 315.87 143.762L305.228 122.996L298.41 126.49L309.052 147.256C309.447 148.027 309.632 148.889 309.589 149.754L309.562 150.291C309.479 151.955 311.228 153.086 312.712 152.326L317.847 149.694C319.331 148.934 319.435 146.853 318.035 145.949Z" fill="#323232"/>
<path d="M306.021 132.382C312.909 128.852 317.404 123.868 316.062 121.248C314.719 118.629 308.048 119.367 301.16 122.896C294.273 126.426 289.778 131.411 291.12 134.03C292.462 136.649 299.134 135.911 306.021 132.382Z" fill="#323232"/>
<path d="M295.404 127.487L272.711 83.2042C272.617 83.0209 272.575 82.8151 272.591 82.6097L273.488 71.0281C273.552 70.1992 274.468 69.7297 275.179 70.1617L285.104 76.1977C285.28 76.3047 285.422 76.4584 285.516 76.6417L308.21 120.925C309.531 123.504 308.512 126.667 305.933 127.989L302.468 129.764C299.888 131.086 296.726 130.067 295.404 127.487Z" fill="#158E72"/>
<path d="M275.03 73.3936C275.851 74.9895 276.672 76.5855 277.492 78.1814C279.45 81.9869 281.407 85.7924 283.364 89.5979C285.73 94.198 288.096 98.798 290.462 103.398C292.517 107.395 294.573 111.391 296.628 115.388C297.299 116.691 297.969 117.994 298.639 119.297C298.96 119.921 299.256 120.567 299.605 121.176C299.62 121.202 299.633 121.23 299.647 121.257C299.994 121.932 301.011 121.336 300.665 120.662C299.844 119.066 299.023 117.47 298.202 115.874C296.245 112.069 294.288 108.263 292.331 104.458C289.965 99.8576 287.599 95.2576 285.233 90.6575C283.177 86.6609 281.122 82.6643 279.066 78.6677C278.396 77.3646 277.726 76.0614 277.056 74.7583C276.735 74.1345 276.438 73.4886 276.089 72.8798C276.074 72.8536 276.062 72.8257 276.048 72.7987C275.701 72.124 274.683 72.7195 275.03 73.3936Z" fill="white"/>
<path d="M306.691 119.801C306.348 121.038 305.382 122.114 304.193 122.322L304.858 122.593C303.962 120.934 301.895 120.291 300.216 121.151C298.515 122.023 297.96 124.127 298.775 125.793L298.986 124.987C297.788 125.854 296.111 126.476 294.664 125.948C293.95 125.688 293.642 126.827 294.35 127.085C296.072 127.712 298.145 127.043 299.581 126.004C299.854 125.807 299.944 125.509 299.792 125.198C299.248 124.084 299.707 122.729 300.811 122.169C301.937 121.597 303.259 122.111 303.84 123.188C303.973 123.434 304.252 123.503 304.506 123.458C306.164 123.169 307.399 121.658 307.827 120.114C308.03 119.382 306.894 119.07 306.691 119.801Z" fill="white"/>
<path d="M137.372 74.6753L125.766 122.231C123.231 132.617 115.632 141.117 105.277 145.149L78.497 155.577L59.5319 133.984C52.1986 125.635 49.3695 114.59 51.9041 104.205L63.5104 56.6489L65.0192 50.4669C65.9303 46.7339 69.8786 44.4911 73.8381 45.4574C87.1499 48.7062 99.9055 46.1016 106.801 39.6035C109.928 48.5476 120.049 56.7355 133.361 59.9843L133.406 59.9953C137.385 60.9663 139.857 64.8062 138.914 68.5506L137.372 74.6753Z" fill="#F4D13B"/>
<path d="M103.395 50.8141C103.193 51.6332 102.991 52.4524 102.789 53.2715C102.24 55.5006 101.692 57.7297 101.143 59.9588C100.331 63.2553 99.5191 66.5518 98.7073 69.8483C97.7205 73.8555 96.7338 77.8626 95.747 81.8698C94.6664 86.2578 93.5859 90.6459 92.5053 95.0339C91.4109 99.4781 90.3165 103.922 89.2221 108.366C88.2018 112.51 87.1814 116.653 86.161 120.797C85.2991 124.297 84.4371 127.798 83.5751 131.298C82.9574 133.806 82.3398 136.315 81.7221 138.823C81.4291 140.013 81.1198 141.2 80.8429 142.393C80.8309 142.445 80.8175 142.497 80.8047 142.548C80.5327 143.653 82.2371 144.124 82.5095 143.018C82.7112 142.199 82.9129 141.38 83.1146 140.561C83.6635 138.332 84.2124 136.103 84.7614 133.874C85.5731 130.577 86.3849 127.281 87.1967 123.984C88.1835 119.977 89.1702 115.97 90.157 111.963C91.2376 107.575 92.3181 103.187 93.3987 98.7986C94.4931 94.3545 95.5875 89.9104 96.6819 85.4662C97.7022 81.3227 98.7226 77.1791 99.7429 73.0356C100.605 69.5352 101.467 66.0348 102.329 62.5344C102.947 60.0261 103.564 57.5177 104.182 55.0094C104.475 53.8198 104.784 52.6329 105.061 51.4394C105.073 51.3875 105.087 51.3358 105.099 51.2841C105.371 50.1794 103.667 49.7081 103.395 50.8141Z" fill="white"/>
<path d="M62.955 81.5637C63.4843 81.693 64.0137 81.8222 64.543 81.9515C65.9837 82.3034 67.4244 82.6552 68.8651 83.0071C71.0077 83.5303 73.1502 84.0536 75.2928 84.5769C77.8954 85.2125 80.498 85.8481 83.1007 86.4837C85.9511 87.1799 88.8016 87.876 91.652 88.5722C94.5294 89.2749 97.4068 89.9777 100.284 90.6804C102.968 91.3358 105.651 91.9911 108.335 92.6465L115.169 94.3156C116.799 94.7136 118.428 95.1116 120.058 95.5096C120.83 95.6981 121.599 95.9021 122.375 96.0754C122.408 96.0829 122.441 96.0916 122.474 96.0998C123.579 96.3696 124.051 94.6652 122.944 94.395C122.415 94.2657 121.886 94.1365 121.356 94.0072C119.916 93.6554 118.475 93.3035 117.034 92.9516L110.607 91.3818C108.004 90.7462 105.401 90.1106 102.799 89.475C99.9482 88.7788 97.0977 88.0827 94.2473 87.3865C91.3699 86.6838 88.4925 85.981 85.6151 85.2783C82.9315 84.6229 80.2481 83.9676 77.5645 83.3122C75.2864 82.7558 73.0083 82.1994 70.7302 81.6431C69.1006 81.2451 67.4709 80.8471 65.8412 80.4491C65.0696 80.2606 64.2999 80.0566 63.5246 79.8833C63.4913 79.8758 63.4582 79.8671 63.425 79.8589C62.32 79.5891 61.8486 81.2935 62.955 81.5637Z" fill="white"/>
<path d="M226.816 121.557C226.857 121.64 226.888 121.715 226.885 121.794C226.889 121.696 226.851 121.893 226.865 121.86C226.885 121.817 226.775 121.994 226.824 121.93C226.786 121.979 226.738 122.021 226.694 122.065C226.697 122.062 226.619 122.129 226.658 122.098C226.696 122.067 226.612 122.13 226.615 122.128C226.489 122.212 226.358 122.283 226.222 122.349C226.143 122.388 226.206 122.36 226.124 122.391C226.063 122.415 226.002 122.437 225.941 122.459C225.797 122.51 225.651 122.557 225.506 122.604C225.208 122.7 224.914 122.803 224.628 122.932C224.037 123.199 223.462 123.709 223.493 124.415C223.529 125.212 224.262 125.557 224.93 125.765C225.664 125.995 226.436 126.018 227.19 125.885C227.504 125.829 227.68 125.446 227.602 125.16C227.511 124.829 227.191 124.693 226.877 124.748C226.258 124.857 225.538 124.776 224.948 124.524C224.869 124.49 224.794 124.449 224.719 124.408C224.659 124.369 224.649 124.363 224.689 124.392C224.64 124.342 224.632 124.335 224.665 124.372C224.709 124.442 224.662 124.289 224.67 124.385C224.673 124.313 224.674 124.305 224.672 124.362C224.694 124.295 224.696 124.285 224.679 124.333C224.76 124.155 225.099 123.997 225.293 123.922C225.933 123.674 226.636 123.54 227.21 123.146C227.546 122.915 227.826 122.629 227.974 122.245C228.143 121.805 228.034 121.369 227.834 120.962C227.693 120.676 227.288 120.598 227.027 120.75C226.736 120.921 226.675 121.27 226.816 121.557Z" fill="black"/>
<path d="M223.68 109.253C223.68 109.253 231.261 97.324 245.403 101.589C259.706 108.447 251.673 117.656 256.18 127.648C252.065 134.506 238.938 136.857 230.708 132.547C235.999 129.804 234.235 123.142 234.235 123.142L241.093 121.183L241.876 116.088H228.553L225.985 112.404C225.985 112.404 219.612 120.399 222.013 131.762C217.475 127.207 220.019 113.827 223.68 109.253Z" fill="black"/>
<path d="M224.444 109.699C224.507 109.6 224.575 109.503 224.644 109.407C224.725 109.292 224.809 109.18 224.893 109.067C224.916 109.037 224.94 109.007 224.962 108.976C225.026 108.889 224.809 109.169 224.933 109.014C224.998 108.933 225.062 108.851 225.127 108.77C225.845 107.883 226.638 107.056 227.488 106.295C227.759 106.051 228.037 105.814 228.321 105.585C228.397 105.523 228.474 105.462 228.551 105.401C228.58 105.378 228.61 105.355 228.639 105.332C228.744 105.25 228.532 105.413 228.639 105.332C228.802 105.209 228.966 105.087 229.133 104.967C229.82 104.475 230.537 104.024 231.281 103.622C232.913 102.74 234.609 102.134 236.524 101.794C237.494 101.622 238.581 101.541 239.652 101.554C240.831 101.568 242.002 101.697 243.158 101.933C243.788 102.061 244.464 102.183 245.067 102.411C245.733 102.663 246.379 103.07 246.992 103.43C248.022 104.034 249.009 104.711 249.893 105.516C250.657 106.211 251.292 106.927 251.813 107.729C252.334 108.533 252.659 109.223 252.929 110.035C253.066 110.448 253.18 110.87 253.274 111.295C253.316 111.487 253.355 111.68 253.389 111.873C253.409 111.983 253.427 112.094 253.444 112.205C253.453 112.262 253.494 112.545 253.473 112.388C253.589 113.265 253.637 114.15 253.659 115.033C253.756 118.89 253.497 122.779 254.775 126.491C254.963 127.036 255.182 127.569 255.417 128.095V127.203C254.655 128.459 253.527 129.583 252.319 130.425C250.907 131.409 249.388 132.124 247.788 132.654C244.322 133.801 240.51 134.143 236.929 133.594C234.913 133.285 232.934 132.708 231.155 131.784V133.31C233.064 132.302 234.436 130.592 235.026 128.518C235.458 126.997 235.478 125.394 235.261 123.838C235.217 123.526 235.168 123.212 235.088 122.907L234.47 123.995C236.756 123.342 239.042 122.688 241.328 122.035C241.598 121.958 241.9 121.714 241.945 121.418C242.207 119.72 242.468 118.022 242.729 116.324C242.815 115.767 242.504 115.205 241.877 115.205C237.979 115.205 234.081 115.205 230.183 115.205C229.64 115.205 229.097 115.205 228.553 115.205C228.808 115.351 229.062 115.497 229.316 115.643C228.46 114.414 227.604 113.186 226.749 111.958C226.459 111.542 225.743 111.298 225.36 111.779C224.481 112.885 223.781 114.142 223.174 115.413C221.761 118.371 220.897 121.562 220.655 124.834C220.478 127.232 220.671 129.645 221.16 131.998L222.638 131.138C221.803 130.288 221.288 129.167 220.954 127.912C220.553 126.407 220.447 124.986 220.466 123.377C220.506 120.072 221.145 116.774 222.323 113.649C222.61 112.887 222.868 112.292 223.273 111.526C223.438 111.213 223.614 110.905 223.803 110.606C223.898 110.455 223.996 110.307 224.099 110.161C224.141 110.101 224.184 110.042 224.227 109.982C224.367 109.787 224.22 109.987 224.306 109.878C224.602 109.505 224.67 108.993 224.306 108.628C223.998 108.321 223.354 108.252 223.056 108.628C221.092 111.103 220.056 114.314 219.403 117.365C218.669 120.794 218.35 124.488 219.139 127.937C219.513 129.569 220.201 131.18 221.388 132.388C222.036 133.048 223.038 132.36 222.865 131.528C222.102 127.863 222.206 124.064 223.179 120.449C223.816 118.081 224.676 116.04 225.991 113.951C226.162 113.681 226.338 113.414 226.523 113.154C226.576 113.081 226.63 113.009 226.683 112.936C226.8 112.773 226.529 113.132 226.61 113.029C226.148 112.97 225.685 112.91 225.222 112.85C225.97 113.924 226.718 114.997 227.466 116.07C227.77 116.506 228.01 116.946 228.615 116.973C228.943 116.987 229.275 116.973 229.603 116.973H241.877C241.593 116.6 241.308 116.227 241.024 115.854C240.763 117.552 240.502 119.25 240.241 120.948L240.858 120.331C238.572 120.984 236.286 121.637 234 122.29C233.537 122.422 233.26 122.911 233.383 123.377C233.438 123.585 233.476 123.798 233.511 124.01C233.521 124.071 233.566 124.392 233.547 124.241C233.526 124.084 233.552 124.291 233.557 124.333C233.565 124.409 233.574 124.485 233.581 124.56C233.609 124.861 233.626 125.163 233.632 125.464C233.638 125.823 233.627 126.183 233.598 126.541C233.59 126.633 233.581 126.724 233.572 126.816C233.566 126.869 233.56 126.922 233.553 126.975C233.555 126.961 233.573 126.836 233.557 126.941C233.526 127.146 233.489 127.35 233.445 127.553C233.253 128.432 233.027 129.021 232.56 129.751C232.02 130.595 231.215 131.281 230.262 131.784C229.689 132.086 229.683 133.009 230.262 133.31C236.25 136.421 243.935 136.289 250.071 133.667C251.516 133.05 252.868 132.265 254.099 131.287C254.658 130.843 255.184 130.357 255.659 129.824C256.132 129.293 256.718 128.657 256.988 127.989C257.184 127.502 256.866 127.046 256.709 126.644C256.561 126.267 256.428 125.884 256.309 125.496C256.09 124.782 255.919 124.054 255.79 123.318C255.673 122.649 255.614 122.146 255.556 121.408C255.5 120.706 255.472 120.003 255.458 119.299C255.406 116.637 255.563 113.954 255.079 111.32C254.558 108.487 253.106 105.981 250.94 104.084C249.463 102.79 247.76 101.73 245.987 100.893C245.116 100.481 244.083 100.304 243.14 100.134C242.21 99.9664 241.268 99.8512 240.324 99.8061C237.232 99.6584 234.16 100.294 231.361 101.606C228.078 103.144 225.072 105.655 223.018 108.656C222.984 108.706 222.95 108.756 222.917 108.807C222.304 109.77 223.834 110.657 224.444 109.699Z" fill="black"/>
<path d="M229.286 119.715C229.626 119.475 229.986 119.276 230.363 119.102C230.422 119.077 230.412 119.081 230.333 119.114C230.358 119.104 230.383 119.094 230.407 119.084C230.457 119.064 230.507 119.045 230.557 119.026C230.644 118.993 230.733 118.963 230.822 118.934C231.025 118.869 231.232 118.815 231.441 118.771C231.744 118.707 231.947 118.336 231.853 118.046C231.75 117.727 231.452 117.566 231.128 117.635C230.258 117.818 229.416 118.183 228.691 118.698C228.563 118.788 228.463 118.894 228.42 119.05C228.381 119.191 228.399 119.379 228.48 119.504C228.64 119.753 229.017 119.906 229.286 119.715Z" fill="black"/>
<path d="M224.507 118.48C224.546 118.495 224.585 118.511 224.624 118.527L224.483 118.468C224.785 118.597 225.068 118.763 225.329 118.962L225.21 118.87C225.409 119.024 225.593 119.197 225.76 119.386C225.856 119.495 226.035 119.559 226.177 119.559C226.321 119.559 226.494 119.494 226.593 119.386C226.697 119.274 226.773 119.126 226.766 118.969C226.759 118.807 226.701 118.675 226.593 118.553C226.111 118.005 225.496 117.607 224.82 117.344C224.686 117.292 224.485 117.333 224.366 117.403C224.244 117.475 224.127 117.615 224.095 117.755C224.061 117.906 224.068 118.075 224.155 118.209C224.243 118.346 224.356 118.422 224.507 118.48Z" fill="black"/>
<path d="M229.688 121.465C229.874 121.655 230.23 121.489 230.173 121.219C230.146 121.088 230.014 120.99 229.88 120.994C229.677 121 229.543 121.317 229.688 121.465Z" fill="black"/>
<path d="M229.273 121.883C229.317 121.927 229.371 121.964 229.421 122.001C229.434 122.01 229.447 122.019 229.46 122.026C229.527 122.061 229.601 122.097 229.677 122.111C229.751 122.125 229.835 122.143 229.913 122.136C229.986 122.13 230.074 122.124 230.147 122.098C230.206 122.077 230.265 122.052 230.32 122.025C230.333 122.019 230.344 122.012 230.356 122.005C230.407 121.97 230.456 121.931 230.503 121.891C230.515 121.882 230.526 121.871 230.535 121.859C230.575 121.814 230.614 121.765 230.647 121.714C230.655 121.702 230.662 121.69 230.668 121.677C230.691 121.627 230.714 121.573 230.733 121.522C230.736 121.515 230.738 121.509 230.74 121.502C230.757 121.441 230.763 121.359 230.768 121.307C230.77 121.293 230.771 121.278 230.77 121.264C230.768 121.231 230.762 121.197 230.757 121.166C230.753 121.133 230.75 121.097 230.743 121.064C230.73 121.002 230.691 120.924 230.669 120.877C230.661 120.86 230.652 120.843 230.641 120.827C230.609 120.78 230.572 120.735 230.537 120.691C230.532 120.685 230.526 120.679 230.521 120.673C230.514 120.666 230.508 120.66 230.501 120.654C230.456 120.615 230.408 120.578 230.36 120.544C230.345 120.534 230.329 120.524 230.312 120.516C230.253 120.487 230.191 120.458 230.127 120.439C230.118 120.437 230.109 120.434 230.1 120.432C230.042 120.421 229.981 120.414 229.923 120.408C229.905 120.406 229.887 120.406 229.868 120.407C229.814 120.411 229.751 120.42 229.697 120.43C229.69 120.431 229.683 120.433 229.677 120.435C229.67 120.436 229.664 120.439 229.658 120.441C229.606 120.46 229.551 120.483 229.501 120.507C229.488 120.513 229.477 120.52 229.465 120.528C229.421 120.56 229.376 120.595 229.334 120.63C229.328 120.635 229.322 120.64 229.316 120.645C229.26 120.699 229.213 120.763 229.172 120.829C229.163 120.843 229.156 120.858 229.149 120.873C229.123 120.931 229.094 120.992 229.075 121.054C229.05 121.135 229.039 121.222 229.039 121.306C229.039 121.313 229.039 121.32 229.04 121.327C229.044 121.386 229.053 121.446 229.063 121.504C229.066 121.519 229.069 121.534 229.075 121.549C229.125 121.687 229.17 121.775 229.273 121.883C229.326 121.94 229.389 121.981 229.462 122.005C229.532 122.041 229.608 122.058 229.689 122.055C229.77 122.058 229.846 122.041 229.916 122.005C229.989 121.981 230.052 121.94 230.106 121.883L230.198 121.763C230.251 121.672 230.278 121.572 230.278 121.466L230.257 121.309C230.229 121.21 230.179 121.123 230.106 121.049C230.1 121.043 230.094 121.036 230.089 121.029L230.181 121.149C230.171 121.135 230.162 121.12 230.156 121.104L230.215 121.245C230.207 121.226 230.202 121.206 230.199 121.186L230.22 121.342C230.217 121.316 230.217 121.29 230.221 121.264L230.2 121.42C230.204 121.39 230.212 121.36 230.224 121.332L230.165 121.472C230.177 121.444 230.192 121.417 230.211 121.393L230.119 121.512C230.135 121.493 230.152 121.475 230.171 121.46L230.052 121.552C230.068 121.54 230.086 121.529 230.105 121.521L229.964 121.58C229.981 121.573 229.999 121.568 230.017 121.565L229.861 121.586C229.882 121.584 229.902 121.584 229.923 121.587L229.766 121.566C229.794 121.569 229.82 121.577 229.846 121.587L229.705 121.528C229.728 121.538 229.75 121.551 229.771 121.566L229.651 121.474C229.673 121.491 229.693 121.51 229.71 121.532L229.617 121.413C229.631 121.432 229.643 121.451 229.652 121.472L229.592 121.331C229.601 121.354 229.607 121.377 229.61 121.401L229.589 121.244C229.592 121.266 229.592 121.288 229.589 121.31L229.61 121.153C229.607 121.176 229.601 121.197 229.593 121.218L229.652 121.077C229.643 121.097 229.632 121.116 229.619 121.134L229.711 121.014C229.696 121.034 229.678 121.052 229.658 121.067L229.777 120.975C229.757 120.991 229.735 121.003 229.712 121.013L229.853 120.954C229.826 120.965 229.798 120.973 229.769 120.977L229.926 120.956C229.9 120.959 229.875 120.959 229.849 120.956L230.006 120.977C229.982 120.974 229.958 120.968 229.936 120.959L230.077 121.018C230.055 121.009 230.035 120.998 230.016 120.983L230.136 121.076C230.125 121.067 230.115 121.059 230.106 121.049C230.052 120.992 229.989 120.951 229.916 120.927C229.846 120.891 229.77 120.874 229.689 120.877C229.608 120.874 229.532 120.891 229.462 120.927C229.389 120.951 229.326 120.992 229.272 121.049L229.18 121.169C229.127 121.261 229.1 121.36 229.1 121.466L229.121 121.623C229.149 121.723 229.199 121.809 229.273 121.883Z" fill="black"/>
<path d="M224.377 121.098C224.564 121.288 224.919 121.122 224.863 120.852C224.836 120.721 224.703 120.623 224.569 120.627C224.367 120.633 224.232 120.95 224.377 121.098Z" fill="black"/>
<path d="M223.962 121.516C224.007 121.56 224.06 121.597 224.111 121.634C224.123 121.643 224.136 121.652 224.15 121.659C224.217 121.694 224.291 121.73 224.367 121.744C224.44 121.758 224.525 121.776 224.603 121.769C224.675 121.762 224.763 121.757 224.836 121.731C224.895 121.71 224.954 121.685 225.01 121.658C225.022 121.652 225.034 121.645 225.045 121.637C225.097 121.603 225.145 121.564 225.193 121.524C225.204 121.514 225.215 121.504 225.225 121.492C225.264 121.446 225.303 121.397 225.337 121.347C225.345 121.335 225.351 121.323 225.357 121.31C225.381 121.26 225.403 121.206 225.423 121.155C225.425 121.148 225.427 121.142 225.429 121.135C225.446 121.074 225.453 120.992 225.458 120.94C225.459 120.926 225.46 120.911 225.459 120.897C225.458 120.864 225.451 120.83 225.447 120.798C225.443 120.766 225.44 120.73 225.433 120.697C225.419 120.635 225.38 120.557 225.359 120.51C225.351 120.492 225.342 120.475 225.331 120.459C225.298 120.413 225.262 120.367 225.226 120.324C225.221 120.317 225.216 120.311 225.21 120.306C225.204 120.299 225.197 120.293 225.19 120.287C225.146 120.248 225.097 120.211 225.049 120.177C225.034 120.167 225.019 120.157 225.002 120.149C224.942 120.12 224.88 120.091 224.816 120.072C224.807 120.069 224.798 120.067 224.789 120.065C224.731 120.054 224.671 120.047 224.612 120.041C224.594 120.039 224.576 120.038 224.558 120.04C224.503 120.044 224.44 120.053 224.386 120.063C224.379 120.064 224.373 120.066 224.366 120.067C224.36 120.069 224.353 120.071 224.347 120.074C224.295 120.093 224.24 120.116 224.19 120.14C224.178 120.146 224.166 120.153 224.155 120.161C224.11 120.193 224.065 120.228 224.023 120.263C224.017 120.268 224.011 120.273 224.006 120.278C223.949 120.332 223.902 120.396 223.862 120.462C223.853 120.476 223.845 120.49 223.839 120.505C223.812 120.564 223.783 120.625 223.764 120.687C223.74 120.768 223.728 120.855 223.729 120.939C223.729 120.946 223.729 120.953 223.729 120.96C223.734 121.019 223.743 121.079 223.753 121.137C223.755 121.152 223.759 121.167 223.764 121.182C223.815 121.32 223.859 121.408 223.962 121.516C224.015 121.573 224.078 121.614 224.152 121.637C224.222 121.674 224.297 121.691 224.379 121.688C224.46 121.691 224.535 121.674 224.606 121.637C224.679 121.614 224.742 121.573 224.795 121.516L224.887 121.396C224.941 121.304 224.968 121.205 224.968 121.099L224.947 120.942C224.919 120.842 224.868 120.756 224.795 120.682C224.789 120.676 224.784 120.669 224.778 120.662L224.87 120.782C224.86 120.768 224.852 120.753 224.845 120.737L224.904 120.878C224.897 120.859 224.892 120.839 224.889 120.819L224.91 120.975C224.906 120.949 224.907 120.923 224.91 120.896L224.889 121.053C224.893 121.022 224.902 120.993 224.914 120.964L224.854 121.105C224.867 121.077 224.882 121.05 224.901 121.026L224.809 121.145C224.824 121.126 224.841 121.108 224.861 121.093L224.741 121.185C224.758 121.173 224.775 121.162 224.794 121.154L224.653 121.213C224.671 121.206 224.688 121.201 224.707 121.198L224.55 121.219C224.571 121.217 224.592 121.217 224.612 121.22L224.456 121.199C224.483 121.202 224.51 121.21 224.535 121.22L224.394 121.161C224.418 121.171 224.44 121.184 224.46 121.199L224.341 121.107C224.363 121.124 224.382 121.143 224.399 121.165L224.307 121.046C224.321 121.064 224.332 121.084 224.341 121.105L224.282 120.964C224.291 120.987 224.297 121.009 224.3 121.033L224.279 120.877C224.281 120.899 224.281 120.921 224.279 120.943L224.3 120.786C224.297 120.808 224.291 120.83 224.282 120.851L224.342 120.71C224.333 120.73 224.322 120.749 224.309 120.766L224.401 120.647C224.385 120.667 224.367 120.685 224.347 120.7L224.467 120.608C224.446 120.623 224.425 120.636 224.401 120.646L224.542 120.587C224.515 120.598 224.487 120.606 224.459 120.61L224.615 120.589C224.59 120.592 224.564 120.592 224.539 120.589L224.695 120.61C224.671 120.607 224.648 120.601 224.625 120.592L224.766 120.651C224.744 120.642 224.724 120.63 224.706 120.616L224.825 120.708C224.815 120.7 224.805 120.692 224.795 120.682C224.742 120.625 224.679 120.584 224.606 120.56C224.535 120.523 224.46 120.506 224.379 120.51C224.297 120.506 224.222 120.523 224.152 120.56C224.079 120.584 224.015 120.625 223.962 120.682L223.87 120.801C223.816 120.893 223.79 120.992 223.789 121.099L223.81 121.255C223.838 121.355 223.889 121.442 223.962 121.516Z" fill="black"/>
<path d="M228.361 128.67C228.776 128.547 229.199 128.456 229.629 128.398L229.472 128.419C229.675 128.393 229.878 128.373 230.082 128.361C230.389 128.343 230.686 128.103 230.671 127.772C230.658 127.468 230.411 127.163 230.082 127.183C229.394 127.224 228.708 127.338 228.047 127.533C227.752 127.621 227.537 127.952 227.636 128.258C227.733 128.558 228.044 128.764 228.361 128.67Z" fill="black"/>
<path d="M241.54 101.177C241.191 100.066 242.287 99.0801 243.217 98.671C244.305 98.1927 245.569 98.1592 246.687 98.5489C247.714 98.9071 248.528 99.719 248.856 100.756C249.16 101.719 249.126 102.875 248.466 103.701C248.169 104.074 248.102 104.587 248.466 104.951C248.775 105.26 249.417 105.326 249.716 104.951C251.339 102.92 251.091 99.7989 249.165 98.0269C247.2 96.219 243.873 95.9946 241.668 97.5162C240.351 98.4256 239.319 100.001 239.835 101.647C240.174 102.729 241.881 102.267 241.54 101.177Z" fill="black"/>
<path d="M247.621 94.8139C247.39 93.3762 248.389 91.9357 249.235 90.8747C250.129 89.7527 251.161 88.7291 252.293 87.8473C254.53 86.1055 257.176 84.9001 259.951 84.3349C261.333 84.0537 262.893 83.8237 264.281 84.1614C265.681 84.5021 266.544 85.5682 267.132 86.8254C267.687 88.0121 268.199 89.7618 267.324 90.9267C267.014 91.339 266.512 91.6984 265.99 91.6895C265.796 91.6862 265.545 91.644 265.421 91.4748C265.387 91.4296 265.433 91.37 265.543 91.2641C265.917 90.9015 266.514 90.8738 267.004 90.9421C267.693 91.0384 268.361 91.3689 268.899 91.8029C270.047 92.7289 270.78 94.1673 271.298 95.5213C271.689 96.5451 272.095 97.9513 271.54 98.9268C270.962 99.9407 269.41 100.037 268.389 99.8328C267.797 99.7143 267.252 99.5033 266.754 99.1601C266.544 99.0155 266.349 98.8304 266.182 98.6302C266.114 98.5493 266.05 98.4563 265.989 98.3591C265.942 98.2828 265.857 98.0309 265.791 97.9808C265.707 98.1167 265.622 98.2527 265.538 98.3886L265.651 98.3587C265.62 98.3531 265.77 98.3352 265.809 98.3307C265.977 98.3113 266.161 98.3135 266.328 98.3354C266.625 98.3744 266.927 98.4781 267.194 98.6111C267.852 98.9383 268.412 99.4043 268.921 99.9295C269.745 100.779 270.749 102.075 270.548 103.344C270.358 104.55 269.02 105.003 267.949 104.893C266.457 104.74 265.126 103.65 263.966 102.785C262.677 101.823 261.415 100.818 260.041 99.979C257.527 98.4451 254.338 97.4543 251.444 98.4957C250.716 98.7576 250.084 99.1242 249.477 99.5996C249.1 99.8942 249.168 100.541 249.477 100.85C249.848 101.221 250.35 101.145 250.727 100.85C251.93 99.907 253.599 99.7079 255.071 99.9156C256.859 100.168 258.464 101.022 259.945 102.017C261.519 103.073 262.955 104.325 264.545 105.357C266.071 106.348 267.951 107.055 269.761 106.444C271.586 105.829 272.606 104.141 272.246 102.239C271.917 100.497 270.607 98.9151 269.246 97.8461C268.497 97.258 267.645 96.7625 266.692 96.6141C265.773 96.4712 264.372 96.5402 264.069 97.6294C263.826 98.5044 264.532 99.4967 265.121 100.085C265.713 100.675 266.458 101.092 267.246 101.358C268.787 101.878 270.817 101.838 272.158 100.831C273.631 99.7238 273.751 97.8203 273.349 96.1547C272.543 92.8186 269.803 88.5064 265.811 89.2281C264.936 89.3863 264.063 89.9868 263.756 90.8429C263.424 91.7707 263.928 92.7511 264.785 93.1734C266.581 94.0585 268.569 92.7489 269.244 91.0515C269.972 89.2237 269.303 87.0547 268.394 85.4139C267.477 83.7579 266.011 82.6089 264.115 82.3397C262.273 82.0782 260.315 82.3878 258.527 82.8507C256.853 83.2838 255.228 83.9457 253.72 84.7911C252.214 85.6361 250.807 86.684 249.567 87.8857C248.231 89.1786 246.947 90.6977 246.241 92.4331C245.866 93.3547 245.758 94.3034 245.916 95.2838C245.992 95.7555 246.579 96.0177 247.003 95.9012C247.505 95.7632 247.697 95.287 247.621 94.8139Z" fill="black"/>
<path d="M181.562 191.719C187.791 192.658 193.942 194.09 199.943 196.004C205.92 197.909 211.741 200.287 217.339 203.12C220.505 204.722 223.598 206.468 226.609 208.347C227.577 208.952 228.465 207.423 227.501 206.821C222.091 203.443 216.415 200.514 210.538 198.039C204.71 195.584 198.691 193.589 192.548 192.086C189.076 191.237 185.567 190.547 182.032 190.014C181.561 189.943 181.082 190.133 180.945 190.632C180.83 191.049 181.088 191.648 181.562 191.719Z" fill="black"/>
<path d="M216.924 142.279C217.041 147.599 221.895 151.28 226.448 153.015C231.103 154.788 236.403 154.876 241.154 153.419C243.882 152.583 246.41 151.236 248.619 149.432C248.989 149.13 248.933 148.496 248.619 148.182C248.253 147.816 247.74 147.879 247.369 148.182C243.863 151.045 239.336 152.561 234.832 152.658C230.383 152.754 225.608 151.497 222.168 148.57C220.294 146.976 218.748 144.821 218.692 142.279C218.667 141.143 216.899 141.139 216.924 142.279Z" fill="black"/>
<path d="M317.942 156.593C308.885 169.818 303.968 186.094 292.063 197.268C286.235 202.738 278.778 207.081 270.689 207.75C263.287 208.362 255.589 206.127 250.275 200.793C247.633 198.141 246.185 194.869 244.325 191.695C243.442 190.187 242.531 188.653 241.918 187.011C241.54 185.997 240.849 184.21 242.13 183.584L240.92 183.267C242.459 185.47 241.482 188.291 240.56 190.547C239.347 193.516 237.87 196.375 236.441 199.243C233.671 204.804 230.935 210.516 230.029 216.725C229.397 221.055 229.281 226.22 232.417 229.659C234.817 232.29 238.433 233.579 241.817 234.351C248.675 235.917 255.83 235.706 262.801 236.413C270.524 237.197 278.497 238.535 285.58 241.85C289.287 243.585 292.846 245.937 295.329 249.248C296.546 250.87 297.484 252.693 298.074 254.634C298.393 255.681 298.739 256.77 298.428 257.857C298.275 258.393 297.531 260.208 296.853 259.421V260.671C297.615 259.776 298.56 260.55 299.197 261.235C300.198 262.311 300.57 263.579 300.85 264.986C301.483 268.159 301.742 271.4 301.656 274.633C301.569 277.869 301.125 281.086 300.327 284.223C299.643 286.911 298.852 290.155 296.82 292.181C292.506 296.48 288.572 289.562 286.795 286.348C284.237 281.721 280.919 277.95 276.476 275.035C255.207 261.081 227.98 272.843 205.8 261.901C201.021 259.543 196.785 256.125 193.858 251.638C191.135 247.463 189.54 242.599 189.024 237.652C188.508 232.706 188.985 227.682 190.365 222.909C191.089 220.402 192.06 217.973 193.286 215.669C193.885 214.542 196.565 209.134 198.221 211.104C199.623 212.771 197.875 216.083 196.999 217.576C195.753 219.7 194.003 221.502 192.036 222.971C187.793 226.14 182.704 227.876 177.593 229.043C171.684 230.392 165.597 231.207 159.929 233.445C155.192 235.315 150.989 238.212 147.816 242.22C141.764 249.864 139.804 259.977 139.863 269.526C139.897 274.98 140.877 280.199 141.67 285.57C142.129 288.676 142.331 292.059 140.965 294.977C139.921 297.206 137.999 299.285 135.459 299.67C132.949 300.05 130.346 298.446 129.837 295.92L129.748 296.601C129.78 296.558 130.232 296.997 130.248 297.028C130.417 297.35 130.293 297.579 130.06 297.855C129.496 298.527 128.49 298.749 127.68 298.956C125.559 299.499 123.394 299.898 121.218 300.144C116.926 300.63 112.552 300.586 108.277 299.961C106.21 299.659 104.127 299.259 102.124 298.659C101.244 298.395 100.317 298.013 99.9076 297.121C99.5317 296.301 99.7551 295.328 100.027 294.516C100.601 292.803 101.683 291.325 102.483 289.72C103.294 288.094 103.887 286.365 104.275 284.591C105.881 277.255 104.378 269.734 104.229 262.337C104.099 255.887 104.79 249.427 106.283 243.152C109.222 230.8 115.291 218.945 124.783 210.356C129.838 205.783 135.744 202.428 142.177 200.208C149.762 197.589 157.721 196.242 165.284 193.553C179.531 188.488 190.225 177.755 199.219 165.963C200.351 164.478 201.459 162.974 202.552 161.46L200.936 160.779C200.093 162.972 197.664 163.753 195.523 164.006C192.977 164.306 190.379 163.964 187.845 163.699C182.084 163.096 176.357 162.152 170.718 160.82C159.572 158.185 148.738 154.003 139.095 147.77C120.97 136.054 107.387 115.919 107.449 93.823C107.457 90.882 107.713 87.9417 108.247 85.0491C108.38 84.3288 108.438 83.4187 108.752 82.7522C109.18 81.8434 110.309 82.0402 111.155 82.0129C113.158 81.9483 115.161 81.8836 117.164 81.819C118.761 81.7675 120.478 81.5242 122.061 81.7945C124.039 82.1322 124.117 83.5702 124.105 85.2931C124.077 89.1714 124.04 93.0496 124.008 96.9278C124.001 97.7359 124.959 98.0383 125.517 97.5529C126.435 96.7541 127.624 96.117 128.836 95.9252C130.263 95.6995 131.003 96.5092 130.334 97.9139C129.663 99.3246 128.782 100.41 128.611 102.024C128.453 103.502 128.812 104.968 129.413 106.312C130.781 109.371 133.284 111.714 135.771 113.873C138.343 116.106 141.034 118.206 143.82 120.167C154.878 127.947 167.53 133.488 180.73 136.402C188.204 138.052 195.859 138.858 203.512 138.781C203.983 138.777 204.405 138.38 204.396 137.897C204.358 135.839 202.469 134.656 200.546 134.689C198.032 134.732 196.467 136.727 196.161 139.101C195.801 141.899 196.883 144.777 198.016 147.284C199.236 149.982 200.889 152.467 202.809 154.717C206.648 159.216 211.553 162.57 216.806 165.211C222.212 167.929 228.012 170.025 233.997 171.001C240.508 172.063 247.275 171.767 253.299 168.876C254.324 168.384 253.428 166.859 252.407 167.349C242.894 171.915 231.475 169.555 222.14 165.718C212.782 161.871 203.695 155.785 199.473 146.237C198.431 143.881 197.109 140.56 198.263 138.027C198.74 136.979 199.62 136.396 200.773 136.46C201.634 136.507 202.61 136.915 202.628 137.897L203.512 137.013C189.544 137.153 175.578 134.299 162.76 128.746C156.367 125.976 150.255 122.555 144.563 118.535C141.705 116.516 138.958 114.342 136.337 112.023C133.823 109.799 130.881 107.018 130.392 103.512C130.102 101.429 131.28 100.18 132.049 98.401C132.585 97.1626 132.503 95.6348 131.392 94.7383C129.315 93.0612 125.936 94.8509 124.267 96.3028L125.776 96.9278C125.807 93.1932 125.838 89.4587 125.869 85.7241C125.881 84.2877 125.995 82.717 125.069 81.5111C124.355 80.5808 123.242 80.1776 122.114 80.0286C120.556 79.8229 118.943 79.9938 117.379 80.0442C115.519 80.1042 113.659 80.1643 111.799 80.2243C110.426 80.2686 108.685 80.0735 107.66 81.1856C106.76 82.1627 106.671 83.8267 106.453 85.0775C104.467 96.4829 106.519 108.212 111.281 118.688C116.176 129.457 123.879 138.751 133.297 145.866C143.244 153.381 154.864 158.475 166.869 161.675C172.977 163.303 179.206 164.443 185.479 165.2C188.309 165.542 191.209 165.961 194.065 165.875C196.38 165.804 198.892 165.392 200.751 163.91C201.641 163.201 202.236 162.303 202.641 161.249C203.026 160.247 201.567 159.817 201.026 160.568C194.874 169.091 188.11 177.436 179.664 183.8C175.455 186.973 170.852 189.593 165.913 191.447C160.658 193.42 155.178 194.679 149.761 196.113C144.565 197.488 139.385 199.047 134.572 201.48C130.703 203.435 127.11 205.924 123.871 208.803C117.332 214.617 112.3 222.033 108.808 230.027C105.211 238.263 103.143 247.131 102.591 256.098C102.294 260.939 102.606 265.726 102.948 270.555C103.321 275.809 103.635 281.293 101.96 286.371C101.157 288.808 99.6417 290.849 98.6521 293.195C97.8089 295.194 97.5062 297.593 99.2958 299.184C100.093 299.893 101.137 300.227 102.147 300.502C103.674 300.917 105.228 301.244 106.787 301.505C109.648 301.984 112.547 302.236 115.449 302.237C118.418 302.237 121.387 301.975 124.314 301.474C126.466 301.105 129.537 300.845 131.196 299.234C132.552 297.917 132.297 295.689 130.423 295C129.754 294.753 129.005 294.837 128.488 295.357C127.759 296.09 128.279 297.194 128.685 297.975C130.758 301.958 136.044 302.359 139.362 299.812C143.506 296.631 144.156 291.221 143.55 286.372C142.935 281.456 141.874 276.68 141.681 271.71C141.507 267.251 141.752 262.752 142.628 258.37C144.31 249.945 148.456 241.875 156 237.318C164.983 231.892 175.987 232.311 185.564 228.487C189.613 226.87 193.558 224.609 196.463 221.298C197.885 219.677 199.022 217.841 199.778 215.819C200.419 214.107 200.831 211.977 199.814 210.315C198.711 208.512 196.484 208.702 195.043 209.961C193.434 211.365 192.353 213.585 191.404 215.462C189.386 219.452 188.054 223.771 187.444 228.2C186.27 236.726 187.756 245.837 192.666 253.03C198.189 261.123 207.34 265.439 216.709 267.34C228.057 269.641 239.679 268.574 251.156 269.377C261.233 270.082 271.857 272.563 279.497 279.6C281.185 281.155 282.682 282.907 283.905 284.851C285.09 286.736 286.027 288.764 287.274 290.613C289.367 293.718 292.874 296.739 296.737 294.476C298.534 293.423 299.65 291.521 300.431 289.653C301.506 287.083 302.214 284.324 302.704 281.586C303.693 276.073 303.678 270.41 302.631 264.906C302.231 262.802 301.561 260.832 299.847 259.425C298.551 258.36 296.796 258.019 295.603 259.421C295.276 259.806 295.269 260.285 295.603 260.671C297.083 262.387 299.019 260.863 299.769 259.281C300.686 257.347 300.227 255.41 299.556 253.477C298.33 249.948 296.075 246.892 293.207 244.519C286.993 239.378 278.775 237.101 270.973 235.748C263.681 234.483 256.346 234.307 248.998 233.647C245.068 233.295 240.922 232.733 237.329 231.007C235.73 230.24 234.198 229.217 233.14 227.768C231.784 225.912 231.529 223.621 231.481 221.381C231.318 213.801 234.667 206.76 237.968 200.135C239.557 196.946 241.225 193.763 242.498 190.43C243.476 187.867 244.136 184.793 242.447 182.375C242.158 181.961 241.697 181.833 241.237 182.058C238.275 183.506 240.126 187.562 241.176 189.656C241.892 191.082 242.727 192.44 243.523 193.821C244.339 195.239 244.971 196.742 245.865 198.12C250.195 204.799 257.548 208.715 265.378 209.481C273.918 210.317 282.022 207.225 288.839 202.228C295.727 197.179 300.828 190.341 305.065 183.006C309.954 174.543 313.932 165.57 319.469 157.486C320.113 156.545 318.582 155.659 317.942 156.593Z" fill="black"/>
<path d="M234.505 138.501C231.89 138.818 229.279 137.854 227.1 136.457C225.464 135.409 224.116 133.981 223.252 132.235C222.282 130.279 222.059 128.07 222.164 125.915C222.299 123.153 223.022 120.442 224.055 117.887C225.072 115.375 226.42 112.897 228.034 110.717C229.244 109.082 230.828 107.663 232.712 106.858C235.6 105.625 238.747 106.012 241.605 107.104C242.468 107.434 243.504 107.937 244.43 108.494C244.68 108.644 244.924 108.803 245.167 108.965C245.214 108.996 245.263 109.044 245.314 109.068C245.418 109.117 245.155 108.859 245.174 108.965C245.19 109.054 245.388 109.214 245.445 109.284C245.483 109.331 245.519 109.378 245.557 109.424C245.707 109.608 245.438 109.262 245.57 109.441C245.67 109.576 245.771 109.71 245.869 109.847C246.46 110.674 246.983 111.55 247.448 112.454C248.85 115.18 249.731 118.322 249.974 121.479C250.139 123.624 250.048 125.795 249.7 127.918C249.49 129.194 249.199 130.456 248.838 131.698C248.657 132.323 248.457 132.943 248.241 133.558C248.063 134.065 247.85 134.801 247.624 135.189C247.082 136.114 246.492 136.944 246.103 137.962C245.573 139.348 245.446 141.097 246.682 142.158C247.544 142.897 248.719 143.047 249.783 143.314C251.156 143.66 252.525 144.024 253.886 144.415C256.668 145.213 259.421 146.119 262.106 147.201C263.402 147.723 264.68 148.292 265.936 148.907C267.205 149.529 268.403 150.274 269.656 150.918C270.098 151.145 269.668 150.874 269.723 150.943C269.725 150.946 269.585 150.739 269.648 150.848C269.723 150.979 269.581 150.624 269.618 150.78C269.637 150.862 269.625 150.969 269.618 150.721C269.62 150.808 269.623 150.895 269.621 150.983C269.621 151.032 269.613 151.082 269.609 151.131C269.608 151.143 269.641 150.984 269.596 151.187C269.456 151.807 269.26 152.404 269.026 152.995C268.073 155.409 266.725 157.936 265.241 160.146C265.18 160.237 265.317 160.049 265.311 160.056C265.273 160.105 265.234 160.154 265.195 160.201C265.117 160.295 265.039 160.389 264.96 160.481C264.721 160.759 264.472 161.03 264.218 161.294C263.649 161.886 263.048 162.456 262.402 162.963C261.854 163.393 261.147 163.868 260.571 164.06C260.411 164.114 260.25 164.162 260.083 164.192C259.923 164.221 260.284 164.186 260.019 164.199C259.936 164.204 259.854 164.205 259.771 164.201C259.676 164.198 259.484 164.124 259.375 164.034C259.255 163.934 259.026 163.685 259.017 163.431C259.012 163.273 259.222 162.853 259.407 162.877C259.721 162.918 259.818 163.742 259.858 163.964C259.99 164.705 260.082 165.455 260.189 166.2C260.556 168.754 260.971 171.298 261.866 173.729C263.175 177.287 265.572 182.215 270.098 181.744C272.773 181.466 275.073 179.777 277.083 178.112C279.162 176.39 281.03 174.42 282.72 172.317C286.232 167.948 288.923 163.006 291.317 157.954C292.464 155.532 293.486 153.054 294.288 150.496C294.554 149.649 294.868 148.817 295.204 147.996C296.582 144.625 298.605 140.997 301.58 138.677C301.936 138.4 302.123 138.174 302.153 137.718C302.171 137.435 302.174 137.151 302.185 136.868L302.268 134.716C302.291 134.12 302.377 133.578 302.8 133.114C303.387 132.468 304.355 132.289 305.136 132.674C306.449 133.323 306.267 134.879 306.333 136.109C306.371 136.819 307.045 137.155 307.663 136.872C309.927 135.837 312.191 134.801 314.456 133.765C315.445 133.313 316.427 132.831 317.429 132.406C317.964 132.178 318.554 132.124 319.104 132.347C319.804 132.63 320.129 133.225 320.424 133.869C320.785 134.658 321.146 135.447 321.507 136.236C321.884 137.062 322.139 137.702 321.492 138.57C321.058 139.153 321.66 139.859 322.256 139.9C322.807 139.938 323.317 140.255 323.567 140.754C323.885 141.388 323.725 142.021 323.319 142.565C322.885 143.148 323.487 143.854 324.083 143.895C324.633 143.933 325.144 144.25 325.394 144.749C325.712 145.383 325.552 146.016 325.146 146.56C324.712 147.143 325.314 147.849 325.91 147.89C327.413 147.994 327.921 149.985 326.657 150.799C325.949 151.255 325.056 151.518 324.287 151.851C323.349 152.258 322.419 152.674 321.49 153.099C317.804 154.784 314.118 156.47 310.432 158.156C310.04 158.335 309.648 158.549 309.243 158.7C308.691 158.904 308.056 158.832 307.59 158.461C306.839 157.863 306.916 156.869 307.444 156.163C307.879 155.581 307.275 154.874 306.68 154.833C306.13 154.795 305.619 154.478 305.369 153.979C305.051 153.346 305.211 152.713 305.617 152.168C306.051 151.586 305.449 150.879 304.853 150.838C304.303 150.8 303.792 150.483 303.542 149.984C303.225 149.351 303.384 148.718 303.79 148.174C304.224 147.591 303.622 146.885 303.027 146.843C302.143 146.782 301.432 145.984 301.558 145.086C301.649 144.442 302.093 144.012 302.655 143.743C303.339 143.415 304.036 143.111 304.725 142.796C307.21 141.659 309.696 140.523 312.181 139.386C312.837 139.086 313.494 138.786 314.151 138.485C314.585 138.287 314.692 137.658 314.468 137.276C314.207 136.83 313.695 136.759 313.259 136.959C311.27 137.868 309.28 138.778 307.291 139.688C305.967 140.293 304.644 140.899 303.32 141.504C302.647 141.812 301.873 142.071 301.265 142.503C300.13 143.308 299.555 144.709 299.874 146.077C300.221 147.561 301.555 148.509 303.027 148.611C302.772 148.168 302.518 147.725 302.263 147.281C301.488 148.323 301.405 149.736 302.016 150.877C302.583 151.937 303.683 152.525 304.854 152.606C304.599 152.163 304.345 151.719 304.09 151.276C303.315 152.318 303.231 153.731 303.843 154.872C304.41 155.932 305.51 156.52 306.681 156.601C306.426 156.158 306.172 155.714 305.917 155.271C304.595 157.04 305.398 159.581 307.424 160.363C308.446 160.758 309.456 160.537 310.411 160.1C312.138 159.31 313.864 158.521 315.59 157.731C318.878 156.228 322.151 154.69 325.469 153.253C326.712 152.714 328.097 152.316 328.773 151.025C329.934 148.808 328.318 146.289 325.91 146.122C326.164 146.566 326.418 147.009 326.673 147.452C327.449 146.411 327.532 144.998 326.921 143.857C326.353 142.797 325.254 142.208 324.083 142.127C324.337 142.571 324.592 143.014 324.846 143.457C325.622 142.416 325.705 141.003 325.094 139.862C324.526 138.802 323.427 138.214 322.256 138.133C322.51 138.576 322.765 139.019 323.019 139.463C323.822 138.384 323.816 137.075 323.282 135.888C322.972 135.199 322.653 134.513 322.339 133.826C322.067 133.232 321.832 132.569 321.442 132.039C320.651 130.96 319.345 130.326 318 130.455C316.88 130.561 315.764 131.232 314.754 131.695C313.17 132.419 311.586 133.143 310.001 133.868C308.924 134.36 307.847 134.853 306.77 135.346C307.214 135.6 307.657 135.854 308.1 136.109C308.059 135.334 308.071 134.534 307.941 133.767C307.69 132.275 306.44 131.038 304.956 130.773C303.458 130.505 301.944 131.151 301.109 132.426C300.544 133.287 300.519 134.242 300.481 135.227C300.447 136.09 300.414 136.954 300.381 137.817L300.819 137.054C297.658 139.392 295.525 142.893 293.96 146.441C292.743 149.199 291.976 152.116 290.779 154.883C289.643 157.509 288.327 160.053 286.98 162.577C285.733 164.912 284.363 167.173 282.806 169.317C281.251 171.458 279.515 173.476 277.594 175.298C275.874 176.931 273.923 178.641 271.696 179.535C270.636 179.96 269.425 180.2 268.312 179.835C267.581 179.595 266.968 179.039 266.457 178.475C265.185 177.071 264.325 175.254 263.659 173.496C262.795 171.216 262.348 168.834 261.995 166.428C261.897 165.764 261.805 165.098 261.706 164.433C261.618 163.831 261.557 163.211 261.334 162.641C260.902 161.538 259.795 160.747 258.614 161.292C257.62 161.751 257.019 162.999 257.349 164.059C257.594 164.847 258.221 165.533 258.994 165.82C260.455 166.363 262.066 165.414 263.199 164.563C264.396 163.665 265.498 162.613 266.445 161.452C267.054 160.704 267.525 159.853 268 159.017C268.772 157.656 269.502 156.267 270.146 154.84C270.686 153.645 271.326 152.318 271.389 150.983C271.412 150.496 271.293 149.986 270.921 149.648C270.474 149.239 269.823 148.963 269.298 148.671C268.655 148.313 268.003 147.968 267.345 147.637C264.928 146.421 262.421 145.381 259.874 144.472C257.266 143.542 254.611 142.752 251.935 142.044C251.313 141.879 250.69 141.719 250.066 141.563C249.483 141.417 248.828 141.331 248.274 141.092C248.186 141.054 247.922 140.9 247.932 140.907C247.864 140.856 247.65 140.616 247.704 140.692C247.672 140.647 247.64 140.596 247.614 140.546C247.489 140.311 247.653 140.7 247.565 140.45C247.542 140.383 247.525 140.315 247.507 140.247C247.454 140.046 247.491 140.26 247.481 140.101C247.407 138.979 248.018 137.818 248.676 136.777C248.827 136.538 249.022 136.313 249.16 136.068C249.447 135.559 249.619 134.936 249.817 134.389C250.052 133.742 250.269 133.089 250.466 132.43C252.593 125.322 252.276 117.483 248.632 110.921C248.202 110.147 247.728 109.396 247.2 108.686C246.956 108.358 246.709 107.982 246.409 107.698C246.087 107.394 245.652 107.164 245.276 106.94C244.335 106.378 243.344 105.904 242.327 105.498C239.481 104.362 236.256 103.916 233.276 104.79C228.847 106.087 226.129 109.922 224.044 113.801C221.607 118.336 219.83 123.722 220.494 128.929C220.753 130.961 221.416 132.939 222.618 134.614C223.798 136.259 225.366 137.572 227.143 138.534C229.374 139.742 231.945 140.579 234.505 140.269C234.979 140.212 235.389 139.904 235.389 139.385C235.389 138.952 234.982 138.443 234.505 138.501Z" fill="black"/>
<path d="M303.392 148.604C307.125 146.896 310.858 145.189 314.592 143.481C315.115 143.242 315.639 143.003 316.163 142.763C316.597 142.564 316.704 141.936 316.48 141.554C316.219 141.108 315.706 141.037 315.27 141.236C311.537 142.944 307.804 144.651 304.07 146.359C303.547 146.598 303.023 146.838 302.499 147.077C302.065 147.276 301.958 147.904 302.182 148.287C302.443 148.733 302.956 148.803 303.392 148.604Z" fill="black"/>
<path d="M305.071 152.469C308.805 150.762 312.538 149.054 316.272 147.347C316.795 147.107 317.319 146.868 317.842 146.628C318.277 146.43 318.383 145.801 318.16 145.419C317.899 144.973 317.386 144.902 316.95 145.102C313.217 146.809 309.483 148.517 305.75 150.224C305.226 150.464 304.703 150.703 304.179 150.942C303.745 151.141 303.638 151.769 303.862 152.152C304.123 152.598 304.635 152.668 305.071 152.469Z" fill="black"/>
<path d="M306.755 156.336C310.488 154.629 314.222 152.921 317.955 151.214C318.479 150.974 319.002 150.735 319.526 150.495C319.96 150.297 320.067 149.669 319.843 149.286C319.582 148.84 319.07 148.77 318.634 148.969C314.9 150.676 311.167 152.384 307.433 154.091C306.91 154.331 306.386 154.57 305.863 154.81C305.428 155.008 305.322 155.636 305.545 156.019C305.806 156.465 306.319 156.536 306.755 156.336Z" fill="black"/>
<path d="M125.105 95.9663C124.153 95.6172 123.14 95.397 122.144 95.2276C119.937 94.8527 117.68 94.7852 115.478 95.2365C114.06 95.5273 112.683 96.0655 111.459 96.8411C110.501 97.4485 111.387 98.979 112.352 98.3677C114.274 97.1496 116.51 96.6752 118.766 96.6839C120.488 96.6906 122.007 96.9155 123.683 97.3767C124.003 97.4647 124.324 97.5569 124.635 97.6711C125.083 97.8355 125.603 97.4869 125.722 97.0537C125.858 96.5608 125.555 96.1313 125.105 95.9663Z" fill="black"/>
<path d="M110.63 82.0847C110.744 84.7165 110.859 87.3484 110.973 89.9803C110.99 90.3604 111.006 90.7405 111.023 91.1206C111.072 92.2539 112.84 92.26 112.791 91.1206C112.676 88.4887 112.562 85.8569 112.447 83.225C112.431 82.8449 112.414 82.4648 112.398 82.0847C112.349 80.9514 110.58 80.9453 110.63 82.0847Z" fill="black"/>
<path d="M115.148 82.0847C115.262 84.7165 115.376 87.3484 115.491 89.9803C115.507 90.3604 115.524 90.7405 115.54 91.1206C115.59 92.2539 117.358 92.26 117.308 91.1206C117.194 88.4887 117.079 85.8569 116.965 83.225C116.948 82.8449 116.932 82.4648 116.915 82.0847C116.866 80.9514 115.098 80.9453 115.148 82.0847Z" fill="black"/>
<path d="M119.665 82.0847C119.78 84.7165 119.894 87.3484 120.008 89.9803C120.025 90.3604 120.041 90.7405 120.058 91.1206C120.107 92.2539 121.875 92.26 121.826 91.1206C121.711 88.4887 121.597 85.8569 121.483 83.225C121.466 82.8449 121.45 82.4648 121.433 82.0847C121.384 80.9514 119.616 80.9453 119.665 82.0847Z" fill="black"/>
<path d="M17.6885 136.163C25.4185 132.831 33.1486 129.499 40.8786 126.166C47.8823 123.147 55.1242 120.713 61.9807 117.332C63.1271 116.767 64.2876 116.166 65.1723 115.244C70.6551 109.525 61.0138 105.669 57.1783 103.203C50.9555 99.2037 44.5457 95.4948 37.9765 92.0938C41.3897 96.1767 44.803 100.26 48.2162 104.343C45.5701 103.456 43.3979 102.04 40.7003 101.373C37.2351 100.516 33.8255 99.4003 30.4042 98.3753C23.45 96.2918 16.4958 94.2084 9.54166 92.1249C17.5303 96.7617 26.0312 103.45 34.4146 107.327C25.5948 111.693 16.7143 114.115 8.41797 119.409C15.2972 118.853 22.1321 117.75 28.8366 116.112C32.594 115.195 36.4181 114.1 40.2645 114.507C32.7391 121.725 25.2138 128.944 17.6885 136.163Z" fill="#FF0000"/>
<path d="M58.7946 98.8139C60.058 99.2853 61.4172 98.9533 62.6342 98.5011C63.9116 98.0265 65.1776 97.5189 66.4484 97.0269C66.1157 96.594 65.7829 96.1612 65.4501 95.7283C64.6076 97.5555 65.2544 99.7121 66.7632 100.997C68.4438 102.428 70.7493 102.65 72.8675 102.47C72.5833 102.097 72.2992 101.724 72.0151 101.351C71.6213 103.901 72.2873 106.407 73.898 108.423C74.1963 108.796 74.837 108.734 75.1481 108.423C75.5169 108.054 75.4471 107.547 75.1481 107.173C73.9742 105.704 73.4328 103.68 73.7199 101.821C73.7993 101.307 73.4983 100.648 72.8675 100.702C71.2765 100.838 69.4531 100.821 68.1113 99.8246C67.1695 99.1251 66.471 97.7171 66.9767 96.6207C67.1281 96.2923 67.1453 95.9373 66.9076 95.6389C66.7047 95.3843 66.3085 95.1944 65.9784 95.3222C64.8001 95.7784 63.6229 96.2378 62.4433 96.6906C61.4311 97.0792 60.3353 97.5087 59.2646 97.1092C58.8172 96.9423 58.2957 97.2952 58.1772 97.7266C58.0412 98.2216 58.3456 98.6464 58.7946 98.8139Z" fill="#6966ED"/>
<path d="M46.0218 137.561C50.2956 133.402 54.6857 129.363 59.1887 125.453C60.4724 124.338 61.7653 123.234 63.0666 122.14C63.4323 121.833 63.3837 121.207 63.0666 120.89C62.7046 120.528 62.1831 120.582 61.8166 120.89C57.2515 124.728 52.7944 128.693 48.4545 132.783C47.2174 133.949 45.9901 135.125 44.7718 136.311C43.955 137.106 45.2056 138.355 46.0218 137.561Z" fill="#6966ED"/>
<path d="M69.4354 77.6944C74.6487 74.605 81.5096 71.4995 82.8599 64.8171C83.332 62.4806 82.8511 60.0293 81.9068 57.8406C80.9624 55.6519 79.5746 53.6871 78.1613 51.7676C77.8698 54.7119 77.8758 57.6573 77.7008 60.601C75.0118 59.3538 72.0876 58.6736 69.3206 57.431C65.6394 55.7777 61.914 54.2227 58.1498 52.7682C62.3378 56.3283 66.5331 59.8951 70.3614 63.8394C66.4842 63.931 62.8466 65.6193 59.3398 67.2753C56.4251 68.6517 53.5102 70.0282 50.625 71.4654C58.1313 71.9794 65.6886 71.7468 73.149 70.7722C71.8446 73.0431 70.606 75.3518 69.4354 77.6944Z" fill="#FF0000"/>
<path d="M63.3152 130.18C64.0307 129.169 64.7463 128.157 65.4619 127.146C65.5876 126.968 65.6067 126.667 65.551 126.465C65.4945 126.26 65.336 126.038 65.1448 125.937C64.6904 125.697 64.2213 125.85 63.9354 126.254C63.2198 127.265 62.5043 128.277 61.7887 129.288C61.6629 129.466 61.6439 129.767 61.6996 129.969C61.756 130.174 61.9146 130.397 62.1058 130.498C62.5601 130.738 63.0293 130.585 63.3152 130.18Z" fill="#6966ED"/>
<path d="M84.7257 52.343C84.1688 53.2963 83.5463 54.2357 83.0472 55.2203C82.7893 55.7291 82.7832 56.2793 83.097 56.7671C83.3519 57.1633 83.7517 57.4487 84.0544 57.8062C85.1025 59.0445 85.481 60.8217 85.0977 62.3852C85.0069 62.7556 85.1548 63.1953 85.5039 63.3835C86.7493 64.0549 87.8048 64.9534 88.6813 66.0638C88.9773 66.4389 89.6217 66.3735 89.9314 66.0638C90.3018 65.6934 90.2282 65.1897 89.9314 64.8137C88.9721 63.5984 87.7588 62.5916 86.3962 61.857C86.5316 62.1898 86.667 62.5225 86.8024 62.8553C87.2401 61.0701 86.9633 59.1518 86.0304 57.5651C85.7996 57.1724 85.523 56.8009 85.2212 56.4599C85.0807 56.3012 84.9296 56.1549 84.7761 56.0089C84.7245 55.9598 84.6169 55.8134 84.5602 55.7909C84.6188 55.8142 84.4452 56.1953 84.6035 56.0597C84.7668 55.92 84.8884 55.5702 84.9976 55.3832L85.4023 54.6904C85.6856 54.2054 85.9689 53.7203 86.2522 53.2353C86.8272 52.2509 85.2999 51.36 84.7257 52.343Z" fill="#6966ED"/>
<path d="M51.5533 36.5698C53.576 38.8339 55.5987 41.098 57.6214 43.3621C57.9395 43.7183 58.5473 43.6863 58.8714 43.3621C59.2254 43.0082 59.1904 42.4691 58.8714 42.1121C56.8487 39.8479 54.8261 37.5838 52.8034 35.3197C52.4852 34.9636 51.8775 34.9955 51.5533 35.3197C51.1994 35.6737 51.2343 36.2127 51.5533 36.5698Z" fill="#6966ED"/>
</svg>
