<svg width="385" height="385" viewBox="0 0 385 385" fill="none" xmlns="http://www.w3.org/2000/svg">
<path d="M66.62 145.609C57.0689 145.609 49.3262 127.753 49.3262 105.727C49.3262 83.7013 57.0689 65.8457 66.62 65.8457L192.739 78.2581C202.082 79.1776 209.156 86.2501 209.156 94.6719V118.831C209.156 127.367 201.896 134.496 192.41 135.275L66.62 145.609Z" fill="#158E72"/>
<path d="M72.1187 70.5387C69.9441 67.545 67.4601 65.8457 64.8215 65.8457C56.2637 65.8457 49.3262 83.7012 49.3262 105.727C49.3262 127.753 56.2637 145.609 64.8215 145.609C67.4601 145.609 69.9441 143.909 72.1187 140.916C67.2402 134.2 63.9207 120.962 63.9207 105.727C63.9207 90.4923 67.2402 77.2546 72.1187 70.5387Z" fill="#262626"/>
<path d="M72.118 70.5391C67.2394 77.2549 63.9199 90.4927 63.9199 105.728C63.9199 120.962 67.2394 134.2 72.118 140.916C76.9966 134.2 80.3161 120.962 80.3161 105.728C80.3161 90.4927 76.9966 77.255 72.118 70.5391Z" fill="white"/>
<path d="M262.048 93.0307V95.8421L191.711 88.9434V128.615L262.048 122.375V124.527C262.048 128.046 264.453 130.899 267.42 130.899C270.387 130.899 272.792 128.046 272.792 124.527V95.5169C272.792 94.1438 271.678 93.0307 270.305 93.0307H262.437" fill="#158E72"/>
<path d="M101.052 160.697C91.5005 160.697 83.7578 142.841 83.7578 120.815C83.7578 98.7892 91.5005 80.9336 101.052 80.9336L227.171 93.346C236.514 94.2655 243.588 101.338 243.588 109.76V133.919C243.588 142.455 236.328 149.584 226.841 150.363L101.052 160.697Z" fill="#F4D13B"/>
<path d="M106.956 86.2026C104.687 82.8505 102.057 80.9336 99.2531 80.9336C90.6953 80.9336 83.7578 98.7891 83.7578 120.815C83.7578 142.841 90.6953 160.697 99.2531 160.697C102.057 160.697 104.687 158.78 106.956 155.428C102.299 148.548 99.1631 135.625 99.1631 120.815C99.1631 106.006 102.299 93.0817 106.956 86.2026Z" fill="#262626"/>
<path d="M106.955 86.2031C102.298 93.0822 99.1621 106.006 99.1621 120.816C99.1621 135.625 102.298 148.549 106.955 155.428C111.611 148.549 114.748 135.625 114.748 120.816C114.748 106.006 111.611 93.0822 106.955 86.2031Z" fill="white"/>
<path d="M296.393 109.424V135.957C296.393 137.146 295.429 138.109 294.241 138.109H287.802C286.614 138.109 285.65 137.146 285.65 135.957L215.312 142.197V102.525L285.65 109.424C285.65 107.871 286.909 106.613 288.461 106.613H293.582C295.134 106.613 296.393 107.871 296.393 109.424Z" fill="#F4D13B"/>
<path d="M290.556 114.849C290.74 115.664 290.671 116.364 290.007 116.925C289.416 117.425 288.637 117.665 287.893 117.828C286.206 118.199 284.453 118.104 282.759 118.446C281.148 118.771 279.365 119.696 279.3 121.561C279.242 123.213 281.055 124.313 282.314 125.011C283.983 125.937 285.837 126.455 287.74 126.568C288.709 126.625 288.706 125.117 287.74 125.06C286.218 124.97 284.712 124.565 283.358 123.861C282.712 123.525 282.078 123.134 281.517 122.666C281.008 122.241 280.606 121.764 280.947 121.094C281.284 120.432 282.075 120.161 282.747 119.992C283.535 119.794 284.344 119.72 285.152 119.656C286.76 119.529 288.398 119.431 289.888 118.755C290.626 118.421 291.312 117.901 291.74 117.203C292.259 116.358 292.221 115.383 292.01 114.448C291.796 113.502 290.341 113.903 290.556 114.849Z" fill="black"/>
<path d="M202.123 77.3891C200.244 80.1744 198.365 82.9596 196.486 85.7449C195.472 87.2473 194.438 88.6239 192.479 88.9112C189.323 89.3741 186.54 86.4992 187.107 83.3593C187.337 82.0911 188.205 80.9481 188.864 79.8644C189.93 78.1109 190.996 76.3573 192.062 74.6038C193.067 72.9501 194.073 71.2963 195.078 69.6425C195.946 68.2146 196.812 66.849 198.077 65.7155C200.624 63.4316 203.735 62.7673 207.052 62.7673C208.198 62.7673 209.377 62.6654 210.452 63.1409C212.076 63.8585 213.048 65.4515 213.094 67.1991C213.132 68.6541 215.318 68.6566 215.356 67.1991C215.419 64.7869 217.322 62.7611 219.788 62.7673C222.253 62.7734 224.156 64.7772 224.219 67.1991C224.257 68.6541 226.443 68.6566 226.481 67.1991C226.544 64.7869 228.448 62.7611 230.913 62.7673C233.378 62.7734 235.282 64.7772 235.345 67.1991C235.383 68.6541 237.569 68.6567 237.607 67.1991C237.668 64.8188 239.517 62.8144 241.947 62.768C244.339 62.7224 246.315 64.6847 246.463 67.042C246.556 68.5159 246.471 70.0191 246.471 71.4944C246.471 77.8879 246.471 84.2814 246.471 90.6749C246.471 92.4375 246.471 94.2001 246.471 95.9627C246.471 97.0605 248.036 97.534 248.578 96.5335C249.987 93.9339 251.396 91.3342 252.806 88.7346C253.62 87.2326 254.619 85.9795 256.411 85.635C259.082 85.1213 261.71 87.1523 261.857 89.8803C261.964 91.8695 260.531 93.9789 259.698 95.7047C258.158 98.8961 256.619 102.087 255.079 105.279C252.57 110.479 250.094 115.696 247.524 120.865C240.738 134.51 234.609 148.475 228.93 162.614C226.386 168.949 223.917 175.313 221.384 181.653C218.851 187.996 216.349 194.354 214.09 200.801C209.618 213.567 205.931 226.899 205.566 240.501C205.255 252.11 207.194 266.101 218.137 272.634C227.819 278.415 240.159 274.976 249.617 270.522C259.835 265.709 269.249 258.749 277.09 250.638C286.318 241.091 293.546 229.737 299.161 217.744C300.527 214.827 301.797 211.866 302.993 208.876C303.534 207.525 301.347 206.938 300.812 208.275C295.875 220.618 289.453 232.511 281.012 242.825C273.627 251.848 264.678 259.501 254.589 265.352C249.587 268.253 244.279 270.727 238.666 272.182C233.574 273.502 228.105 273.957 223.022 272.352C217.429 270.585 213.355 266.133 210.935 260.913C208.319 255.267 207.805 248.748 207.8 242.602C207.79 228.983 211.388 215.585 215.788 202.795C220.188 190.004 225.424 177.479 230.431 164.916C236.101 150.691 242.235 136.646 249.025 122.918C251.642 117.627 254.193 112.305 256.758 106.989C258.322 103.746 259.887 100.502 261.452 97.2591C262.269 95.5655 263.394 93.7763 263.888 91.9442C265.425 86.2455 259.241 81.3833 254.056 84.0926C252.513 84.8993 251.593 86.2273 250.791 87.7065C249.942 89.2723 249.094 90.838 248.245 92.4038C247.705 93.3998 247.165 94.3959 246.625 95.3919L248.732 95.9627C248.732 90.7006 248.732 85.4385 248.732 80.1763C248.732 76.8965 248.732 73.6168 248.732 70.337C248.732 68.0668 248.958 65.7159 247.694 63.6933C246.132 61.1954 243.089 59.9572 240.234 60.7516C237.326 61.5606 235.422 64.2323 235.345 67.1991H237.607C237.512 63.5607 234.625 60.5054 230.913 60.5054C227.201 60.5054 224.314 63.5605 224.219 67.1991H226.481C226.386 63.5607 223.5 60.5054 219.788 60.5054C216.076 60.5054 213.189 63.5605 213.094 67.1991H215.356C215.261 63.5775 212.465 60.6363 208.81 60.5093C206.166 60.4174 203.437 60.4449 200.938 61.4043C197.945 62.5532 195.492 64.6359 193.817 67.3634C192.966 68.7483 192.128 70.1408 191.284 71.5295C190.01 73.6248 188.736 75.7201 187.463 77.8153C186.713 79.0486 185.8 80.2928 185.265 81.6427C183.947 84.9729 185.466 88.9495 188.713 90.5032C191.924 92.0401 195.626 90.9301 197.645 88.0627C199.851 84.9311 201.934 81.7061 204.076 78.5307C204.892 77.3207 202.933 76.1875 202.123 77.3891Z" fill="black"/>
<path d="M201.969 75.069C201.969 80.9823 201.969 86.8957 201.969 92.8091C201.969 94.2426 201.969 95.6762 201.969 97.1097C201.969 97.8597 201.958 98.3894 201.658 99.0775C201.315 99.8652 200.883 100.625 200.499 101.394C199.264 103.868 198.036 106.346 196.815 108.828C191.77 119.083 186.856 129.403 182.132 139.81C172.768 160.438 163.881 181.434 156.783 202.962C150.035 223.428 145.667 244.748 146.467 266.387C147.065 282.55 151.283 298.798 159.574 312.754C167.695 326.425 179.866 337.443 194.851 343.034C212.409 349.585 232.28 348.53 249.895 342.799C268.249 336.828 284.749 326.098 299.398 313.701C315.498 300.077 329.3 284.106 341.711 267.102C346.174 260.987 350.286 254.923 353.993 248.344C359.175 239.149 363.803 229.615 367.606 219.766C371.967 208.472 375.461 196.431 375.682 184.245C375.881 173.333 372.869 162.19 364.407 154.787C361.655 152.379 358.332 150.947 355.367 148.836C352.926 147.097 350.649 144.994 349.13 142.383C346.536 137.923 346.903 132.687 347.456 127.752C348.759 116.128 350.984 102.794 343.461 92.7588C336.974 84.1059 326.353 78.5995 315.871 76.5947C305.836 74.6755 294.176 75.9249 286.994 83.9495C285.185 85.9711 283.768 88.2868 282.718 90.7846C281.344 94.0572 280.707 97.6057 279.765 101.015C277.612 108.807 275.89 116.781 275.259 124.854C274.545 134.001 275.142 144.486 281.247 151.878C285.224 156.694 291.182 159.014 297.282 159.509C301.855 159.88 306.539 159.312 310.971 158.158C311.695 157.97 312.421 157.772 313.126 157.524C314.491 157.044 313.904 154.858 312.525 155.343C311.799 155.598 311.051 155.801 310.306 155.994C309.494 156.204 308.675 156.39 307.853 156.554C306.884 156.747 305.632 156.95 304.933 157.036C299.737 157.68 294.302 157.495 289.578 155.38C283.14 152.498 279.567 146.458 278.159 139.713C277.029 134.295 277.131 128.648 277.67 123.166C278.475 114.98 280.387 106.91 282.681 99.0261C283.558 96.0109 284.041 93.0062 285.478 90.1681C286.617 87.9176 288.108 85.879 289.956 84.1591C293.532 80.8315 298.232 78.9974 303.026 78.3349C313.473 76.8912 324.646 80.3402 333.251 86.2177C337.319 88.9964 341.012 92.5364 343.447 96.8548C346.378 102.054 346.617 108.224 346.469 114.064C346.316 120.06 345.125 125.95 344.833 131.929C344.583 137.042 345.581 141.898 348.869 145.94C350.907 148.444 353.538 150.439 356.259 152.144C357.888 153.165 359.705 153.94 361.235 155.1C362.309 155.914 363.325 156.809 364.279 157.761C367.979 161.457 370.52 166.102 371.917 171.125C374.955 182.048 373.123 193.91 370.222 204.654C367.211 215.81 362.709 226.543 357.542 236.86C354.386 243.159 350.98 249.353 347.231 255.32C344.452 259.744 341.265 263.941 338.159 268.136C331.84 276.671 325.156 284.945 317.957 292.756C304.772 307.065 289.752 320.065 272.897 329.877C256.61 339.359 238.197 345.703 219.172 345.222C210.216 344.996 201.219 343.372 192.95 339.859C185.823 336.832 179.303 332.466 173.723 327.104C162.342 316.17 155.061 301.541 151.428 286.3C147.003 267.736 148.144 248.058 151.935 229.488C156.252 208.337 164.137 188.007 172.322 168.098C180.845 147.365 190.318 127.032 200.26 106.946C201.448 104.546 202.664 102.16 203.844 99.7561C204.419 98.5838 204.231 97.3218 204.231 96.0346C204.231 94.6906 204.231 93.3467 204.231 92.0027C204.231 86.3582 204.231 80.7136 204.231 75.069C204.231 73.6136 201.969 73.6112 201.969 75.069Z" fill="black"/>
<path d="M213.094 67.0632V88.4157C213.094 89.8711 215.356 89.8735 215.356 88.4157V67.0632C215.356 65.6077 213.094 65.6054 213.094 67.0632Z" fill="black"/>
<path d="M224.219 67.1745V88.5271C224.219 89.9825 226.481 89.9849 226.481 88.5271V67.1745C226.481 65.7191 224.219 65.7167 224.219 67.1745Z" fill="black"/>
<path d="M235.346 67.2839V88.6364C235.346 90.0918 237.608 90.0942 237.608 88.6364V67.2839C237.608 65.8284 235.346 65.8261 235.346 67.2839Z" fill="black"/>
<path d="M137.546 64.5733C139.03 66.9939 140.514 69.4143 142 71.8339C142.905 73.308 143.806 74.7842 144.715 76.2563C146.111 78.5188 148.242 80.2912 151.052 79.8488C154.173 79.3575 156.797 76.9466 157.2 73.7904L155.093 74.3612C156.611 76.8343 158.131 79.4771 161.333 79.8261C162.896 79.9964 164.464 79.3915 165.773 78.5657C167.488 77.483 168.488 75.7795 168.742 73.7904L166.635 74.3612C167.081 75.0881 167.51 75.8291 167.977 76.5428C168.953 78.0344 170.5 79.1125 172.258 79.4558C176.109 80.2079 179.784 77.703 180.284 73.7904L178.176 74.3612C179.325 76.2324 180.378 78.275 182.456 79.2684C185.055 80.5103 188.351 79.5172 190.237 77.4165C192.068 75.3771 192.337 72.4469 190.947 70.0953C190.521 69.3736 190.07 68.6654 189.631 67.951C186.034 62.0925 182.455 56.223 178.841 50.3752C177.526 48.2475 175.461 46.8749 172.887 47.0678C171.438 47.1764 169.719 47.6085 168.523 48.4809C167.058 49.5495 166.562 51.1268 166.365 52.8577C167.068 52.6675 167.77 52.4772 168.473 52.2869C168.027 51.56 167.598 50.819 167.131 50.1054C166.155 48.6137 164.608 47.5357 162.85 47.1924C158.998 46.4403 155.324 48.9451 154.824 52.8577C155.526 52.6675 156.229 52.4772 156.931 52.2869C156.485 51.56 156.056 50.819 155.589 50.1054C154.613 48.6137 153.066 47.5357 151.308 47.1924C147.456 46.4403 143.782 48.9451 143.282 52.8577L145.39 52.2869C144.887 51.4683 144.421 50.6109 143.86 49.8305C142.724 48.2515 140.961 47.2885 139.037 47.0853C137.31 46.9028 135.599 47.3699 134.295 48.5107C133.109 49.5481 132.075 50.7268 131.172 52.0168C127.056 57.8899 125.912 65.4913 125.263 72.4667C124.611 79.47 124.307 86.4942 124.357 93.5238C124.427 103.348 124.718 113.172 125.199 122.984C125.888 137.045 126.97 151.096 128.704 165.069C130.442 179.076 132.723 193.13 136.721 206.69C137.148 208.139 137.599 209.582 138.073 211.017C138.528 212.393 140.713 211.804 140.254 210.416C136 197.548 133.567 184.093 131.704 170.695C129.783 156.872 128.587 142.947 127.783 129.018C127.171 118.435 126.796 107.837 126.657 97.2373C126.62 94.445 126.599 91.6524 126.606 88.8599C126.613 86.1848 126.839 83.5196 126.973 80.8478C127.321 73.8717 127.685 66.7339 129.83 60.0345C130.811 56.9732 132.225 53.9578 134.404 51.5597C134.871 51.0456 135.372 50.5672 135.894 50.11C136.429 49.6423 136.953 49.4447 137.728 49.3399C139.349 49.1209 141.091 49.797 142.034 51.1531C142.541 51.8818 142.972 52.6722 143.437 53.4285C144.072 54.4636 145.409 53.9169 145.544 52.8577C145.901 50.0673 149.075 48.7024 151.541 49.6C153.297 50.2395 154.065 51.9405 154.978 53.4285C155.614 54.4636 156.95 53.9169 157.086 52.8577C157.442 50.0673 160.616 48.7024 163.082 49.6C164.839 50.2395 165.606 51.9405 166.52 53.4285C167.149 54.4534 168.506 53.9271 168.627 52.8577C168.744 51.8272 169.098 50.6728 170.026 50.1532C171.025 49.5936 172.398 49.2784 173.535 49.3141C175.088 49.3627 176.15 50.3192 176.926 51.5788C178.267 53.7555 179.601 55.937 180.939 58.1161C182.867 61.2559 184.794 64.3958 186.722 67.5356C187.34 68.543 187.959 69.5504 188.577 70.5577C189.127 71.4532 189.626 72.3084 189.592 73.4153C189.553 74.7274 188.797 75.9368 187.693 76.6264C186.741 77.2205 185.599 77.7479 184.457 77.5651C182.217 77.2068 181.192 74.9515 180.129 73.2196C179.494 72.1845 178.157 72.7311 178.022 73.7904C177.665 76.5808 174.491 77.9457 172.025 77.048C170.269 76.4086 169.501 74.7076 168.588 73.2196C167.952 72.1845 166.616 72.7311 166.48 73.7904C166.183 76.1139 163.258 78.1092 160.979 77.4726C158.978 76.9139 158.047 74.8507 157.046 73.2196C156.411 72.1845 155.074 72.7311 154.939 73.7904C154.669 75.9019 152.318 77.5678 150.327 77.6655C148.407 77.7596 147.289 76.1261 146.395 74.6696C144.931 72.2857 143.467 69.9024 142.004 67.5179C141.169 66.156 140.334 64.7937 139.499 63.4316C138.74 62.1926 136.783 63.3276 137.546 64.5733Z" fill="black"/>
<path d="M183.313 77.8572C181.292 80.2332 179.271 82.6092 177.25 84.9852C176.694 85.6387 175.533 86.6081 175.48 87.5226C175.425 88.4743 175.48 89.4459 175.48 90.3987C175.48 95.6186 175.597 100.853 175.472 106.071C175.38 109.922 175.441 113.777 175.563 117.626C175.82 125.692 176.414 133.75 177.343 141.767C178.539 152.089 180.275 162.362 182.781 172.45C185.455 183.211 189.005 193.811 193.917 203.769C198.893 213.857 205.418 223.672 214.125 230.921C218.472 234.541 223.358 237.425 228.689 239.338C234.295 241.351 240.342 242.289 246.291 242.307C253.256 242.328 260.323 240.95 266.909 238.731C270.055 237.671 273.114 236.338 276.149 234.997C279.145 233.673 282.106 232.264 284.995 230.719C290.725 227.652 296.219 224.017 300.904 219.487C303.213 217.255 305.309 214.797 307.123 212.146C308.533 210.085 310.212 206.457 307.661 204.534C304.886 202.442 302.054 205.682 300.926 208.005C300.293 209.309 302.243 210.457 302.879 209.147C303.397 208.081 304.195 206.631 305.392 206.212C306.437 205.846 306.783 206.93 306.684 207.749C306.531 209.007 305.797 210.094 305.098 211.11C304.29 212.283 303.422 213.411 302.498 214.494C298.714 218.93 294.127 222.587 289.2 225.675C284.167 228.829 278.802 231.42 273.352 233.765C267.651 236.219 261.851 238.164 255.718 239.212C244.905 241.059 233.362 239.836 223.603 234.63C214.476 229.763 207.416 221.795 201.852 213.211C196.486 204.933 192.436 195.857 189.257 186.537C186.074 177.204 183.738 167.591 181.985 157.893C180.437 149.331 179.351 140.69 178.644 132.019C178.132 125.741 177.813 119.444 177.72 113.145C177.684 110.693 177.708 108.245 177.742 105.793C177.819 100.308 177.742 94.8158 177.742 89.3296C177.742 88.7117 177.742 88.0937 177.742 87.4758L177.411 88.2755C179.911 85.3358 182.412 82.3962 184.913 79.4565C185.851 78.3537 184.258 76.7464 183.313 77.8572Z" fill="black"/>
<path d="M169.519 60.2125C170.494 61.8194 171.469 63.4263 172.444 65.0331C174.008 67.6102 175.572 70.1873 177.136 72.7644C177.493 73.3531 177.85 73.9419 178.208 74.5307C178.962 75.7734 180.919 74.638 180.161 73.3891C179.186 71.7822 178.211 70.1753 177.235 68.5684C175.672 65.9913 174.108 63.4143 172.544 60.8372C172.187 60.2484 171.829 59.6597 171.472 59.0709C170.718 57.8281 168.761 58.9636 169.519 60.2125Z" fill="black"/>
<path d="M158.267 60.2125C159.242 61.8194 160.217 63.4263 161.192 65.0331C162.756 67.6102 164.32 70.1873 165.884 72.7644L166.956 74.5307C167.71 75.7734 169.667 74.638 168.909 73.3891C167.934 71.7822 166.959 70.1753 165.984 68.5684C164.42 65.9913 162.856 63.4143 161.292 60.8372C160.935 60.2484 160.577 59.6597 160.22 59.0709C159.466 57.8281 157.509 58.9636 158.267 60.2125Z" fill="black"/>
<path d="M146.724 60.2125C147.699 61.8194 148.674 63.4263 149.649 65.0331C151.213 67.6102 152.777 70.1873 154.341 72.7644C154.698 73.3531 155.056 73.9419 155.413 74.5307C156.167 75.7734 158.124 74.638 157.366 73.3891C156.391 71.7822 155.416 70.1753 154.441 68.5684C152.877 65.9913 151.313 63.4143 149.749 60.8372C149.392 60.2484 149.034 59.6597 148.677 59.0709C147.923 57.8281 145.966 58.9636 146.724 60.2125Z" fill="black"/>
<path d="M298.502 157.313C295.079 157.004 291.641 156.849 288.207 156.727C285.574 156.633 282.897 156.452 280.262 156.588C274.899 156.866 269.822 158.983 265.392 161.934C260.692 165.064 256.6 169.05 252.946 173.333C249.456 177.424 246.321 181.817 243.456 186.364C241.379 189.661 239.442 193.046 237.639 196.5C237.495 196.776 237.351 197.053 237.209 197.33C236.93 197.873 237.068 198.557 237.615 198.877C238.121 199.173 238.881 199.017 239.162 198.472C240.799 195.29 242.548 192.165 244.413 189.112C247.084 184.739 250.058 180.41 253.188 176.562C254.942 174.405 256.793 172.323 258.763 170.36C259.751 169.376 260.769 168.422 261.821 167.506C262.32 167.073 262.826 166.647 263.34 166.232C263.917 165.766 264.239 165.516 264.849 165.068C266.973 163.505 269.236 162.117 271.641 161.03C271.791 160.962 271.941 160.895 272.092 160.83C272.159 160.801 272.225 160.772 272.293 160.744C272.125 160.815 272.296 160.743 272.325 160.732C272.626 160.608 272.93 160.488 273.236 160.375C273.843 160.148 274.458 159.943 275.08 159.76C275.681 159.584 276.288 159.429 276.901 159.298C277.197 159.235 277.495 159.176 277.794 159.124C277.935 159.1 278.076 159.076 278.217 159.054C278.305 159.04 278.393 159.027 278.481 159.014C278.564 159.002 278.719 158.983 278.552 159.004C281.007 158.694 283.501 158.844 285.967 158.916C289.359 159.015 292.752 159.151 296.138 159.387C296.927 159.442 297.715 159.504 298.502 159.575C299.111 159.63 299.633 159.016 299.633 158.444C299.633 157.786 299.113 157.368 298.502 157.313Z" fill="black"/>
<path d="M298.502 158.443C292.96 158.773 284.675 157.725 281.666 157.69C281.666 157.69 301.015 176.538 318.105 161.961C321.623 157.94 326.147 151.908 326.147 151.908C326.147 151.908 315.34 157.437 298.502 158.443Z" fill="black"/>
<path d="M298.502 157.312C293.786 157.584 289.05 157.053 284.353 156.706C283.458 156.64 282.562 156.572 281.665 156.559C280.691 156.546 280.166 157.81 280.866 158.49C281.956 159.551 283.179 160.493 284.4 161.395C287.131 163.413 290.085 165.108 293.225 166.403C297.02 167.969 301.175 168.861 305.291 168.568C310.236 168.216 315.076 166.169 318.782 162.864C319.252 162.446 319.644 161.906 320.05 161.425C320.476 160.919 320.898 160.409 321.317 159.896C322.125 158.908 322.921 157.911 323.71 156.908C324.805 155.518 325.887 154.117 326.954 152.705C327.01 152.63 327.067 152.555 327.123 152.48C327.419 152.085 327.272 151.435 326.946 151.109C326.578 150.741 326.026 150.702 325.576 150.932C325.191 151.129 324.796 151.305 324.401 151.479C324.302 151.522 324.203 151.565 324.103 151.608C323.983 151.66 323.636 151.8 323.963 151.669C323.695 151.777 323.429 151.891 323.161 151.998C322.512 152.258 321.858 152.506 321.201 152.744C317.068 154.237 312.794 155.342 308.472 156.124C305.175 156.72 301.846 157.109 298.502 157.312C297.892 157.349 297.371 157.805 297.371 158.443C297.371 159.027 297.889 159.611 298.502 159.574C304.222 159.226 309.921 158.35 315.464 156.89C318.771 156.019 322.028 154.943 325.172 153.593C325.692 153.37 326.213 153.143 326.717 152.885C326.202 152.369 325.686 151.854 325.17 151.338C323.034 154.185 320.872 156.947 318.497 159.77C318.109 160.232 317.736 160.74 317.305 161.162C316.862 161.595 316.324 161.968 315.822 162.33C314.826 163.048 313.777 163.694 312.682 164.248C310.763 165.219 308.635 165.887 306.441 166.193C306.308 166.211 306.412 166.197 306.439 166.193C306.358 166.203 306.277 166.213 306.196 166.222C306.076 166.236 305.955 166.249 305.834 166.261C305.573 166.286 305.312 166.306 305.051 166.322C304.535 166.353 304.017 166.365 303.5 166.36C302.99 166.354 302.48 166.331 301.971 166.291C301.719 166.271 301.467 166.247 301.216 166.219C301.1 166.206 300.985 166.193 300.87 166.178C300.867 166.178 300.678 166.153 300.79 166.168C300.889 166.182 300.674 166.151 300.654 166.148C298.72 165.859 296.824 165.354 294.99 164.677C294.015 164.317 293.501 164.099 292.59 163.672C291.791 163.299 291.006 162.896 290.236 162.468C288.887 161.719 287.581 160.894 286.321 160.005C286.049 159.813 285.779 159.618 285.512 159.42C285.386 159.327 285.262 159.234 285.137 159.14C285.047 159.071 284.696 158.798 284.959 159.005C284.558 158.691 284.16 158.373 283.769 158.046C283.344 157.69 282.949 157.293 282.52 156.943C282.501 156.927 282.483 156.908 282.465 156.891C282.199 157.534 281.932 158.178 281.666 158.821C283.481 158.847 285.297 159.041 287.106 159.182C289.569 159.375 292.035 159.554 294.505 159.617C295.837 159.651 297.171 159.651 298.502 159.574C299.112 159.539 299.633 159.079 299.633 158.443C299.633 157.858 299.114 157.277 298.502 157.312Z" fill="black"/>
<path d="M283.423 72.4904C283.423 72.4904 273.119 83.0458 276.386 89.5801C281.363 99.5343 295.486 95.1091 295.486 95.1091C295.486 95.1091 293.727 106.418 308.555 101.392C308.555 106.921 312.827 112.953 320.367 107.675C327.907 102.397 325.142 128.535 320.367 133.812C325.142 134.566 329.479 110.87 336.2 113.455C349.269 118.482 340.375 132.503 335.027 136.374C337.559 139.64 350.168 143.649 349.975 136.331C351.382 137.258 353.338 136.927 354.717 135.96C356.097 134.993 357.016 133.513 357.842 132.045C362.435 123.884 365.462 114.314 364.632 104.864C364.013 97.8219 359.661 90.3543 352.284 89.0775C347.509 64.1969 303.026 51.8822 283.423 72.4904Z" fill="black"/>
<path d="M282.623 71.6906C281.15 73.202 279.827 74.8948 278.623 76.624C276.627 79.4898 274.726 82.8889 274.619 86.4656C274.506 90.2181 277.236 93.6338 280.409 95.3669C283.297 96.9442 286.695 97.3716 289.942 97.1771C291.893 97.0602 293.913 96.7847 295.787 96.1995C295.323 95.7358 294.859 95.2721 294.396 94.8083C294.184 96.1833 294.278 97.6518 294.696 98.9783C295.057 100.123 295.678 101.217 296.587 102.015C297.804 103.083 299.306 103.583 300.897 103.754C303.571 104.041 306.343 103.328 308.855 102.483C308.378 102.119 307.901 101.755 307.424 101.392C307.445 105.629 309.794 110.421 314.469 110.819C315.675 110.922 316.927 110.663 318.045 110.217C318.768 109.929 319.463 109.59 320.127 109.183C320.551 108.924 320.946 108.616 321.379 108.372C321.483 108.313 321.596 108.267 321.699 108.207C321.845 108.122 321.432 108.295 321.643 108.232C321.705 108.213 321.765 108.188 321.827 108.169C321.921 108.14 322.024 108.13 322.116 108.099C322.274 108.044 321.804 108.105 322.007 108.114C322.06 108.116 322.119 108.109 322.172 108.106C322.217 108.104 322.268 108.118 322.312 108.111C322.444 108.093 322.044 108.041 322.167 108.09C322.242 108.12 322.364 108.15 322.445 108.163C322.6 108.19 322.296 108.085 322.315 108.107C322.34 108.134 322.402 108.148 322.435 108.169C322.473 108.193 322.512 108.218 322.551 108.24C322.748 108.351 322.448 108.202 322.465 108.169C322.464 108.17 322.661 108.348 322.676 108.364C322.71 108.4 322.742 108.438 322.776 108.475C322.939 108.649 322.721 108.402 322.722 108.402C322.772 108.385 323.042 108.922 323.069 108.976C323.096 109.03 323.119 109.086 323.147 109.139C323.251 109.341 323.067 108.915 323.128 109.091C323.171 109.215 323.223 109.336 323.266 109.46C323.358 109.731 323.434 110.006 323.501 110.284C323.574 110.59 323.634 110.899 323.684 111.21C323.698 111.292 323.709 111.375 323.723 111.457C323.765 111.722 323.703 111.276 323.727 111.481C323.747 111.655 323.769 111.829 323.786 112.004C323.862 112.76 323.898 113.52 323.908 114.28C323.93 115.983 323.826 117.688 323.644 119.381C323.62 119.605 323.594 119.828 323.567 120.052C323.554 120.164 323.54 120.276 323.525 120.389C323.518 120.445 323.479 120.742 323.495 120.623C323.513 120.491 323.469 120.808 323.462 120.858C323.446 120.97 323.43 121.082 323.414 121.194C323.38 121.419 323.346 121.643 323.309 121.866C323.167 122.753 323.002 123.635 322.813 124.513C322.464 126.136 322.039 127.748 321.481 129.313C321.361 129.647 321.236 129.98 321.102 130.309C321.088 130.341 320.972 130.619 321.043 130.453C321.11 130.296 321.003 130.542 320.982 130.59C320.914 130.743 320.845 130.895 320.772 131.047C320.515 131.585 320.229 132.114 319.889 132.605C319.82 132.705 319.535 133.01 319.802 132.734C319.718 132.82 319.647 132.923 319.567 133.012C319.065 133.573 319.161 134.772 320.066 134.903C321.477 135.107 322.595 134.338 323.457 133.278C324.514 131.979 325.291 130.481 326.021 128.982C327.768 125.39 329.188 121.62 331.231 118.178C331.458 117.795 331.694 117.418 331.943 117.049C332.057 116.88 332.174 116.713 332.294 116.548C332.353 116.468 332.413 116.389 332.472 116.31C332.561 116.188 332.334 116.481 332.429 116.365C332.466 116.319 332.503 116.271 332.54 116.225C332.775 115.935 333.023 115.654 333.29 115.393C333.41 115.275 333.533 115.161 333.661 115.053C333.691 115.027 333.924 114.837 333.757 114.97C333.598 115.096 333.833 114.916 333.878 114.884C334.002 114.799 334.129 114.719 334.26 114.647C334.324 114.612 334.389 114.581 334.453 114.547C334.692 114.419 334.244 114.606 334.45 114.546C334.574 114.509 334.693 114.46 334.819 114.429C334.884 114.414 334.953 114.407 335.017 114.388C335.181 114.34 334.869 114.426 334.866 114.407C334.866 114.405 335.011 114.394 335.017 114.394C335.152 114.391 335.289 114.405 335.423 114.401C335.602 114.395 335.134 114.333 335.353 114.392C335.429 114.412 335.509 114.423 335.586 114.444C336.14 114.591 336.577 114.817 337.098 115.079C338.267 115.669 339.085 116.22 339.93 117.107C340.022 117.204 340.113 117.303 340.2 117.404C340.244 117.454 340.286 117.505 340.328 117.555C340.349 117.579 340.479 117.74 340.393 117.631C340.308 117.524 340.432 117.684 340.451 117.71C340.488 117.762 340.526 117.814 340.563 117.866C340.644 117.983 340.722 118.101 340.797 118.222C340.928 118.433 341.049 118.65 341.159 118.872C341.214 118.982 341.264 119.093 341.314 119.204C341.209 118.97 341.362 119.331 341.386 119.398C341.557 119.866 341.676 120.345 341.765 120.834C341.776 120.893 341.783 120.953 341.793 121.012C341.787 120.974 341.768 120.766 341.789 120.98C341.8 121.1 341.814 121.219 341.824 121.34C341.843 121.581 341.852 121.824 341.853 122.066C341.854 122.311 341.845 122.556 341.829 122.8C341.821 122.923 341.811 123.046 341.799 123.169C341.793 123.231 341.785 123.292 341.779 123.354C341.752 123.664 341.82 123.115 341.771 123.424C341.691 123.924 341.595 124.418 341.466 124.908C341.331 125.423 341.169 125.931 340.984 126.43C340.939 126.553 340.892 126.675 340.844 126.796C340.82 126.857 340.796 126.917 340.771 126.978C340.759 127.008 340.68 127.199 340.734 127.07C340.789 126.94 340.707 127.131 340.694 127.161C340.668 127.221 340.641 127.281 340.615 127.341C340.554 127.476 340.492 127.61 340.429 127.743C339.965 128.72 339.427 129.66 338.831 130.562C338.541 131.001 338.235 131.428 337.921 131.85C337.757 132.069 337.981 131.778 337.812 131.991C337.745 132.076 337.679 132.16 337.611 132.244C337.44 132.456 337.266 132.665 337.088 132.87C336.491 133.56 335.855 134.218 335.169 134.819C335.03 134.94 334.889 135.059 334.746 135.175C334.717 135.199 334.459 135.4 334.612 135.283C334.762 135.168 334.489 135.373 334.455 135.397C333.817 135.862 333.745 136.561 334.227 137.173C334.941 138.08 335.992 138.751 336.994 139.299C338.293 140.008 339.694 140.565 341.119 140.963C343.595 141.655 346.935 142.152 349.179 140.536C350.552 139.547 351.137 137.992 351.106 136.331C350.539 136.656 349.971 136.982 349.404 137.307C351.252 138.466 353.708 138.087 355.416 136.844C357.234 135.521 358.346 133.517 359.391 131.576C361.575 127.519 363.348 123.208 364.491 118.74C366.483 110.956 366.975 101.759 362.341 94.7775C360.074 91.3615 356.681 88.7186 352.585 87.9869L353.375 88.7768C352.388 83.6924 349.74 79.0833 346.241 75.3088C342.519 71.2925 337.847 68.1691 332.888 65.8891C327.571 63.4448 321.89 61.9006 316.075 61.2586C310.352 60.6266 304.473 60.9255 298.892 62.3863C293.421 63.8183 288.25 66.4336 284.07 70.2693C283.572 70.7266 283.09 71.2013 282.623 71.6906C281.618 72.7435 283.215 74.3455 284.223 73.29C285.177 72.2898 286.198 71.3538 287.279 70.4924C287.331 70.4514 287.622 70.2244 287.466 70.3443C287.605 70.237 287.746 70.1314 287.887 70.0268C288.169 69.8178 288.454 69.6136 288.743 69.4143C289.291 69.0362 289.85 68.6756 290.421 68.3326C291.578 67.6372 292.779 67.0147 294.011 66.464C294.156 66.3995 294.3 66.3362 294.446 66.2733C294.65 66.1848 294.51 66.245 294.467 66.2634C294.564 66.2224 294.662 66.1821 294.76 66.1421C295.086 66.0085 295.414 65.8798 295.744 65.7558C296.373 65.5195 297.008 65.3005 297.649 65.0986C298.941 64.6915 300.254 64.3533 301.58 64.0798C302.267 63.9384 302.957 63.8142 303.649 63.7067C303.809 63.6819 303.97 63.6578 304.13 63.6347C304.202 63.6245 304.273 63.6146 304.345 63.6044C304.699 63.5543 304.119 63.6315 304.474 63.5873C304.815 63.545 305.156 63.5035 305.498 63.4674C308.297 63.1718 311.122 63.1356 313.929 63.3283C314.628 63.3762 315.325 63.4384 316.02 63.5145C316.855 63.6057 317.201 63.6516 317.969 63.769C319.354 63.9808 320.73 64.2473 322.094 64.5669C324.835 65.2092 327.527 66.0654 330.131 67.136C330.198 67.1635 330.265 67.1913 330.332 67.219C330.653 67.3521 330.22 67.1711 330.411 67.2521C330.561 67.3156 330.71 67.3799 330.859 67.4448C331.189 67.5888 331.517 67.7363 331.844 67.8873C332.461 68.1726 333.072 68.4706 333.677 68.7815C334.901 69.411 336.098 70.0932 337.26 70.8301C337.818 71.1836 338.368 71.5496 338.908 71.9285C339.162 72.1065 339.415 72.2873 339.665 72.471C339.803 72.5726 339.941 72.6751 340.078 72.7785C340.132 72.8198 340.187 72.8613 340.241 72.9027C340.511 73.1079 340.07 72.7681 340.337 72.9763C341.362 73.7753 342.348 74.6238 343.284 75.525C344.198 76.4048 345.064 77.3343 345.871 78.3133C346.057 78.539 346.24 78.7673 346.419 78.9982C346.276 78.8135 346.562 79.1873 346.595 79.2327C346.692 79.362 346.787 79.492 346.882 79.6229C347.238 80.1173 347.58 80.6228 347.904 81.1392C348.562 82.1876 349.15 83.2804 349.654 84.4112C349.705 84.5266 349.755 84.6425 349.805 84.7585C349.703 84.5212 349.887 84.9602 349.909 85.0133C350.026 85.3062 350.138 85.6014 350.244 85.8986C350.445 86.464 350.626 87.037 350.784 87.616C350.943 88.1979 351.079 88.7858 351.194 89.378C351.262 89.7302 351.628 90.1043 351.983 90.1679C355.131 90.7301 357.792 92.5008 359.704 94.9594C361.723 97.5561 362.895 100.63 363.386 103.874C363.653 105.635 363.685 107.816 363.599 109.734C363.504 111.83 363.234 113.909 362.812 115.964C361.955 120.132 360.527 124.176 358.678 128.005C358.172 129.053 357.636 130.086 357.072 131.104C356.555 132.038 356.032 133.002 355.345 133.824C354.173 135.226 352.221 136.405 350.546 135.355C349.822 134.901 348.828 135.489 348.844 136.331C348.847 136.501 348.846 136.671 348.836 136.841C348.831 136.914 348.822 136.987 348.818 137.06C348.801 137.345 348.881 136.825 348.812 137.094C348.778 137.222 348.76 137.355 348.723 137.483C348.695 137.584 348.513 138.01 348.66 137.709C348.555 137.924 348.439 138.12 348.306 138.319C348.495 138.036 348.279 138.34 348.218 138.402C348.123 138.501 348.019 138.587 347.916 138.677C348.176 138.449 347.882 138.692 347.81 138.737C347.711 138.799 347.609 138.856 347.506 138.908C347.442 138.94 347.377 138.968 347.313 138.999C347.571 138.873 347.449 138.947 347.384 138.967C347.244 139.011 347.108 139.066 346.966 139.107C346.706 139.182 346.443 139.232 346.176 139.276C346.007 139.303 346.467 139.254 346.199 139.271C346.119 139.276 346.038 139.288 345.957 139.294C345.805 139.306 345.652 139.314 345.5 139.318C345.199 139.326 344.897 139.319 344.596 139.301C344.448 139.293 344.3 139.281 344.152 139.267C344.072 139.259 343.532 139.186 343.823 139.231C343.176 139.131 342.536 139.002 341.903 138.832C341.25 138.657 340.607 138.446 339.977 138.203C339.818 138.142 339.661 138.078 339.504 138.014C339.749 138.115 339.341 137.941 339.273 137.91C338.978 137.777 338.686 137.636 338.399 137.486C337.829 137.189 337.286 136.854 336.763 136.482C336.724 136.454 336.686 136.424 336.648 136.396C336.921 136.597 336.658 136.401 336.603 136.355C336.51 136.278 336.418 136.198 336.33 136.116C336.148 135.947 335.979 135.768 335.826 135.574L335.597 137.35C337.22 136.168 338.575 134.695 339.789 133.103C341.15 131.317 342.27 129.358 343.079 127.26C343.863 125.224 344.307 122.982 344.027 120.801C343.728 118.469 342.608 116.356 340.809 114.829C339.67 113.862 338.388 113.144 337.013 112.571C336.17 112.22 335.377 112.05 334.466 112.199C333.001 112.438 331.789 113.565 330.896 114.681C328.375 117.833 326.875 121.73 325.22 125.372C324.437 127.095 323.652 128.833 322.675 130.457C322.477 130.785 322.271 131.109 322.048 131.421C322 131.489 321.95 131.556 321.901 131.623C321.741 131.844 321.989 131.526 321.894 131.633C321.788 131.754 321.69 131.882 321.582 132.001C321.487 132.104 321.39 132.205 321.287 132.301C321.233 132.351 321.176 132.399 321.122 132.449C320.931 132.624 321.32 132.324 321.148 132.431C321.049 132.493 320.954 132.56 320.853 132.62C320.816 132.642 320.734 132.664 320.705 132.694C320.77 132.624 320.985 132.616 320.772 132.66C320.718 132.671 320.657 132.688 320.605 132.705C320.402 132.775 320.682 132.681 320.72 132.693C320.647 132.67 320.132 132.644 320.667 132.722C320.834 133.352 321 133.982 321.166 134.612C322.068 133.605 322.665 132.392 323.181 131.155C323.794 129.686 324.26 128.16 324.645 126.617C325.525 123.099 326.047 119.45 326.155 115.825C326.204 114.198 326.147 112.575 325.919 110.963C325.752 109.782 325.474 108.539 324.843 107.51C324.257 106.554 323.314 105.833 322.151 105.844C321.537 105.85 320.954 106.049 320.411 106.325C319.411 106.832 318.555 107.566 317.51 108.009C316.401 108.481 315.5 108.65 314.36 108.547C314.225 108.535 314.373 108.55 314.394 108.553C314.324 108.543 314.254 108.53 314.185 108.517C314.082 108.497 313.979 108.474 313.878 108.448C313.761 108.418 313.646 108.384 313.531 108.346C313.453 108.32 313.168 108.209 313.238 108.239C313.352 108.29 313.2 108.22 313.188 108.214C313.128 108.184 313.067 108.155 313.008 108.123C312.919 108.077 312.831 108.028 312.744 107.976C312.644 107.916 312.545 107.853 312.448 107.786C312.393 107.748 312.339 107.709 312.285 107.67C312.144 107.567 312.41 107.773 312.275 107.661C311.453 106.973 311.076 106.456 310.595 105.49C310.547 105.394 310.502 105.297 310.456 105.2C310.362 104.998 310.422 105.128 310.441 105.173C310.42 105.123 310.4 105.072 310.38 105.022C310.281 104.768 310.19 104.51 310.111 104.249C309.961 103.755 309.854 103.252 309.771 102.742C309.769 102.734 309.745 102.554 309.76 102.673C309.777 102.806 309.75 102.577 309.747 102.549C309.735 102.42 309.722 102.292 309.713 102.163C309.695 101.906 309.687 101.649 309.686 101.392C309.682 100.692 308.961 100.064 308.254 100.301C307.019 100.717 305.762 101.076 304.479 101.312C304.223 101.359 303.965 101.403 303.707 101.438C303.881 101.414 303.55 101.456 303.498 101.462C303.353 101.478 303.208 101.492 303.062 101.504C302.611 101.541 302.159 101.557 301.706 101.545C301.494 101.539 301.282 101.528 301.07 101.509C300.984 101.502 300.898 101.491 300.811 101.483C300.75 101.477 300.591 101.446 300.861 101.49C300.806 101.481 300.752 101.475 300.698 101.465C300.343 101.399 299.994 101.324 299.65 101.214C299.504 101.167 299.362 101.11 299.218 101.057C299.182 101.044 299.435 101.16 299.207 101.049C299.138 101.015 299.068 100.982 299 100.947C298.737 100.811 298.51 100.63 298.257 100.482C298.199 100.448 298.455 100.653 298.298 100.511C298.247 100.465 298.193 100.422 298.142 100.377C298.042 100.287 297.946 100.193 297.854 100.096C297.764 100.001 297.684 99.8972 297.595 99.8007C297.47 99.6642 297.737 100.01 297.637 99.8552C297.598 99.7943 297.552 99.7374 297.511 99.6774C297.371 99.4715 297.246 99.2558 297.135 99.0331C297.1 98.9637 296.949 98.652 297.04 98.8375C297.13 99.0237 296.985 98.6935 296.957 98.6154C296.808 98.197 296.701 97.7641 296.629 97.326C296.62 97.2737 296.613 97.2211 296.605 97.1689C296.567 96.9522 296.631 97.4342 296.618 97.2712C296.611 97.1715 296.596 97.0721 296.587 96.9724C296.572 96.7944 296.562 96.616 296.556 96.4374C296.547 96.1229 296.553 95.8076 296.577 95.4938C296.584 95.4022 296.596 95.3109 296.603 95.2193C296.619 94.9944 296.555 95.5529 296.577 95.4097C296.7 94.612 296.089 93.7365 295.185 94.0185C294.789 94.1425 294.382 94.2399 293.977 94.3325C293.525 94.4357 293.07 94.5265 292.614 94.606C292.338 94.654 292.062 94.6962 291.785 94.7372C291.476 94.7831 291.966 94.7176 291.64 94.7568C291.459 94.7786 291.278 94.8005 291.097 94.8197C289.694 94.9674 288.277 95.006 286.87 94.8944C286.713 94.8819 286.556 94.8676 286.399 94.8512C286.312 94.8421 285.77 94.771 286.036 94.8101C285.621 94.7489 285.208 94.6778 284.798 94.5877C284.044 94.4218 283.31 94.1942 282.59 93.9152C282.538 93.895 282.335 93.8069 282.54 93.8958C282.448 93.856 282.357 93.8156 282.267 93.7739C282.085 93.69 281.905 93.6016 281.728 93.5087C281.369 93.3209 281.02 93.1143 280.684 92.8891C280.513 92.7749 280.346 92.6559 280.182 92.5321C280.371 92.6748 280.1 92.465 280.085 92.4526C280.004 92.3864 279.924 92.3191 279.845 92.2505C279.522 91.9704 279.216 91.6708 278.93 91.3541C278.363 90.7273 277.924 90.0848 277.475 89.2281C277.422 89.1274 277.371 89.0257 277.321 88.9238C277.303 88.8879 277.185 88.5977 277.282 88.8477C277.214 88.6728 277.151 88.4962 277.098 88.3159C277.054 88.1662 277.016 88.0148 276.984 87.8623C276.964 87.7706 276.951 87.6773 276.931 87.5859C276.911 87.4552 276.911 87.4623 276.931 87.6074C276.923 87.5449 276.916 87.4824 276.91 87.4197C276.883 87.0692 276.869 86.7206 276.884 86.369C276.892 86.1739 276.907 85.979 276.928 85.7849C276.932 85.7469 276.982 85.4231 276.938 85.6927C276.96 85.5609 276.981 85.4291 277.005 85.2978C277.159 84.4816 277.405 83.684 277.703 82.9097C277.742 82.8101 277.782 82.711 277.822 82.612C277.95 82.2936 277.772 82.7249 277.853 82.5358C277.931 82.3541 278.012 82.1737 278.096 81.9945C278.294 81.5684 278.507 81.149 278.731 80.7358C279.131 79.9979 279.566 79.2794 280.027 78.5779C280.509 77.8426 281.02 77.1258 281.552 76.4256C281.608 76.3524 281.664 76.2793 281.72 76.2064C281.549 76.4285 281.787 76.1218 281.818 76.0825C281.941 75.9264 282.065 75.7712 282.19 75.6169C282.399 75.3578 282.612 75.1011 282.827 74.8469C283.278 74.3161 283.736 73.7887 284.223 73.29C285.239 72.2471 283.641 70.646 282.623 71.6906Z" fill="black"/>
<path d="M360.879 229.432C359.835 238.942 359.917 248.566 361.098 258.06C362.284 267.601 364.526 276.998 367.847 286.023C369.709 291.083 371.897 296.025 374.399 300.802C375.075 302.092 377.027 300.949 376.352 299.66C371.983 291.319 368.612 282.478 366.275 273.358C363.932 264.213 362.638 254.813 362.437 245.374C362.324 240.052 362.56 234.724 363.141 229.432C363.208 228.824 362.573 228.301 362.01 228.301C361.343 228.301 360.946 228.822 360.879 229.432Z" fill="black"/>
<path d="M298.517 130.889C298.952 129.243 300.927 129.224 301.868 130.368C302.668 131.339 302.997 133.555 302.47 134.701C302.208 135.271 301.47 135.508 300.863 135.349C300.218 135.18 299.626 134.615 299.189 133.907C298.6 132.954 298.292 131.741 298.517 130.889Z" fill="black"/>
<path d="M299.244 131.09C299.261 131.029 299.282 130.969 299.301 130.908C299.358 130.723 299.224 131.026 299.32 130.866C299.369 130.785 299.414 130.703 299.469 130.624C299.356 130.786 299.533 130.573 299.566 130.538C299.683 130.412 299.431 130.616 299.575 130.526C299.619 130.499 299.661 130.469 299.706 130.444C299.75 130.419 299.797 130.399 299.842 130.376C299.684 130.456 299.76 130.408 299.804 130.396C299.904 130.37 300 130.344 300.101 130.323C299.907 130.362 300.127 130.327 300.209 130.327C300.253 130.327 300.296 130.331 300.339 130.332C300.536 130.336 300.224 130.3 300.373 130.335C300.46 130.355 300.546 130.372 300.631 130.399C300.683 130.415 300.732 130.436 300.783 130.453C300.623 130.399 300.713 130.421 300.751 130.442C300.848 130.495 300.941 130.55 301.035 130.606C301.068 130.626 301.142 130.694 301.015 130.587C301.072 130.635 301.129 130.682 301.182 130.735C301.222 130.774 301.403 131 301.284 130.834C301.339 130.911 301.392 130.989 301.44 131.07C301.491 131.157 301.537 131.246 301.581 131.337C301.592 131.36 301.67 131.552 301.606 131.389C301.634 131.46 301.661 131.531 301.686 131.603C301.764 131.828 301.825 132.059 301.874 132.292C301.897 132.406 301.917 132.521 301.935 132.635C301.908 132.465 301.94 132.693 301.942 132.712C301.949 132.781 301.955 132.85 301.96 132.92C301.976 133.166 301.977 133.415 301.958 133.661C301.955 133.704 301.95 133.747 301.946 133.79C301.929 134 301.981 133.638 301.938 133.84C301.914 133.957 301.892 134.074 301.858 134.189C301.842 134.244 301.822 134.296 301.805 134.35C301.764 134.479 301.807 134.343 301.819 134.321C301.787 134.377 301.761 134.434 301.723 134.487C301.821 134.35 301.693 134.502 301.672 134.522C301.697 134.498 301.792 134.453 301.673 134.519C301.617 134.55 301.564 134.584 301.505 134.611C301.638 134.551 301.532 134.598 301.503 134.603C301.465 134.611 301.202 134.649 301.382 134.638C301.328 134.641 301.273 134.64 301.218 134.643C301.175 134.646 301.032 134.622 301.19 134.65C301.08 134.631 300.969 134.601 300.865 134.558C301.01 134.617 300.798 134.516 300.787 134.511C300.722 134.474 300.662 134.433 300.599 134.393C300.587 134.385 300.489 134.308 300.57 134.373C300.488 134.308 300.411 134.236 300.337 134.162C299.938 133.765 299.597 133.173 299.421 132.665C299.368 132.512 299.322 132.356 299.284 132.199C299.265 132.122 299.249 132.045 299.234 131.967C299.233 131.962 299.202 131.723 299.217 131.864C299.202 131.718 299.194 131.572 299.198 131.425C299.2 131.355 299.205 131.286 299.212 131.216C299.194 131.391 299.236 131.124 299.244 131.09C299.338 130.708 299.122 130.255 298.717 130.163C298.328 130.074 297.891 130.28 297.79 130.69C297.422 132.182 298.092 133.855 299.051 134.989C299.536 135.563 300.198 136.025 300.955 136.127C301.727 136.231 302.522 135.934 302.987 135.299C303.352 134.799 303.45 134.099 303.475 133.497C303.503 132.85 303.416 132.181 303.248 131.556C302.927 130.364 302.222 129.287 300.981 128.929C300.331 128.742 299.642 128.802 299.035 129.095C298.4 129.401 297.976 130.025 297.79 130.69C297.684 131.069 297.921 131.527 298.316 131.617C298.716 131.708 299.13 131.497 299.244 131.09Z" fill="black"/>
<path d="M298.513 109.038C299.286 108.686 300.286 108.623 301.13 108.822C302.074 109.044 302.842 109.5 303.474 110.256C303.736 110.568 304.27 110.525 304.54 110.256C304.85 109.946 304.802 109.503 304.54 109.189C302.91 107.24 300.03 106.699 297.752 107.736C297.382 107.905 297.291 108.442 297.482 108.768C297.705 109.148 298.141 109.207 298.513 109.038Z" fill="black"/>
<path d="M281.495 104.847C281.536 104.825 281.579 104.807 281.62 104.785C281.712 104.735 281.496 104.831 281.594 104.795C281.672 104.766 281.75 104.737 281.83 104.712C281.909 104.688 281.99 104.667 282.071 104.649C282.117 104.639 282.162 104.632 282.208 104.622C282.311 104.601 282.213 104.636 282.172 104.625C282.236 104.642 282.353 104.608 282.422 104.604C282.505 104.601 282.589 104.6 282.672 104.602C282.765 104.605 282.858 104.613 282.95 104.622C283.056 104.632 282.955 104.608 282.916 104.617C282.953 104.608 283.017 104.634 283.053 104.642C283.217 104.675 283.379 104.719 283.537 104.775C283.572 104.788 283.606 104.802 283.641 104.814C283.729 104.845 283.512 104.752 283.64 104.815C283.715 104.852 283.79 104.888 283.863 104.928C283.936 104.969 284.008 105.012 284.077 105.058C284.108 105.079 284.138 105.1 284.168 105.121C284.316 105.223 284.093 105.053 284.17 105.122C284.303 105.239 284.432 105.356 284.549 105.49C284.809 105.788 285.352 105.776 285.615 105.49C285.907 105.172 285.893 104.741 285.615 104.424C284.421 103.057 282.327 102.729 280.734 103.545C280.382 103.725 280.252 104.247 280.464 104.576C280.695 104.935 281.119 105.039 281.495 104.847Z" fill="black"/>
<path d="M282.451 111.954C281.909 112.898 280.952 113.414 279.899 113.246C279.7 113.214 279.498 113.167 279.329 113.059C279.12 112.925 278.978 112.71 278.869 112.488C278.429 111.59 278.475 110.471 278.988 109.612C279.685 108.446 281.532 108.424 282.343 109.505C282.862 110.197 282.883 111.204 282.451 111.954Z" fill="black"/>
<path d="M281.798 111.573C281.747 111.659 281.691 111.79 281.613 111.856C281.749 111.74 281.626 111.839 281.594 111.876C281.559 111.917 281.522 111.957 281.484 111.996C281.422 112.06 281.354 112.118 281.288 112.178C281.155 112.298 281.423 112.092 281.274 112.189C281.215 112.227 281.158 112.267 281.098 112.302C281.03 112.342 280.927 112.371 280.867 112.421L280.951 112.385C280.919 112.398 280.887 112.41 280.854 112.421C280.805 112.438 280.755 112.454 280.705 112.467C280.655 112.481 280.604 112.493 280.553 112.503L280.502 112.513C280.418 112.526 280.433 112.525 280.546 112.508C280.504 112.55 280.283 112.523 280.226 112.522C280.171 112.52 280.117 112.515 280.062 112.512C279.874 112.502 280.233 112.552 280.037 112.508C279.968 112.493 279.798 112.484 279.744 112.434L279.812 112.465C279.776 112.448 279.741 112.428 279.707 112.407L279.768 112.457C279.739 112.433 279.711 112.407 279.685 112.38C279.552 112.272 279.75 112.503 279.66 112.355C279.625 112.298 279.589 112.242 279.557 112.183C279.534 112.14 279.514 112.096 279.492 112.052C279.404 111.877 279.535 112.198 279.476 112.011C279.441 111.896 279.401 111.784 279.374 111.667C279.362 111.618 279.352 111.569 279.343 111.52C279.334 111.47 279.291 111.349 279.34 111.513C279.303 111.389 279.318 111.222 279.321 111.094C279.323 110.998 279.319 110.889 279.342 110.795C279.295 110.987 279.345 110.794 279.352 110.759C279.364 110.7 279.377 110.641 279.392 110.583C279.419 110.479 279.443 110.333 279.503 110.242C279.424 110.363 279.478 110.295 279.497 110.257C279.533 110.185 279.567 110.113 279.607 110.043C279.632 109.999 279.658 109.956 279.686 109.914L279.712 109.876C279.76 109.812 279.748 109.827 279.677 109.922C279.72 109.909 279.792 109.796 279.83 109.76C279.86 109.733 279.906 109.706 279.931 109.674C279.832 109.802 279.847 109.737 279.92 109.69C280 109.637 280.087 109.601 280.169 109.553C280.256 109.502 279.986 109.617 280.131 109.571C280.173 109.558 280.214 109.542 280.256 109.53C280.341 109.504 280.427 109.488 280.513 109.471C280.665 109.441 280.363 109.474 280.466 109.478C280.502 109.479 280.541 109.472 280.577 109.47C280.681 109.465 280.783 109.472 280.887 109.477C281.05 109.487 280.704 109.44 280.863 109.474C280.892 109.48 280.921 109.485 280.95 109.491C281.037 109.509 281.123 109.533 281.207 109.562C281.291 109.591 281.321 109.651 281.192 109.551C281.224 109.576 281.277 109.59 281.313 109.609C281.392 109.651 281.465 109.699 281.54 109.748C281.674 109.835 281.413 109.63 281.529 109.74C281.573 109.781 281.618 109.82 281.66 109.863C281.673 109.877 281.736 109.964 281.751 109.965L281.69 109.884C281.713 109.914 281.734 109.945 281.755 109.976C281.786 110.023 281.815 110.071 281.842 110.121C281.86 110.153 281.877 110.187 281.893 110.22C281.927 110.297 281.924 110.288 281.882 110.195C281.942 110.26 281.958 110.429 281.977 110.517L281.988 110.572C282.002 110.657 282.001 110.646 281.985 110.538C282.01 110.597 281.998 110.7 281.999 110.763C282 110.82 281.999 110.876 281.995 110.932C281.993 110.97 281.99 111.008 281.986 111.045L281.999 110.957C282.007 111.073 281.942 111.232 281.906 111.341C281.894 111.378 281.853 111.557 281.901 111.371C281.883 111.44 281.832 111.511 281.798 111.573C281.606 111.917 281.704 112.411 282.069 112.604C282.424 112.792 282.895 112.701 283.1 112.334C283.723 111.217 283.633 109.738 282.726 108.797C282.003 108.046 280.824 107.778 279.834 108.082C279.319 108.24 278.854 108.539 278.524 108.967C278.12 109.489 277.918 110.116 277.838 110.765C277.685 112.017 278.212 113.692 279.607 113.956C280.323 114.092 281.015 114.014 281.675 113.701C282.277 113.416 282.767 112.902 283.1 112.334C283.3 111.993 283.189 111.492 282.83 111.302C282.468 111.111 282.012 111.209 281.798 111.573Z" fill="black"/>
<path d="M300.799 115.474C300.256 116.417 299.299 116.933 298.246 116.766C298.047 116.734 297.846 116.687 297.676 116.578C297.468 116.445 297.325 116.23 297.216 116.007C296.776 115.109 296.823 113.99 297.336 113.132C298.033 111.965 299.88 111.943 300.691 113.025C301.21 113.717 301.23 114.724 300.799 115.474Z" fill="black"/>
<path d="M300.146 115.092C300.095 115.179 300.038 115.31 299.961 115.376C300.097 115.259 299.973 115.359 299.942 115.395C299.906 115.436 299.87 115.477 299.832 115.515C299.769 115.58 299.702 115.637 299.636 115.697C299.503 115.818 299.771 115.612 299.621 115.708C299.562 115.746 299.506 115.786 299.445 115.822C299.378 115.861 299.274 115.89 299.215 115.941L299.299 115.905C299.267 115.918 299.235 115.93 299.202 115.941C299.153 115.958 299.103 115.973 299.053 115.987C299.003 116.001 298.952 116.013 298.901 116.023L298.849 116.033C298.766 116.046 298.78 116.044 298.894 116.028C298.852 116.07 298.63 116.043 298.573 116.041C298.518 116.04 298.464 116.034 298.41 116.032C298.222 116.022 298.581 116.072 298.385 116.028C298.315 116.012 298.146 116.004 298.091 115.954L298.16 115.984C298.124 115.967 298.089 115.948 298.055 115.926L298.116 115.977C298.087 115.953 298.059 115.927 298.033 115.9C297.9 115.791 298.098 116.023 298.008 115.875C297.973 115.817 297.936 115.762 297.905 115.702C297.882 115.659 297.861 115.615 297.84 115.572C297.752 115.396 297.882 115.718 297.824 115.53C297.788 115.416 297.749 115.304 297.721 115.186C297.71 115.138 297.7 115.089 297.691 115.04C297.682 114.99 297.638 114.869 297.687 115.033C297.65 114.909 297.666 114.742 297.669 114.614C297.671 114.518 297.667 114.408 297.69 114.315C297.643 114.506 297.693 114.314 297.7 114.278C297.712 114.219 297.725 114.161 297.74 114.103C297.767 113.999 297.791 113.852 297.85 113.761C297.772 113.882 297.826 113.815 297.845 113.776C297.881 113.705 297.915 113.633 297.955 113.563C297.98 113.519 298.006 113.476 298.034 113.433L298.06 113.396C298.107 113.332 298.095 113.347 298.025 113.441C298.067 113.429 298.14 113.315 298.178 113.28C298.208 113.252 298.254 113.225 298.278 113.194C298.179 113.322 298.194 113.257 298.268 113.209C298.348 113.157 298.435 113.12 298.517 113.073C298.604 113.022 298.334 113.136 298.479 113.09C298.52 113.077 298.561 113.062 298.604 113.049C298.688 113.024 298.774 113.007 298.861 112.99C299.013 112.96 298.711 112.994 298.814 112.997C298.85 112.998 298.888 112.991 298.924 112.989C299.029 112.985 299.131 112.991 299.235 112.997C299.397 113.006 299.051 112.96 299.211 112.993C299.24 113 299.269 113.004 299.298 113.01C299.385 113.029 299.471 113.053 299.555 113.082C299.639 113.111 299.669 113.171 299.54 113.071C299.572 113.095 299.624 113.11 299.66 113.129C299.74 113.17 299.813 113.219 299.888 113.268C300.022 113.354 299.76 113.15 299.877 113.259C299.921 113.301 299.966 113.339 300.008 113.383C300.021 113.396 300.083 113.483 300.099 113.484L300.038 113.404C300.06 113.434 300.082 113.465 300.103 113.496C300.134 113.543 300.163 113.591 300.189 113.64C300.207 113.673 300.224 113.706 300.24 113.74C300.275 113.816 300.271 113.808 300.23 113.714C300.289 113.779 300.306 113.949 300.324 114.036L300.335 114.091C300.349 114.176 300.349 114.165 300.333 114.058C300.357 114.116 300.346 114.22 300.347 114.283C300.348 114.339 300.346 114.396 300.343 114.452C300.341 114.49 300.338 114.527 300.334 114.565L300.346 114.476C300.355 114.593 300.29 114.751 300.254 114.86C300.241 114.898 300.201 115.076 300.248 114.891C300.231 114.959 300.18 115.031 300.146 115.092C299.954 115.437 300.052 115.931 300.416 116.124C300.772 116.311 301.243 116.221 301.448 115.853C302.071 114.737 301.981 113.257 301.074 112.317C300.35 111.566 299.172 111.297 298.182 111.601C297.666 111.76 297.202 112.058 296.871 112.486C296.468 113.009 296.265 113.635 296.186 114.285C296.033 115.537 296.56 117.212 297.954 117.476C298.671 117.612 299.363 117.533 300.023 117.221C300.625 116.936 301.114 116.421 301.448 115.853C301.648 115.513 301.537 115.011 301.178 114.822C300.816 114.63 300.359 114.729 300.146 115.092Z" fill="black"/>
<path d="M56.4508 58.8952C53.7731 54.9126 51.3618 50.7509 49.2383 46.4471C51.4227 45.337 53.7592 44.527 56.162 44.0469C56.2802 49.8223 56.8182 55.5891 57.7703 61.2868C57.052 60.1229 56.3338 58.959 55.6156 57.7951" fill="#F4D13B"/>
<path d="M57.4269 58.3249C54.7517 54.3387 52.3422 50.1801 50.2144 45.8767C50.0791 46.3925 49.9439 46.9083 49.8087 47.4241C51.9153 46.3622 54.151 45.6076 56.4622 45.1379L55.0306 44.0473C55.1556 49.9259 55.7148 55.7879 56.6793 61.5879C57.3683 61.2974 58.0573 61.0069 58.7464 60.7165C58.0281 59.5525 57.3099 58.3886 56.5917 57.2247C55.8286 55.9882 53.8713 57.1229 54.6386 58.3663C55.3568 59.5302 56.0751 60.6941 56.7933 61.8581C57.0872 62.3343 57.6868 62.5488 58.2055 62.3208C58.7547 62.0794 58.9556 61.5594 58.8604 60.9866C57.929 55.3861 57.4131 49.7232 57.2924 44.0473C57.276 43.2751 56.5858 42.8095 55.8609 42.9568C53.3592 43.4652 50.946 44.3222 48.667 45.471C48.0952 45.7592 48.0043 46.4986 48.2613 47.0183C50.3891 51.3217 52.7986 55.4803 55.4739 59.4665C55.8138 59.9731 56.4708 60.1942 57.0212 59.8722C57.5239 59.5781 57.7688 58.8344 57.4269 58.3249Z" fill="#F4D13B"/>
<path d="M87.3378 42.4605C86.7661 42.144 74.1535 56.5447 73.0859 57.8402C74.8165 51.294 76.7714 45.3949 79.5737 39.2403C79.6935 38.9774 79.8548 38.682 80.1391 38.6306C80.3417 38.594 80.5406 38.6971 80.7207 38.7968C82.9264 40.0181 85.1322 41.2393 87.3378 42.4605Z" fill="#F4D13B"/>
<path d="M87.9083 41.4845C86.7788 40.9909 85.899 42.0652 85.1678 42.7868C84.0688 43.8714 83.0183 45.0062 81.9717 46.1411C79.4334 48.8938 76.9449 51.693 74.4773 54.5091C73.7421 55.3482 72.9964 56.1809 72.2859 57.0411L74.1761 58.1414C75.0931 54.6798 76.1126 51.2448 77.3067 47.868C77.8941 46.2068 78.5226 44.5601 79.1941 42.931C79.5221 42.1353 79.8629 41.345 80.2133 40.559C80.2997 40.3651 80.3863 40.1712 80.4744 39.978C80.4837 39.9575 80.5985 39.7563 80.604 39.6978C80.6139 39.5932 80.6546 39.6341 80.6342 39.6096L80.3227 39.6551C79.9965 39.6402 79.9157 39.6676 80.0804 39.7373C80.1421 39.8172 80.3058 39.8604 80.3977 39.9113C80.6458 40.0486 80.894 40.186 81.1421 40.3234C83.017 41.3614 84.8918 42.3995 86.7667 43.4375C88.0412 44.1431 89.1834 42.1905 87.9083 41.4845C86.0886 40.477 84.2689 39.4694 82.4492 38.4619C81.5441 37.9608 80.453 37.1034 79.4029 37.7213C78.5907 38.1993 78.2862 39.3496 77.9316 40.1625C76.3633 43.7572 74.9971 47.4341 73.8235 51.1761C73.1628 53.2824 72.5603 55.4063 71.995 57.54C71.724 58.5632 73.1344 59.5495 73.8853 58.6404C75.4895 56.6982 77.1926 54.8308 78.8664 52.949C81.2312 50.2903 83.5988 47.6246 86.083 45.076C86.5126 44.6354 86.9451 44.1956 87.4003 43.7813C87.4789 43.7098 87.5579 43.6388 87.6389 43.5701C87.6733 43.5411 87.7089 43.5133 87.7427 43.4836C87.8897 43.3546 87.6217 43.5734 87.6284 43.5711C87.6814 43.5532 87.7205 43.492 87.7751 43.4731C87.9275 43.4203 87.5298 43.5671 87.5726 43.5551C87.3314 43.6225 87.073 43.5714 86.7667 43.4375C87.3259 43.6819 87.9805 43.6019 88.314 43.0318C88.5943 42.5525 88.4709 41.7304 87.9083 41.4845Z" fill="#F4D13B"/>
<path d="M34.6883 76.9355C37.7743 79.5626 45.6491 76.7154 49.0757 76.7274C46.7745 74.5366 43.7464 73.3089 40.7958 72.1301C38.9799 71.4046 37.1639 70.6791 35.3479 69.9535C35.1889 69.89 35.0221 69.8253 34.8517 69.8427C34.3594 69.8931 34.1985 70.5235 34.1746 71.0178C34.089 72.784 34.1751 74.5586 34.4314 76.3082C34.4649 76.537 34.5122 76.7857 34.6883 76.9355Z" fill="#F4D13B"/>
<path d="M33.8885 77.7361C35.504 79.0737 37.6546 79.267 39.6778 79.1537C41.934 79.0272 44.1547 78.5556 46.376 78.1703C46.6357 78.1252 46.8956 78.0814 47.156 78.0403C47.2801 78.0208 47.4043 78.0017 47.5287 77.9836C47.5977 77.9735 47.6667 77.9636 47.7358 77.9542C47.6262 77.9691 47.6299 77.9671 47.7375 77.955C48.1827 77.9048 48.627 77.8604 49.0756 77.8592C50.0313 77.8565 50.5995 76.6093 49.8753 75.9286C47.4655 73.6634 44.4253 72.3736 41.3967 71.1605C39.7155 70.4872 38.0332 69.8166 36.3514 69.1447C35.4623 68.7895 34.4588 68.4087 33.686 69.2343C33.1092 69.8504 33.0498 70.6926 33.025 71.4919C32.9926 72.5335 33.0196 73.5769 33.1061 74.6153C33.1918 75.6451 33.1603 76.9303 33.8885 77.7361C34.2981 78.1895 35.0714 78.1526 35.4879 77.7361C35.9387 77.2852 35.8986 76.5913 35.4879 76.1367C35.5835 76.3321 35.6024 76.3355 35.5445 76.1472C35.5258 76.0387 35.5093 75.93 35.495 75.8209C35.4662 75.6083 35.4432 75.3946 35.421 75.1812C35.3686 74.6787 35.3301 74.1748 35.3057 73.6701C35.2812 73.1655 35.2706 72.6601 35.2741 72.1549C35.2758 71.9023 35.281 71.6497 35.2898 71.3973C35.2941 71.271 35.2993 71.1448 35.3055 71.0187C35.317 70.8821 35.3172 70.8639 35.3059 70.9642C35.3206 70.8847 35.3401 70.8064 35.3646 70.7293C35.3524 70.7745 35.3261 70.8093 35.2854 70.8337C35.1655 70.9235 35.0322 70.9736 34.8857 70.9841C34.999 71.0255 35.1114 71.0692 35.2229 71.1151C35.6924 71.3001 36.1602 71.4896 36.6289 71.6769C37.5368 72.0396 38.4448 72.4024 39.3529 72.7652C42.4696 74.0104 45.7869 75.1882 48.276 77.528C48.5426 76.8844 48.8091 76.2409 49.0757 75.5973C47.9504 75.6005 46.8228 75.8065 45.7175 75.9991C44.403 76.2282 43.0931 76.4852 41.7723 76.6773C40.6943 76.8342 39.2511 76.9719 38.0111 76.8978C37.8607 76.8887 37.7113 76.8728 37.5611 76.8613C37.4233 76.8447 37.4141 76.8447 37.5338 76.8615C37.4624 76.8514 37.3911 76.8403 37.32 76.8283C37.046 76.7818 36.7742 76.721 36.5082 76.6403C36.3807 76.6017 36.256 76.5567 36.1311 76.5108C36.372 76.5993 36.0043 76.4496 35.9598 76.4266C35.8475 76.3683 35.7416 76.3013 35.6328 76.2373C35.5804 76.2034 35.529 76.1683 35.4784 76.1319C35.5831 76.2157 35.5863 76.2174 35.4879 76.1367C35.0178 75.7475 34.3489 75.6763 33.8885 76.1367C33.4876 76.5376 33.4157 77.3447 33.8885 77.7361Z" fill="#F4D13B"/>
<path d="M91.7301 181.963C90.5901 179.047 90.7777 176.533 90.2575 173.538C89.9382 171.699 87.0751 165.572 87.6378 164.109C85.3545 170.045 84.6046 176.391 82.584 182.455C85.4626 182.612 88.3411 182.77 91.2196 182.927C91.3766 182.936 91.5467 182.941 91.6759 182.851C91.94 182.668 91.8471 182.263 91.7301 181.963Z" fill="#F4D13B"/>
<path d="M92.8213 181.662C92.2188 180.089 91.9549 178.46 91.7872 176.792C91.6477 175.405 91.5851 173.955 91.1955 172.61C90.6022 170.561 89.718 168.606 89.1073 166.562C88.9522 166.043 88.8359 165.522 88.7223 164.993C88.6861 164.825 88.733 165.2 88.712 164.912C88.7054 164.822 88.6974 164.731 88.6966 164.64C88.6961 164.571 88.7417 164.287 88.6927 164.498C88.6417 164.717 88.7104 164.463 88.729 164.41C88.9319 163.834 88.4987 163.172 87.9391 163.019C87.3021 162.844 86.7668 163.236 86.5479 163.809C84.2767 169.754 83.4906 176.124 81.4941 182.154C81.2509 182.888 81.8898 183.547 82.5846 183.585C84.5996 183.696 86.6146 183.806 88.6296 183.916C89.5769 183.968 90.5915 184.13 91.5357 184.043C92.7712 183.93 93.2024 182.718 92.8213 181.662C92.6139 181.088 92.0518 180.702 91.4301 180.872C90.8756 181.025 90.4317 181.686 90.6402 182.264C90.6711 182.342 90.6971 182.422 90.7182 182.503C90.6993 182.293 90.7815 182.104 90.9649 181.936L91.5357 181.781C90.8153 181.867 90.0255 181.73 89.3012 181.691C88.5656 181.651 87.83 181.61 87.0943 181.57C85.5911 181.488 84.0878 181.406 82.5846 181.323L83.6752 182.755C85.6717 176.726 86.4578 170.355 88.729 164.41C88.002 164.209 87.2749 164.009 86.5479 163.809C86.2561 164.637 86.5225 165.659 86.7331 166.474C87.0157 167.569 87.3989 168.637 87.7828 169.698C88.1539 170.725 88.5483 171.745 88.8829 172.784C89.25 173.924 89.3576 175.106 89.4759 176.294C89.6782 178.325 89.905 180.344 90.6402 182.264C90.8585 182.834 91.4015 183.227 92.0314 183.053C92.5769 182.904 93.0409 182.236 92.8213 181.662Z" fill="#F4D13B"/>
<path d="M105.015 178.936C106.944 177.88 107.652 175.488 110.152 175.01C109.326 171.036 102.581 169.262 99.3184 168.068C101.195 168.753 103.791 177.415 104.42 179.201C104.632 179.127 104.829 179.038 105.015 178.936Z" fill="#F4D13B"/>
<path d="M105.584 179.913C106.57 179.355 107.294 178.514 108.046 177.689C108.797 176.865 109.392 176.321 110.45 176.101C111.07 175.972 111.365 175.276 111.24 174.71C110.698 172.253 108.442 170.64 106.325 169.574C104.174 168.491 101.872 167.8 99.6172 166.978C99.0432 166.769 98.3785 167.213 98.226 167.768C98.0496 168.41 98.4453 168.935 99.0159 169.16C98.9055 169.116 98.7956 169.009 98.9071 169.123C98.9314 169.148 99.1286 169.29 98.9572 169.149C98.7961 169.017 98.9566 169.154 98.9889 169.188C99.0451 169.247 99.1039 169.303 99.1583 169.364C99.2025 169.414 99.2431 169.467 99.2866 169.517C99.2997 169.532 99.1625 169.34 99.3041 169.547C99.4017 169.69 99.4975 169.834 99.5878 169.981C100.048 170.735 100.419 171.541 100.77 172.35C100.791 172.4 100.813 172.45 100.834 172.5C100.825 172.479 100.776 172.363 100.827 172.484C100.877 172.604 100.926 172.724 100.975 172.844C101.067 173.069 101.157 173.296 101.245 173.523C101.429 173.995 101.606 174.47 101.778 174.947C102.088 175.803 102.383 176.664 102.671 177.528C102.89 178.186 103.099 178.848 103.328 179.502C103.516 180.039 104.115 180.519 104.719 180.292C105.015 180.182 105.305 180.059 105.584 179.913C106.875 179.239 105.733 177.286 104.443 177.96C104.335 178.016 104.231 178.069 104.118 178.111C104.582 178.374 105.045 178.638 105.509 178.901C104.985 177.405 104.517 175.889 103.978 174.398C103.292 172.499 102.584 170.529 101.519 168.804C101.041 168.029 100.483 167.32 99.6172 166.978C99.4167 167.705 99.2163 168.433 99.0159 169.16C99.9686 169.506 100.933 169.819 101.888 170.16C103.032 170.569 103.94 170.918 104.969 171.421C105.481 171.671 105.983 171.942 106.467 172.243C107.006 172.58 107.28 172.777 107.669 173.127C107.852 173.291 108.027 173.464 108.192 173.646C108.219 173.677 108.485 173.997 108.341 173.81C108.423 173.916 108.499 174.027 108.571 174.139C108.696 174.332 108.806 174.534 108.9 174.744C108.794 174.508 108.946 174.884 108.96 174.93C108.999 175.056 109.031 175.183 109.059 175.311C109.322 174.848 109.586 174.384 109.849 173.92C108.595 174.181 107.56 174.911 106.69 175.826C106.32 176.216 105.975 176.629 105.603 177.017C105.184 177.454 104.923 177.688 104.443 177.96C103.176 178.677 104.315 180.632 105.584 179.913Z" fill="#F4D13B"/>
<path d="M74.537 155.031C71.2209 156.692 67.9533 158.531 64.8902 160.626C63.4538 161.609 61.6412 162.536 60.6074 163.947C61.6276 165.013 62.6477 166.079 63.6678 167.144C63.8177 166.395 64.3113 165.767 64.7984 165.178C66.2518 163.42 67.72 161.675 69.4393 160.204C70.3402 159.433 71.1095 158.435 71.9428 157.588C72.6719 156.847 73.6102 155.495 74.537 155.031Z" fill="#F4D13B"/>
<path d="M73.9667 154.055C71.2847 155.401 68.6515 156.848 66.1204 158.462C64.9621 159.2 63.8223 159.969 62.6711 160.718C61.523 161.466 60.4617 162.277 59.6315 163.377C59.3291 163.777 59.4902 164.415 59.8084 164.747C60.8285 165.813 61.8486 166.879 62.8688 167.944C63.4441 168.545 64.5655 168.27 64.759 167.445C64.8925 166.876 65.2323 166.424 65.5987 165.978C66.0438 165.436 66.4939 164.898 66.9514 164.366C67.8803 163.288 68.8486 162.239 69.9121 161.29C70.9431 160.371 71.834 159.342 72.7856 158.344C73.5278 157.565 74.2002 156.496 75.1084 156.008C76.3915 155.32 75.2504 153.366 73.9667 154.055C72.8274 154.666 72.0963 155.784 71.2287 156.7C70.2256 157.76 69.266 158.827 68.1834 159.807C67.0837 160.803 66.0853 161.904 65.1242 163.033C64.1597 164.166 62.9283 165.351 62.5779 166.844L64.4682 166.345C63.448 165.279 62.4279 164.214 61.4078 163.148C61.4667 163.605 61.5256 164.061 61.5846 164.518C62.2565 163.628 63.2782 163.011 64.2023 162.421C65.3313 161.699 66.4326 160.937 67.5661 160.222C70.0039 158.685 72.5335 157.3 75.1084 156.008C75.6541 155.734 75.8084 154.964 75.5141 154.461C75.1892 153.905 74.5145 153.78 73.9667 154.055Z" fill="#F4D13B"/>
<path d="M17.1218 121.271C17.9214 121.004 18.721 120.738 19.5206 120.471C19.7998 120.378 20.0451 120.21 20.1965 119.951C20.3384 119.709 20.3985 119.352 20.3105 119.08C20.222 118.806 20.0524 118.542 19.7908 118.404C19.5297 118.266 19.2086 118.194 18.9193 118.29C18.1197 118.557 17.3201 118.823 16.5205 119.09C16.2413 119.183 15.996 119.351 15.8446 119.61C15.7027 119.852 15.6426 120.209 15.7306 120.481C15.8191 120.755 15.9887 121.019 16.2503 121.157C16.5114 121.295 16.8325 121.367 17.1218 121.271Z" fill="#6966ED"/>
<path d="M23.2127 146.561C25.3233 144.671 27.4338 142.781 29.5444 140.891C29.9864 140.495 29.9775 139.689 29.5444 139.292C29.0724 138.858 28.4165 138.869 27.945 139.292C25.8345 141.182 23.7239 143.072 21.6134 144.962C21.1713 145.358 21.1802 146.164 21.6134 146.561C22.0853 146.994 22.7413 146.983 23.2127 146.561Z" fill="#6966ED"/>
<path d="M9.05437 96.3667C10.1205 96.8998 11.1867 97.4329 12.2528 97.9659C12.5261 98.1026 12.8223 98.1631 13.1243 98.0799C13.3866 98.0077 13.6709 97.8049 13.8002 97.5602C14.071 97.0476 13.9593 96.2953 13.3944 96.0129C12.3283 95.4798 11.2621 94.9467 10.196 94.4137C9.92266 94.277 9.62648 94.2165 9.32453 94.2997C9.06219 94.3719 8.7779 94.5747 8.64866 94.8194C8.37781 95.332 8.48946 96.0843 9.05437 96.3667Z" fill="#6966ED"/>
</svg>
