<svg width="385" height="385" viewBox="0 0 385 385" fill="none" xmlns="http://www.w3.org/2000/svg">
<path d="M258.601 297.203C316.114 297.203 362.738 250.579 362.738 193.066C362.738 135.552 316.114 88.9277 258.601 88.9277C201.087 88.9277 154.463 135.552 154.463 193.066C154.463 250.579 201.087 297.203 258.601 297.203Z" fill="#FFCE4E"/>
<path d="M223.993 59.6962L181.776 78.1918C172.923 82.0705 168.89 92.3918 172.769 101.245L172.769 101.245C176.648 110.098 186.969 114.131 195.823 110.252L238.039 91.7567C246.892 87.878 250.925 77.5566 247.046 68.7033C243.167 59.8501 232.846 55.8174 223.993 59.6962Z" fill="#1B9D81"/>
<path d="M312.414 104.803L345.814 136.565C352.818 143.225 363.896 142.947 370.556 135.943L370.556 135.943C377.217 128.938 376.939 117.861 369.934 111.2L336.535 79.4387C329.531 72.778 318.453 73.0565 311.792 80.0608C305.131 87.065 305.41 98.1427 312.414 104.803Z" fill="#1B9D81"/>
<path d="M259.083 200.868C263.346 200.868 266.801 197.412 266.801 193.15C266.801 188.887 263.346 185.432 259.083 185.432C254.821 185.432 251.365 188.887 251.365 193.15C251.365 197.412 254.821 200.868 259.083 200.868Z" fill="#262626"/>
<path d="M255.013 169.062L274.138 110.48L272.739 171.222C272.552 179.346 268.055 186.757 260.935 190.674L259.66 191.375L258.741 190.203C254.051 184.218 252.653 176.29 255.013 169.062Z" fill="#262626"/>
<path d="M270.489 213.816L310.775 236.023L279.124 203.673C274.307 198.749 267.232 196.761 260.555 198.455L260.564 198.563C261.122 204.984 264.845 210.705 270.489 213.816Z" fill="#262626"/>
<path d="M281.045 287.582L295.743 313.145C297.674 316.503 301.723 318.011 305.381 316.734C309.039 315.456 311.269 311.755 310.689 307.925L306.276 278.77L281.045 287.582Z" fill="#FFCE4E"/>
<path d="M205.324 274.298L182.802 293.331C179.843 295.832 175.523 295.872 172.518 293.425C169.514 290.979 168.677 286.74 170.526 283.336L184.6 257.424L205.324 274.298Z" fill="#FFCE4E"/>
<path d="M153.968 99.7604C153.812 100.515 152.664 99.9212 153.19 99.3246C153.549 98.9173 154.067 99.2808 153.968 99.7604Z" fill="black"/>
<path d="M153.339 99.587C153.331 99.6266 153.319 99.6651 153.304 99.7024L153.369 99.5466C153.355 99.5808 153.336 99.613 153.314 99.6428L153.416 99.5108C153.396 99.5356 153.375 99.5577 153.35 99.5773L153.482 99.4753C153.457 99.4945 153.43 99.5102 153.401 99.5226L153.556 99.4568C153.526 99.4693 153.494 99.4777 153.461 99.4824L153.635 99.4591C153.593 99.4645 153.552 99.464 153.511 99.4586L153.684 99.4819C153.636 99.475 153.589 99.4617 153.544 99.4429L153.7 99.5086C153.654 99.489 153.611 99.4641 153.572 99.4342L153.704 99.5361C153.667 99.5073 153.633 99.4744 153.604 99.4372L153.706 99.5692C153.683 99.5386 153.664 99.5059 153.648 99.4708L153.714 99.6266C153.7 99.5931 153.69 99.5584 153.685 99.5224L153.708 99.6958C153.704 99.6626 153.704 99.6296 153.708 99.5964L153.685 99.7698C153.69 99.7315 153.7 99.6947 153.715 99.6591L153.649 99.8149C153.669 99.7691 153.695 99.727 153.725 99.6876L153.623 99.8196C153.657 99.7759 153.696 99.7364 153.74 99.7023L153.608 99.8043C153.64 99.7807 153.673 99.7607 153.709 99.7448L153.554 99.8105C153.587 99.7967 153.621 99.787 153.656 99.7814L153.483 99.8047C153.519 99.7999 153.556 99.7997 153.592 99.8044L153.419 99.7812C153.455 99.7865 153.489 99.7962 153.522 99.8101L153.366 99.7444C153.399 99.7591 153.43 99.7774 153.459 99.7993L153.327 99.6973C153.359 99.7221 153.387 99.7501 153.412 99.7815L153.31 99.6495C153.337 99.685 153.359 99.723 153.376 99.764L153.311 99.6082C153.328 99.6516 153.34 99.6963 153.347 99.7427L153.324 99.5693C153.33 99.6193 153.329 99.6688 153.323 99.7187L153.346 99.5453C153.344 99.5593 153.342 99.5732 153.339 99.587C153.312 99.6737 153.308 99.7604 153.328 99.8471C153.332 99.9339 153.357 100.015 153.405 100.09C153.446 100.166 153.502 100.227 153.573 100.273C153.636 100.33 153.71 100.369 153.795 100.389C153.962 100.427 154.149 100.419 154.297 100.324C154.434 100.235 154.564 100.099 154.597 99.9338C154.614 99.8466 154.628 99.7565 154.632 99.6676C154.636 99.5779 154.618 99.4818 154.605 99.3959C154.587 99.28 154.537 99.1675 154.484 99.0649C154.431 98.9659 154.359 98.8711 154.276 98.7964C154.217 98.7437 154.153 98.694 154.087 98.6512C154.018 98.6071 153.934 98.5775 153.861 98.549C153.835 98.539 153.809 98.5309 153.782 98.5259C153.701 98.5111 153.61 98.4935 153.525 98.4964C153.336 98.5028 153.202 98.5458 153.034 98.6261C153.004 98.6404 152.976 98.6583 152.949 98.6779C152.878 98.7302 152.798 98.7873 152.736 98.8546C152.664 98.9339 152.592 99.0207 152.541 99.1165C152.495 99.2054 152.447 99.3032 152.43 99.4037C152.416 99.4792 152.403 99.5573 152.401 99.6342C152.398 99.7102 152.417 99.8032 152.427 99.8692C152.442 99.9636 152.487 100.056 152.527 100.14C152.567 100.225 152.633 100.302 152.691 100.371C152.718 100.404 152.748 100.432 152.781 100.458C152.856 100.518 152.932 100.583 153.019 100.625C153.2 100.711 153.374 100.769 153.579 100.767C153.657 100.767 153.737 100.752 153.814 100.739C153.837 100.736 153.859 100.73 153.881 100.723C154.051 100.665 154.141 100.609 154.277 100.496C154.355 100.43 154.419 100.344 154.47 100.256C154.512 100.185 154.541 100.105 154.57 100.028C154.582 99.9974 154.59 99.9658 154.597 99.9338C154.624 99.8471 154.628 99.7603 154.609 99.6737C154.605 99.5868 154.579 99.506 154.531 99.4311C154.49 99.3551 154.434 99.2941 154.363 99.2482C154.3 99.1905 154.226 99.1516 154.142 99.1314C153.975 99.0934 153.787 99.1016 153.639 99.1972C153.501 99.2862 153.375 99.4211 153.339 99.587Z" fill="black"/>
<path d="M146.261 99.3522C146.105 100.107 144.957 99.513 145.483 98.9164C145.841 98.5091 146.36 98.8726 146.261 99.3522Z" fill="black"/>
<path d="M145.632 99.1788C145.624 99.2184 145.612 99.2569 145.597 99.2942L145.662 99.1384C145.647 99.1726 145.629 99.2048 145.607 99.2346L145.709 99.1026C145.689 99.1274 145.668 99.1495 145.643 99.1691L145.775 99.0671C145.75 99.0863 145.723 99.102 145.694 99.1144L145.849 99.0486C145.819 99.0611 145.787 99.0695 145.754 99.0742L145.928 99.0509C145.886 99.0563 145.845 99.0558 145.804 99.0504L145.977 99.0737C145.929 99.0668 145.882 99.0535 145.837 99.0346L145.993 99.1004C145.947 99.0808 145.904 99.0559 145.865 99.0259L145.997 99.1279C145.96 99.0991 145.926 99.0662 145.897 99.0289L145.999 99.161C145.976 99.1304 145.956 99.0977 145.941 99.0626L146.007 99.2184C145.993 99.1849 145.983 99.1502 145.978 99.1142L146.001 99.2876C145.997 99.2544 145.997 99.2214 146.001 99.1881L145.978 99.3616C145.983 99.3233 145.993 99.2865 146.008 99.2509L145.942 99.4067C145.962 99.3609 145.988 99.3188 146.018 99.2794L145.916 99.4114C145.95 99.3677 145.989 99.3282 146.033 99.2941L145.901 99.3961C145.933 99.3725 145.966 99.3525 146.002 99.3366L145.847 99.4023C145.88 99.3885 145.914 99.3788 145.949 99.3732L145.776 99.3965C145.812 99.3917 145.849 99.3915 145.885 99.3962L145.712 99.373C145.747 99.3783 145.782 99.388 145.815 99.4019L145.659 99.3362C145.692 99.3509 145.723 99.3692 145.752 99.3911L145.62 99.2891C145.652 99.3139 145.68 99.3419 145.705 99.3733L145.603 99.2413C145.63 99.2768 145.652 99.3148 145.669 99.3558L145.604 99.2C145.621 99.2434 145.633 99.2881 145.64 99.3345L145.616 99.1611C145.623 99.2111 145.622 99.2606 145.616 99.3105L145.639 99.1371C145.637 99.1511 145.635 99.165 145.632 99.1788C145.605 99.2655 145.601 99.3522 145.621 99.4389C145.625 99.5257 145.65 99.6065 145.698 99.6814C145.739 99.7574 145.795 99.8184 145.866 99.8644C145.929 99.922 146.003 99.961 146.088 99.9811C146.255 100.019 146.442 100.011 146.59 99.9154C146.727 99.8272 146.857 99.691 146.89 99.5256C146.907 99.4384 146.921 99.3483 146.925 99.2594C146.929 99.1697 146.91 99.0736 146.898 98.9877C146.88 98.8718 146.83 98.7593 146.777 98.6567C146.724 98.5577 146.652 98.4628 146.569 98.3882C146.509 98.3355 146.446 98.2858 146.38 98.243C146.311 98.1989 146.227 98.1693 146.154 98.1408C146.128 98.1307 146.102 98.1227 146.075 98.1177C145.994 98.1029 145.903 98.0853 145.818 98.0882C145.629 98.0946 145.495 98.1376 145.327 98.2179C145.297 98.2322 145.269 98.2501 145.242 98.2697C145.171 98.322 145.091 98.3791 145.029 98.4464C144.957 98.5257 144.885 98.6125 144.834 98.7083C144.788 98.7972 144.74 98.895 144.723 98.9955C144.709 99.071 144.696 99.1491 144.694 99.226C144.691 99.302 144.71 99.395 144.72 99.461C144.735 99.5554 144.78 99.6478 144.82 99.7319C144.86 99.8164 144.926 99.8938 144.984 99.9632C145.011 99.9956 145.041 100.024 145.074 100.05C145.149 100.109 145.224 100.175 145.312 100.217C145.493 100.303 145.667 100.361 145.872 100.359C145.95 100.359 146.03 100.344 146.107 100.331C146.13 100.327 146.152 100.322 146.174 100.315C146.344 100.256 146.434 100.201 146.57 100.088C146.648 100.022 146.712 99.9356 146.763 99.8482C146.804 99.7767 146.834 99.6967 146.863 99.6199C146.875 99.5892 146.883 99.5576 146.89 99.5256C146.917 99.4389 146.921 99.3521 146.902 99.2655C146.898 99.1786 146.872 99.0978 146.824 99.0229C146.783 98.9469 146.727 98.8859 146.656 98.84C146.593 98.7823 146.519 98.7434 146.435 98.7232C146.268 98.6852 146.08 98.6934 145.932 98.789C145.794 98.878 145.668 99.0129 145.632 99.1788Z" fill="black"/>
<path d="M147.602 99.5054C147.652 99.6474 147.717 99.8189 147.699 99.9594C147.689 100.035 147.641 100.119 147.579 100.19C147.383 100.414 147.084 100.558 146.78 100.66C146.053 100.904 145.278 100.959 144.548 101.194C143.731 101.457 142.927 101.976 142.856 102.914C142.785 103.843 143.65 104.375 144.39 104.705C145.281 105.101 146.245 105.296 147.221 105.24C147.573 105.22 147.873 104.955 147.873 104.588C147.873 104.251 147.575 103.916 147.221 103.936C146.323 103.987 145.43 103.811 144.638 103.375C144.483 103.29 144.245 103.19 144.153 103.036C144.183 103.087 144.154 102.922 144.155 102.992C144.141 103.035 144.146 103.015 144.169 102.932C144.141 102.957 144.151 102.935 144.198 102.868C144.349 102.603 144.75 102.49 145.064 102.401C145.969 102.143 146.913 102.083 147.766 101.652C148.171 101.448 148.559 101.137 148.783 100.736C149.061 100.239 149.044 99.6842 148.859 99.1586C148.743 98.8264 148.414 98.6051 148.057 98.7031C147.735 98.7915 147.484 99.1716 147.602 99.5054Z" fill="black"/>
<path d="M147.062 115.494C147.062 115.494 156.938 116.847 160.826 113.535C160.354 116.443 154.635 119.768 154.635 119.768C154.635 119.768 153.802 116.946 151.67 116.62C149.538 116.295 147.062 115.494 147.062 115.494Z" fill="black"/>
<path d="M146.803 116.435C148.084 116.609 149.378 116.698 150.67 116.731C153.083 116.792 155.575 116.671 157.911 116.023C159.223 115.66 160.469 115.102 161.518 114.224C160.973 113.907 160.428 113.589 159.883 113.272C159.797 113.752 159.747 113.85 159.532 114.226C159.321 114.598 159.128 114.855 158.898 115.124C158.279 115.848 157.562 116.488 156.819 117.082C156.068 117.681 155.072 118.378 154.141 118.92C154.62 119.115 155.099 119.31 155.578 119.505C155.177 118.164 154.295 116.76 153.046 116.075C152.536 115.796 152.022 115.697 151.458 115.595C150.806 115.479 150.16 115.332 149.518 115.17C148.781 114.984 148.046 114.781 147.323 114.548C146.122 114.161 145.607 116.049 146.803 116.435C147.41 116.63 148.025 116.803 148.642 116.965C149.244 117.124 149.85 117.268 150.461 117.391C150.927 117.485 151.549 117.531 151.933 117.697C152.52 117.952 152.931 118.478 153.273 119.083C153.348 119.217 153.418 119.353 153.484 119.492C153.516 119.558 153.545 119.625 153.575 119.692C153.466 119.448 153.554 119.638 153.572 119.688C153.613 119.8 153.657 119.911 153.692 120.025C153.872 120.628 154.573 120.933 155.129 120.61C156.238 119.963 157.29 119.201 158.289 118.396C159.719 117.242 161.429 115.695 161.77 113.792C161.945 112.811 160.903 112.197 160.134 112.84C159.495 113.376 158.529 113.803 157.6 114.077C156.484 114.406 155.411 114.575 154.325 114.672C152.336 114.85 150.325 114.815 148.337 114.646C148.038 114.621 147.739 114.592 147.44 114.558C147.309 114.544 146.766 114.472 147.323 114.548C146.8 114.477 146.273 114.674 146.119 115.231C145.994 115.687 146.276 116.363 146.803 116.435Z" fill="black"/>
<path d="M239.91 199.217C240.441 203.355 240.971 207.493 241.502 211.631C241.577 212.215 241.652 212.799 241.727 213.382C241.794 213.906 242.128 214.361 242.705 214.361C243.182 214.361 243.751 213.91 243.684 213.382C243.153 209.244 242.622 205.106 242.091 200.968C242.016 200.384 241.941 199.8 241.866 199.217C241.799 198.693 241.465 198.238 240.888 198.238C240.412 198.238 239.842 198.689 239.91 199.217Z" fill="black"/>
<path d="M145.798 196.04C143.878 200.299 141.041 204.007 137.261 206.779C133.736 209.364 129.693 211.122 125.594 212.578C121.321 214.096 116.952 215.323 112.672 216.817C107.643 218.573 102.785 220.808 98.1595 223.445C88.504 228.949 79.9845 236.137 72.2121 244.037C64.4525 251.925 57.3669 260.427 50.8431 269.359C47.6507 273.73 44.5848 278.193 41.5789 282.694C38.6546 287.073 36.2022 292.26 31.161 294.525C26.0027 296.843 20.3928 294.62 15.0237 295.843C11.2381 296.705 8.51389 300.317 8.64937 304.186C8.76741 307.557 11.1826 310.26 13.2215 312.744C15.6047 315.647 18.2376 318.342 21.0034 320.881C24.6478 324.227 28.5336 327.309 32.5431 330.204C34.9948 331.975 37.4974 333.674 40.039 335.313C40.8002 335.804 41.2042 336.034 42.088 335.861C42.5676 335.767 43.0363 335.624 43.4942 335.454C48.4755 333.609 52.7215 329.548 56.4992 325.954C61.593 321.109 66.3116 315.869 70.8806 310.53C74.3939 306.426 77.8139 302.24 81.1439 297.985C84.5626 293.617 87.945 289.248 91.7342 285.183C99.3296 277.035 107.925 269.811 117.286 263.77C126.857 257.594 137.204 253.235 147.692 248.894C157.797 244.71 168.232 240.261 176.558 232.99C183.358 227.052 188.077 219.224 190.311 210.488C191.578 205.535 192.02 200.448 192.185 195.351C192.393 188.929 192.167 182.494 191.506 176.103C190.954 170.77 190.218 165.382 188.556 160.266C187.099 155.78 184.797 150.815 181.086 147.734C179.716 146.598 177.522 145.577 175.761 146.404C173.807 147.321 173.656 149.956 175.075 151.419C176.759 153.155 179.294 153.03 181.515 153.266C183.97 153.528 186.402 154.027 188.772 154.718C198.039 157.418 206.178 163.185 212.461 170.439C215.583 174.043 218.227 178.034 220.403 182.274L220.754 180.935C219.578 181.791 218.401 182.647 217.224 183.503C215.855 184.499 214.317 185.392 213.649 187.033C212.594 189.628 214.012 192.642 216.697 193.464C218.496 194.016 220.034 193.273 221.644 192.584C223.217 191.911 224.79 191.239 226.362 190.566L224.925 189.461C223.256 195.547 221.586 201.632 219.917 207.717C219.22 210.259 217.743 213.474 220.254 215.53C222.36 217.254 225.609 216.34 226.553 213.804C226.929 212.792 227.148 211.701 227.433 210.663C228.363 207.273 229.293 203.883 230.223 200.494C229.582 200.407 228.941 200.32 228.301 200.233C228.121 204.579 227.745 208.96 227.759 213.308C227.766 215.235 228.978 217.013 230.915 217.446C232.965 217.903 235.092 216.598 235.641 214.577C235.843 213.832 235.791 213.002 235.807 212.238C235.836 210.884 235.864 209.53 235.893 208.176C235.946 205.624 236 203.073 236.054 200.522H234.097C234.504 203.991 234.912 207.461 235.319 210.931C235.5 212.478 235.513 214.104 236.699 215.282C239.036 217.605 243.057 216.148 243.493 212.934L241.705 213.168C243.375 216.459 248.364 216.038 249.214 212.339C249.491 211.133 249.114 209.756 248.921 208.552C248.185 203.949 247.449 199.345 246.714 194.741C245.413 186.605 244.647 178.198 242.289 170.297C237.451 154.085 226.741 140.196 212.575 131.011C208.815 128.573 204.783 126.492 200.51 125.114C196.532 123.83 192.627 123.812 188.496 123.698C184.274 123.582 180.149 122.612 177.218 119.332C174.993 116.842 175.043 113.211 174.33 110.117C173.38 105.999 172.131 101.851 169.912 98.2219C167.765 94.7111 164.625 91.763 160.976 89.8537C157.542 88.0569 153.235 87.0199 149.465 88.3887C145.971 89.6575 143.313 93.0643 141.769 96.3272C139.886 100.308 139.402 104.867 140.418 109.155C141.159 112.288 142.811 114.484 145.825 115.674C148.319 116.658 151.615 117.064 152.846 119.829C153.499 121.294 153.471 122.978 154.386 124.346C155.084 125.391 156.553 126.518 157.748 125.512C158.853 124.582 158.399 122.924 157.232 122.292C155.488 121.348 153.142 122.339 151.408 122.803C146.664 124.074 141.834 125.181 137.151 126.664C132.725 128.065 128.571 130.179 124.206 131.744C120.325 133.135 116.361 133.93 112.228 133.813C104.145 133.584 96.3443 130.398 89.6002 126.095C86.1084 123.867 82.8473 121.288 79.8645 118.414C77.0118 115.666 74.6673 112.585 72.1674 109.532C70.3557 107.318 68.4228 105.017 66.1862 103.217C64.9909 102.255 63.7787 101.313 62.5752 100.362C58.8226 97.3949 55.07 94.428 51.3175 91.4611C50.4657 90.7877 49.624 90.0987 48.7609 89.4398C46.1027 87.4105 42.005 89.0069 42.1058 92.5828C42.1647 94.674 43.7835 95.7204 45.241 96.8727C47.1066 98.3477 48.9722 99.8227 50.8378 101.298C51.9524 102.179 53.0669 103.06 54.1815 103.941C55.159 104.714 56.5527 103.339 55.5651 102.558C52.7635 100.343 49.9619 98.1277 47.1603 95.9126C46.1899 95.1454 44.2986 94.0995 44.0916 92.7686C43.7998 90.8917 45.9119 89.8589 47.3856 90.8299C47.6275 90.9893 47.8487 91.196 48.0756 91.3754C51.1849 93.8337 54.2941 96.2919 57.4033 98.7502C59.9477 100.762 62.5854 102.696 65.0547 104.8C67.5861 106.956 69.8079 109.622 71.8411 112.241C74.0242 115.054 76.2981 117.735 78.8883 120.186C84.2782 125.287 90.5512 129.538 97.4112 132.394C103.989 135.132 111.224 136.513 118.316 135.359C122.38 134.698 126.209 133.123 129.982 131.534C133.98 129.849 137.946 128.435 142.138 127.312C144.469 126.688 146.8 126.063 149.131 125.439C150.219 125.147 151.307 124.856 152.395 124.565C153.383 124.3 154.476 123.869 155.513 123.882C155.687 123.884 156.717 124.169 156.739 123.963C156.736 123.994 155.944 123.151 155.917 123.105C155.519 122.427 155.382 121.612 155.197 120.858C154.846 119.431 154.329 118.176 153.292 117.105C151.508 115.263 149.009 114.776 146.697 113.92C145.546 113.494 144.436 112.893 143.668 111.909C142.486 110.395 142.099 108.21 141.924 106.349C141.531 102.169 142.643 97.9547 145.088 94.5381C146.169 93.0283 147.522 91.524 149.181 90.6432C150.758 89.8063 152.62 89.6327 154.375 89.7872C162.833 90.5311 168.685 98.1949 171.098 105.675C172.195 109.075 172.683 112.544 173.468 116.01C174.172 119.124 176.099 121.441 178.763 123.157C181.914 125.186 185.577 125.609 189.241 125.67C193.18 125.736 196.828 125.915 200.594 127.2C208.518 129.905 215.668 134.995 221.749 140.665C227.43 145.962 232.143 152.249 235.702 159.15C239.156 165.849 241.403 173.054 242.528 180.499C242.957 183.342 243.382 186.187 243.83 189.028C244.962 196.205 246.124 203.378 247.271 210.553C247.317 210.841 247.373 211.117 247.367 211.409C247.322 213.769 244.388 214.138 243.394 212.18C243.041 211.483 241.72 211.572 241.606 212.414C241.265 214.928 237.937 215.168 237.474 212.624C237.235 211.311 237.16 209.945 237.004 208.62C236.687 205.921 236.371 203.221 236.054 200.522C235.911 199.302 234.125 199.229 234.097 200.522C234.01 204.678 233.922 208.834 233.834 212.99C233.814 213.973 233.642 214.94 232.614 215.404C230.952 216.155 229.686 214.644 229.724 213.104C229.778 210.953 229.903 208.801 229.992 206.651C230.08 204.512 230.169 202.373 230.257 200.234C230.303 199.121 228.625 198.92 228.336 199.974C227.624 202.568 226.912 205.162 226.201 207.756C225.797 209.228 225.393 210.701 224.989 212.173C224.917 212.435 224.862 212.708 224.772 212.964C224.316 214.268 222.811 214.969 221.594 214.106C220.482 213.317 220.726 212.165 221.024 211.08C221.344 209.914 221.663 208.749 221.983 207.583C222.941 204.091 223.899 200.598 224.857 197.106C225.509 194.731 226.16 192.357 226.812 189.982C227.059 189.08 226.119 188.559 225.374 188.877C223.97 189.477 222.566 190.078 221.162 190.678C219.408 191.429 217.328 192.545 215.828 190.595C214.09 188.335 216.27 186.605 217.939 185.391C219.207 184.469 220.474 183.547 221.742 182.625C222.187 182.301 222.355 181.797 222.093 181.286C217.866 173.052 211.814 165.758 204.324 160.296C200.608 157.586 196.53 155.38 192.212 153.793C189.998 152.979 187.72 152.338 185.405 151.889C183.134 151.448 180.806 151.439 178.546 151.018C177.55 150.832 175.602 150.106 176.116 148.72C176.535 147.59 178.093 148.182 178.836 148.568C180.911 149.649 182.459 152.058 183.634 154.006C186.241 158.323 187.596 163.272 188.475 168.202C189.503 173.973 190.009 179.861 190.215 185.716C190.421 191.542 190.396 197.466 189.683 203.26C188.607 212.01 185.407 220.458 179.599 227.173C172.801 235.032 163.31 239.969 153.95 244.12C143.933 248.561 133.566 252.21 123.946 257.51C114.615 262.651 105.924 268.973 98.0644 276.16C91.9396 281.762 86.4232 287.92 81.3833 294.508C79.223 297.331 76.6739 300.519 74.2835 303.432C70.1291 308.495 65.8553 313.467 61.3712 318.242C57.1373 322.75 52.7175 327.299 47.6569 330.891C45.9902 332.075 44.1791 333.269 42.1901 333.825C42.0112 333.875 41.7548 333.978 41.5674 333.974C41.4935 333.973 41.3971 334.034 41.3264 334.017C41.6926 334.107 40.9925 333.591 41.0261 333.623C40.4937 333.108 39.6629 332.738 39.037 332.323C38.3972 331.898 37.76 331.47 37.1257 331.037C34.8378 329.477 32.5868 327.861 30.3861 326.18C24.1601 321.423 18.1677 316.09 13.3966 309.838C12.46 308.611 11.3591 307.308 10.8912 305.819C10.3226 304.009 10.6138 302.031 11.638 300.439C14.482 296.02 20.9244 297.561 25.293 297.656C29.9273 297.755 34.5227 295.69 37.5233 292.156C39.1744 290.211 40.4563 287.918 41.8629 285.795C43.3272 283.584 44.8032 281.381 46.2988 279.191C52.2637 270.459 58.5824 261.972 65.5757 254.031C72.8172 245.809 80.6225 237.927 89.4757 231.431C97.9275 225.23 107.13 220.605 117.102 217.405C124.993 214.872 133.338 212.628 139.841 207.229C143.162 204.471 145.717 200.953 147.487 197.027C148 195.889 146.315 194.893 145.797 196.04L145.798 196.04Z" fill="black"/>
<path d="M55.4187 102.462C53.78 101.207 52.1412 99.9507 50.5025 98.6949C48.4298 97.1064 46.357 95.5179 44.2843 93.9295C43.0035 92.948 41.4342 92.6081 39.9178 93.2993C37.4815 94.4098 36.9177 97.5998 38.6103 99.5875C39.0888 100.149 39.7777 100.586 40.3518 101.04C41.4751 101.928 42.5984 102.816 43.7217 103.704C45.6722 105.246 47.6196 106.792 49.573 108.33C49.6086 108.358 49.6442 108.387 49.6797 108.415C50.0938 108.742 50.6591 108.819 51.0633 108.415C51.4033 108.075 51.48 107.361 51.0633 107.031C47.5817 104.278 44.1001 101.526 40.6185 98.7731C40.3077 98.5273 40.0115 98.2769 39.814 97.9256C39.4091 97.2058 39.4805 96.2927 40.012 95.6355C40.5886 94.9225 41.5604 94.6936 42.3764 95.0156C42.6865 95.1379 42.9484 95.352 43.2112 95.5534C45.1101 97.0086 47.009 98.4638 48.9078 99.919C50.749 101.33 52.5901 102.741 54.4312 104.152C54.8509 104.474 55.5265 104.217 55.7697 103.801C56.0645 103.297 55.8394 102.785 55.4187 102.462Z" fill="black"/>
<path d="M51.1511 107.127C49.5124 105.871 47.8737 104.615 46.2349 103.359C44.1622 101.77 42.0894 100.182 40.0167 98.5936C38.7359 97.612 37.1666 97.2722 35.6502 97.9634C33.2139 99.0739 32.6501 102.264 34.3427 104.252C34.8213 104.814 35.5101 105.25 36.0842 105.704C37.2075 106.592 38.3308 107.48 39.4542 108.368C41.4046 109.91 43.352 111.456 45.3054 112.994C45.341 113.022 45.3766 113.051 45.4122 113.079C45.8262 113.406 46.3916 113.483 46.7957 113.079C47.1358 112.739 47.2125 112.025 46.7957 111.695C43.3141 108.942 39.8325 106.19 36.3509 103.437C36.0401 103.191 35.7439 102.941 35.5464 102.59C35.1415 101.87 35.213 100.957 35.7444 100.3C36.321 99.5865 37.2928 99.3576 38.1089 99.6796C38.4189 99.8019 38.6809 100.016 38.9437 100.217C40.8425 101.673 42.7414 103.128 44.6402 104.583C46.4814 105.994 48.3225 107.405 50.1636 108.816C50.5834 109.138 51.2589 108.881 51.5022 108.465C51.7969 107.961 51.5718 107.449 51.1511 107.127Z" fill="black"/>
<path d="M46.6437 111.597C43.1443 109.528 39.7015 107.288 36.1164 105.372C34.2287 104.364 31.8406 104.88 30.6914 106.745C29.5503 108.597 30.1885 111.034 31.9602 112.23C33.55 113.303 35.3169 114.172 36.9783 115.128C39.1611 116.383 41.344 117.638 43.5268 118.894C43.5954 118.933 43.7093 119.032 43.7883 119.044C44.0325 119.08 43.5086 118.521 43.603 118.925C43.6981 119.333 44.0252 119.778 44.2145 120.142C44.562 120.81 44.9263 121.47 45.3071 122.12C46.5987 124.324 48.0821 126.415 49.7169 128.378C52.5182 131.741 55.7112 134.81 58.6439 138.062C62.1117 141.907 65.7121 145.445 69.9086 148.503C78.326 154.636 88.2222 159.021 98.3691 161.336C103.91 162.601 109.599 163.194 115.281 162.966C118.439 162.839 121.635 162.606 124.707 161.821C127.703 161.057 131.047 159.617 132.425 156.64C133.165 155.04 133.471 152.892 132.122 151.513C130.587 149.945 128.153 150.754 127.063 152.421C125.85 154.276 125.83 157.157 126.155 159.28C126.497 161.508 127.274 163.636 127.734 165.839C128.272 168.418 128.36 171.173 128.407 173.801C128.457 176.626 128.308 179.468 127.801 182.251C126.94 186.986 125.009 191.212 121.999 194.959C119.213 198.426 115.913 201.427 112.886 204.674C109.696 208.097 107.101 211.782 105.094 216.016C102.774 220.909 101.126 226.118 100.267 231.466C98.6341 241.63 99.8602 252.018 103.871 261.502C105.764 265.978 108.222 270.195 111.183 274.05C114.019 277.741 117.293 281.317 121.128 283.992C128.333 289.019 137.54 291.052 146.182 291.596C155.589 292.187 164.928 290.401 173.802 287.333C179.004 285.535 184.053 283.27 188.85 280.569C192.64 278.435 196.182 275.552 200.537 274.664C202.692 274.225 204.751 274.552 206.53 275.792C207.806 276.682 208.903 278.089 210.107 279.197C211.348 280.339 212.819 281.112 214.543 280.719C216.862 280.189 219.081 278.048 220.127 275.997C223.267 269.839 219.367 262.085 216.114 256.811C212.357 250.72 207.548 244.987 201.376 241.237C197.068 238.62 192.171 237.28 187.334 239.229C182.239 241.282 177.427 244.082 172.486 246.473C167.614 248.831 162.619 250.97 157.347 252.261C156.124 252.561 156.642 254.448 157.867 254.148C168.173 251.623 177.251 245.969 186.803 241.579C189.158 240.496 191.502 239.882 194.09 240.36C196.341 240.776 198.442 241.744 200.388 242.926C203.423 244.77 206.129 247.133 208.482 249.785C210.641 252.217 212.586 254.845 214.305 257.605C216.13 260.538 217.754 263.668 218.662 267.016C219.391 269.702 219.698 272.797 218.272 275.317C217.633 276.445 216.676 277.379 215.601 278.094C214.953 278.526 214.215 278.87 213.67 278.877C213.09 278.885 212.825 278.785 212.22 278.404C211.957 278.238 211.879 278.165 211.558 277.876C211.276 277.62 211.007 277.348 210.742 277.074C209.539 275.836 208.364 274.548 206.85 273.678C200.959 270.29 194.555 274.936 189.615 277.867C180.779 283.109 171.03 286.84 160.928 288.734C152.643 290.287 144.059 290.074 135.856 288.11C131.808 287.141 127.831 285.744 124.224 283.645C120.5 281.479 117.387 278.42 114.595 275.169C108.577 268.159 104.345 259.609 102.503 250.552C100.476 240.589 101.566 230.13 105.21 220.667C106.901 216.277 109.108 212.074 112.138 208.458C114.83 205.246 117.922 202.404 120.773 199.338C123.603 196.294 126.196 192.985 127.829 189.132C129.821 184.43 130.428 179.21 130.368 174.138C130.338 171.529 130.175 168.883 129.796 166.3C129.487 164.2 128.761 162.185 128.301 160.117C128.092 159.176 127.919 158.219 127.948 157.252C127.985 156.057 128.02 154.41 128.753 153.409C129.186 152.816 130.113 152.257 130.739 152.897C131.361 153.534 131.096 154.651 130.833 155.39C129.846 158.169 126.594 159.343 123.985 159.985C121.091 160.698 118.102 160.899 115.133 161.015C104.578 161.427 94.0571 158.894 84.4529 154.603C79.9725 152.602 75.6649 150.196 71.6578 147.36C67.5938 144.484 64.026 141.129 60.7055 137.432C57.976 134.393 55.1151 131.478 52.3709 128.455C50.692 126.606 49.1757 124.617 47.8364 122.508C47.2022 121.51 46.6074 120.486 46.054 119.441C45.7151 118.8 45.437 117.838 44.8357 117.389C44.3694 117.041 43.7894 116.787 43.2855 116.497L39.8871 114.543C37.8109 113.349 35.7346 112.155 33.6583 110.961C32.7801 110.456 31.9725 109.809 32.0657 108.657C32.1974 107.03 33.9633 106.403 35.2597 107.139C37.175 108.226 39.0542 109.383 40.9498 110.504C42.5185 111.432 44.0873 112.359 45.6561 113.287C46.7425 113.929 47.728 112.238 46.6437 111.597Z" fill="black"/>
<path d="M64.4645 106.36C62.1688 108.13 59.8723 109.899 57.5774 111.669C56.3471 112.619 55.6332 114.078 55.829 115.647C56.0312 117.269 57.0999 118.601 58.6232 119.182C60.4574 119.881 62.1359 118.939 63.7918 118.252C65.4126 117.579 67.0334 116.906 68.6542 116.234C69.1419 116.031 69.49 115.585 69.3375 115.03C69.2109 114.569 68.6251 114.143 68.134 114.347C66.8873 114.864 65.6406 115.382 64.3938 115.899C63.5818 116.236 62.7698 116.573 61.9578 116.91C61.4838 117.107 60.9792 117.37 60.4707 117.458C59.4565 117.634 58.3515 117.07 57.9264 116.058C57.6993 115.517 57.6979 114.926 57.8791 114.374C57.9594 114.13 58.0914 113.894 58.251 113.692C58.3659 113.546 58.5088 113.428 58.6434 113.302C58.6456 113.3 58.5164 113.399 58.5725 113.353C59.6387 112.48 60.7601 111.667 61.8514 110.825C63.0516 109.9 64.2518 108.975 65.452 108.05C65.8697 107.728 66.0939 107.208 65.8029 106.711C65.5625 106.3 64.8856 106.036 64.4645 106.36Z" fill="black"/>
<path d="M183.885 102.348C183.761 102.504 183.634 102.658 183.505 102.809C180.341 106.507 175.451 110.042 174.627 115.149C173.987 113.464 172.896 111.969 171.463 110.874C170.913 110.455 170.284 110.053 170.044 109.404C169.495 107.922 170.403 105.735 170.131 104.084C169.91 102.744 168.895 101.361 167.546 100.963C164.968 100.202 163.82 103.639 163.478 105.588C163.953 102.877 163.593 100.026 162.459 97.5186C161.608 95.6354 160.28 93.9076 158.464 92.9198C156.039 91.6001 153.102 91.7497 150.362 92.0907C149.261 92.2277 148.147 92.3901 147.047 92.2465C145.947 92.1028 144.839 91.606 144.223 90.683C142.934 88.7512 144.093 85.7008 145.097 83.8461C146.398 81.4409 148.408 79.3654 150.456 77.5762C157.11 71.7626 166.022 69.6807 174.337 73.064C180.786 75.6883 186.081 81.4257 187.392 88.2643C188.334 93.1803 186.993 98.4415 183.885 102.348Z" fill="black"/>
<path d="M183.195 101.656C179.824 105.854 174.644 109.21 173.684 114.888H175.571C174.817 112.947 173.616 111.294 171.957 110.029C171.665 109.806 171.311 109.587 171.09 109.288C170.892 109.021 170.854 108.681 170.845 108.356C170.82 107.403 171.037 106.46 171.125 105.515C171.307 103.558 170.565 101.646 168.899 100.526C167.478 99.5705 165.653 99.7017 164.464 100.948C163.357 102.108 162.814 103.78 162.536 105.327C163.165 105.5 163.794 105.674 164.423 105.847C165.045 102.16 164.375 98.1343 162.179 95.048C161.132 93.5775 159.791 92.378 158.115 91.6778C156.421 90.9701 154.551 90.8129 152.732 90.8966C151.816 90.9387 150.906 91.0443 149.996 91.1576C149.046 91.276 148.048 91.4184 147.093 91.269C146.393 91.1595 145.653 90.8816 145.181 90.3299C144.765 89.8435 144.632 89.2058 144.632 88.5791C144.633 87.0986 145.248 85.6216 145.943 84.3389C146.804 82.7505 147.951 81.3551 149.217 80.0741C151.648 77.6137 154.449 75.5344 157.641 74.1686C160.646 72.8827 163.932 72.276 167.197 72.4426C173.544 72.7665 179.688 76.1602 183.351 81.3582C185.118 83.8665 186.365 86.812 186.642 89.8866C186.945 93.243 186.216 96.6553 184.562 99.5923C184.157 100.311 183.705 101.008 183.195 101.656C182.868 102.07 182.79 102.635 183.195 103.039C183.534 103.379 184.249 103.457 184.578 103.039C186.879 100.12 188.279 96.6289 188.602 92.9214C188.905 89.4382 188.116 85.9507 186.536 82.8471C183.459 76.804 177.419 72.3497 170.811 70.957C163.649 69.4479 156.338 71.6004 150.681 76.1186C147.845 78.3836 145.144 81.1731 143.676 84.5376C142.97 86.1557 142.446 87.9463 142.79 89.7201C143.136 91.502 144.632 92.7419 146.358 93.1146C148.357 93.5458 150.4 92.9928 152.403 92.8708C154.169 92.7634 156.064 92.8201 157.684 93.6151C160.909 95.1979 162.509 99.0862 162.687 102.504C162.736 103.447 162.693 104.396 162.536 105.327C162.448 105.847 162.674 106.381 163.219 106.531C163.693 106.661 164.329 106.37 164.423 105.847C164.634 104.669 164.945 103.574 165.609 102.619C165.691 102.5 165.9 102.257 166.102 102.092C166.104 102.091 166.177 102.045 166.303 101.969C166.322 101.957 166.5 101.873 166.402 101.914C166.308 101.954 166.534 101.873 166.556 101.868C166.761 101.816 166.886 101.807 167.117 101.861C167.449 101.939 167.753 102.082 168.023 102.294C168.546 102.705 168.927 103.318 169.103 103.954C169.3 104.669 169.188 105.441 169.093 106.165C168.86 107.952 168.596 109.822 170.159 111.098C170.905 111.706 171.646 112.255 172.271 112.999C172.868 113.709 173.349 114.545 173.684 115.408C173.843 115.816 174.166 116.126 174.628 116.126C175.027 116.126 175.501 115.826 175.571 115.408C176.466 110.114 181.431 106.96 184.578 103.039C184.909 102.628 184.98 102.058 184.578 101.656C184.236 101.313 183.527 101.241 183.195 101.656Z" fill="black"/>
<path d="M144.61 96.6758C144.886 96.6447 145.164 96.6477 145.44 96.6836L145.266 96.6603C145.563 96.7019 145.851 96.7808 146.127 96.8973L145.972 96.8315C146.001 96.8442 146.03 96.8572 146.059 96.8705C146.223 96.9453 146.382 96.9859 146.562 96.9363C146.713 96.8946 146.877 96.7777 146.952 96.6366C147.032 96.4852 147.072 96.3018 147.017 96.134C146.968 95.9817 146.869 95.8135 146.718 95.7442C146.058 95.443 145.335 95.2897 144.61 95.3714C144.431 95.3915 144.28 95.4308 144.148 95.5624C144.035 95.6755 143.95 95.8611 143.957 96.0236C143.965 96.1923 144.02 96.3672 144.148 96.4848C144.268 96.5942 144.441 96.6947 144.61 96.6758Z" fill="black"/>
<path d="M151.842 96.9979C151.958 96.9527 152.076 96.9148 152.197 96.8873C152.25 96.8753 152.308 96.8716 152.359 96.856C152.207 96.902 152.274 96.8664 152.329 96.8608C152.357 96.858 152.384 96.8557 152.412 96.8538C152.536 96.8453 152.66 96.8458 152.784 96.8549C152.811 96.8569 152.839 96.8604 152.866 96.8622C152.95 96.8677 152.717 96.837 152.837 96.8577C152.898 96.8684 152.959 96.8794 153.02 96.8934C153.134 96.9197 153.247 96.9534 153.357 96.9942C153.379 97.0023 153.494 97.0483 153.395 97.0076C153.302 96.9698 153.393 97.0081 153.411 97.0169C153.468 97.0434 153.523 97.0717 153.577 97.1022C153.631 97.1326 153.684 97.165 153.736 97.1992C153.759 97.2144 153.781 97.23 153.804 97.2459C153.82 97.2575 153.898 97.3162 153.82 97.2567C153.737 97.1929 153.833 97.2689 153.851 97.2839C153.872 97.3018 153.892 97.3202 153.913 97.3388C153.963 97.3857 154.012 97.435 154.059 97.4857C154.291 97.7366 154.749 97.7385 154.981 97.4857C155.227 97.2172 155.229 96.831 154.981 96.5633C154.127 95.6412 152.673 95.2809 151.495 95.7401C151.332 95.8037 151.197 95.8833 151.105 96.0398C151.023 96.1796 150.989 96.3856 151.039 96.5424C151.139 96.8503 151.501 97.1305 151.842 96.9979Z" fill="black"/>
<path d="M150.021 108.993C150.115 108.984 150.213 108.977 150.303 108.944C150.459 108.888 150.552 108.835 150.677 108.724C150.818 108.598 150.896 108.437 150.962 108.265C151.012 108.132 151.027 107.984 151.039 107.844C151.046 107.757 151.044 107.67 151.034 107.583C151.006 107.321 150.961 107.07 150.818 106.842C150.757 106.744 150.683 106.644 150.593 106.569C150.446 106.446 150.341 106.384 150.159 106.318C149.944 106.241 149.695 106.255 149.477 106.304C149.31 106.341 149.141 106.417 149.003 106.52C148.822 106.655 148.649 106.809 148.549 107.018C148.501 107.119 148.451 107.225 148.434 107.336C148.403 107.531 148.4 107.643 148.438 107.84C148.461 107.96 148.515 108.081 148.581 108.184C148.657 108.302 148.749 108.417 148.86 108.506C148.989 108.611 149.118 108.705 149.269 108.777C149.497 108.885 149.761 109.005 150.021 108.993C150.193 108.985 150.358 108.926 150.482 108.802C150.595 108.689 150.68 108.503 150.673 108.341C150.665 108.172 150.61 107.997 150.482 107.88C150.358 107.766 150.194 107.68 150.021 107.689C149.995 107.69 149.97 107.689 149.944 107.685L150.117 107.709C150.025 107.693 149.937 107.657 149.851 107.621L150.007 107.686C149.884 107.634 149.765 107.571 149.659 107.488L149.791 107.59C149.733 107.545 149.68 107.495 149.635 107.437L149.737 107.569C149.707 107.528 149.681 107.485 149.661 107.439L149.727 107.595C149.709 107.553 149.697 107.509 149.691 107.464L149.714 107.638C149.709 107.595 149.709 107.552 149.715 107.509L149.692 107.683C149.698 107.636 149.711 107.591 149.729 107.547L149.664 107.703C149.686 107.651 149.714 107.604 149.748 107.559L149.646 107.691C149.689 107.636 149.738 107.587 149.794 107.544L149.662 107.646C149.718 107.604 149.779 107.568 149.844 107.54L149.688 107.605C149.75 107.579 149.815 107.561 149.881 107.551L149.708 107.574C149.763 107.567 149.819 107.566 149.874 107.573L149.701 107.549C149.748 107.556 149.795 107.568 149.839 107.587L149.683 107.521C149.722 107.538 149.758 107.559 149.791 107.584L149.659 107.482C149.697 107.511 149.73 107.545 149.76 107.583L149.658 107.451C149.694 107.499 149.723 107.552 149.747 107.608L149.681 107.452C149.716 107.536 149.736 107.625 149.748 107.715L149.725 107.542C149.741 107.66 149.743 107.78 149.728 107.898L149.752 107.725C149.742 107.794 149.726 107.862 149.7 107.927L149.766 107.771C149.749 107.81 149.729 107.846 149.704 107.88L149.806 107.748C149.786 107.772 149.765 107.793 149.741 107.813L149.873 107.711C149.85 107.727 149.826 107.741 149.8 107.752L149.956 107.687C149.928 107.698 149.899 107.705 149.869 107.71L150.042 107.686C150.035 107.687 150.028 107.688 150.021 107.689C149.931 107.685 149.847 107.704 149.769 107.745C149.689 107.771 149.619 107.816 149.559 107.88C149.446 107.993 149.361 108.178 149.368 108.341C149.376 108.509 149.431 108.684 149.559 108.802C149.68 108.913 149.851 109.009 150.021 108.993Z" fill="black"/>
<path d="M196.084 268.389C196.054 268.353 196.004 268.174 196.011 268.104C196.036 267.859 196.109 267.69 196.262 267.498C196.355 267.382 196.522 267.268 196.742 267.212C196.99 267.147 197.243 267.172 197.489 267.233C198.938 267.596 199.592 269.248 200.14 270.47C200.526 271.33 202.084 270.926 201.964 269.976C201.803 268.709 202.602 267.328 203.942 267.12C205.211 266.923 206.41 267.91 206.666 269.116C206.775 269.634 207.382 269.934 207.869 269.8C208.405 269.653 208.662 269.115 208.553 268.596C208.082 266.371 205.777 264.851 203.553 265.211C201.398 265.56 199.733 267.816 200.007 269.976C200.615 269.811 201.222 269.647 201.83 269.482C200.918 267.449 199.471 265.083 196.901 265.223C194.669 265.345 193.186 267.953 194.7 269.772C195.039 270.179 195.734 270.122 196.084 269.772C196.486 269.37 196.423 268.796 196.084 268.389Z" fill="black"/>
<path d="M36.9616 298.082C37.1556 299.255 37.1557 300.785 36.2677 301.7C35.6238 302.364 34.5099 302.6 33.8893 302C33.2541 301.386 32.2725 301.857 32.2192 302.692C32.1447 303.858 31.2881 304.972 30.1611 305.31C29.0535 305.641 27.6964 305.247 26.9896 304.309C26.6723 303.887 26.1448 303.669 25.6511 303.958C25.2359 304.2 24.9804 304.872 25.3001 305.296C26.5316 306.932 28.6675 307.799 30.6813 307.197C32.6766 306.599 34.045 304.742 34.1759 302.692C33.6192 302.922 33.0625 303.153 32.5058 303.384C33.8948 304.727 36.0876 304.463 37.4716 303.252C39.069 301.855 39.1692 299.502 38.8484 297.562C38.7621 297.04 38.1161 296.749 37.6449 296.878C37.0912 297.03 36.8751 297.559 36.9616 298.082Z" fill="black"/>
<path d="M350.804 76.0728C352.402 73.5618 354 71.0509 355.598 68.5399C355.881 68.0941 355.69 67.4609 355.247 67.2014C354.775 66.9254 354.192 67.1054 353.908 67.5524C352.31 70.0633 350.712 72.5743 349.114 75.0852C348.831 75.5311 349.022 76.1642 349.465 76.4237C349.937 76.6997 350.519 76.5197 350.804 76.0728Z" fill="#158E72"/>
<path d="M358.781 86.018C360.888 85.2855 363.01 84.9858 365.236 85.1093C365.764 85.1386 366.214 84.6387 366.214 84.131C366.214 83.5769 365.766 83.182 365.236 83.1526C362.879 83.0219 360.491 83.356 358.261 84.1312C357.762 84.3047 357.431 84.8012 357.578 85.3347C357.711 85.8192 358.28 86.1924 358.781 86.018Z" fill="#158E72"/>
<path d="M334.621 63.0358C334.937 64.7711 335.252 66.5063 335.568 68.2415C335.659 68.7462 336.299 69.0774 336.771 68.9248C337.312 68.7497 337.553 68.2621 337.454 67.7213C337.139 65.9861 336.823 64.2509 336.508 62.5157C336.416 62.011 335.776 61.6797 335.304 61.8324C334.763 62.0075 334.523 62.4951 334.621 63.0358Z" fill="#158E72"/>
<path d="M213.16 52.8157C213.802 53.7547 214.444 54.6936 215.086 55.6325C215.231 55.845 215.416 56.0121 215.67 56.0821C215.905 56.1466 216.216 56.1175 216.424 55.9835C216.844 55.713 217.084 55.0968 216.775 54.645C216.133 53.706 215.491 52.7671 214.849 51.8282C214.704 51.6157 214.519 51.4486 214.264 51.3786C214.03 51.3141 213.718 51.3432 213.511 51.4772C213.091 51.7477 212.851 52.3639 213.16 52.8157Z" fill="#158E72"/>
<path d="M244.819 49.5165C244.024 51.2487 243.228 52.9808 242.433 54.713C242.22 55.1771 242.286 55.7883 242.784 56.0516C243.214 56.279 243.895 56.1971 244.123 55.7006C244.918 53.9684 245.713 52.2363 246.509 50.5041C246.722 50.04 246.656 49.4288 246.158 49.1655C245.727 48.9381 245.047 49.02 244.819 49.5165Z" fill="#158E72"/>
<path d="M254.167 69.4326C255.998 69.5784 257.857 69.398 259.632 68.9244C260.127 68.7925 260.477 68.221 260.316 67.721C260.151 67.2132 259.642 66.8963 259.112 67.0377C258.697 67.1484 258.278 67.2438 257.855 67.3203C257.758 67.338 257.66 67.3546 257.562 67.3703C257.497 67.3808 257.432 67.3908 257.366 67.4004C257.258 67.4158 257.235 67.4191 257.3 67.4102C257.365 67.4015 257.342 67.4041 257.233 67.418C257.168 67.4259 257.102 67.4334 257.036 67.4405C256.938 67.4511 256.839 67.4607 256.741 67.4693C255.884 67.5441 255.024 67.5441 254.167 67.476C253.655 67.4353 253.166 67.955 253.188 68.4543C253.214 69.0191 253.619 69.3891 254.167 69.4326Z" fill="#158E72"/>
<path d="M324.135 295.008C327.163 294.197 330.248 293.607 333.365 293.27C334.028 293.199 334.438 292.706 334.308 292.032C333.348 287.047 335.838 281.776 339.8 278.752C341.799 277.227 344.117 276.327 346.616 276.109C348.177 275.972 349.761 275.458 350.079 273.704C350.217 272.946 350.127 272.187 350.151 271.424C350.173 270.755 350.268 270.101 350.43 269.452C351.176 266.465 353.218 263.915 355.995 262.58C356.471 262.351 356.597 261.672 356.346 261.242C356.061 260.755 355.485 260.661 355.008 260.891C352.271 262.206 350.186 264.597 349.049 267.39C348.494 268.752 348.196 270.234 348.19 271.706C348.187 272.292 348.378 273.148 348.036 273.669C347.748 274.108 347.015 274.118 346.547 274.158C343.755 274.398 341.13 275.333 338.875 277.017C336.651 278.677 334.819 280.864 333.647 283.387C332.312 286.261 331.82 289.428 332.421 292.552C332.736 292.139 333.05 291.727 333.365 291.314C330.073 291.67 326.814 292.265 323.615 293.121C322.4 293.447 322.915 295.335 324.135 295.008Z" fill="#158E72"/>
<path d="M167.724 310.611C173.005 313.197 179.453 312.97 184.506 309.935C185.584 309.288 184.601 307.595 183.518 308.246C179.09 310.905 173.363 311.199 168.711 308.922C168.237 308.69 167.653 308.793 167.373 309.273C167.121 309.703 167.247 310.378 167.724 310.611Z" fill="#158E72"/>
<path d="M176.341 321.849C177.394 321.586 178.448 321.322 179.502 321.059C179.998 320.935 180.345 320.35 180.185 319.855C180.019 319.341 179.514 319.039 178.982 319.172C177.928 319.435 176.874 319.699 175.82 319.962C175.324 320.086 174.977 320.671 175.137 321.166C175.304 321.68 175.808 321.982 176.341 321.849Z" fill="#158E72"/>
</svg>
